<?xml version="1.0" standalone="no"?>
<!DOCTYPE svg PUBLIC "-//W3C//DTD SVG 20010904//EN"
 "http://www.w3.org/TR/2001/REC-SVG-20010904/DTD/svg10.dtd">
<svg version="1.0" xmlns="http://www.w3.org/2000/svg"
 width="2000.000000pt" height="2000.000000pt" viewBox="0 0 2000.000000 2000.000000"
 preserveAspectRatio="xMidYMid meet">
<metadata>
Created by potrace 1.16, written by Peter Selinger 2001-2019
</metadata>
<g transform="translate(0.000000,2000.000000) scale(0.100000,-0.100000)"
fill="#000000" stroke="none">
<path d="M15315 17978 c-29 -23 -85 -95 -85 -110 0 -6 14 2 31 16 37 32 63 33
83 4 49 -69 -24 -246 -111 -272 -30 -9 -59 7 -115 65 -64 66 -104 89 -156 89
-86 0 -212 -89 -230 -162 -29 -119 60 -286 180 -338 160 -69 410 35 496 207
55 110 84 261 70 364 -9 70 -28 109 -64 138 -34 27 -64 27 -99 -1z"/>
<path d="M7635 17871 c-6 -5 -138 -83 -295 -173 -296 -171 -852 -492 -1070
-618 -69 -39 -500 -288 -957 -552 l-833 -481 0 -2266 0 -2266 53 -29 c47 -25
56 -27 78 -16 56 30 1307 754 1342 776 25 17 37 32 37 48 0 44 42 89 118 126
40 19 74 41 77 50 3 8 14 26 24 39 l19 24 16 -32 c38 -72 -7 -93 794 370 l732
422 0 2263 0 2264 -52 30 c-57 32 -69 35 -83 21z m-35 -2379 l0 -2098 -1444
-837 c-795 -460 -1447 -837 -1450 -837 -4 0 -5 946 -4 2102 l3 2103 1440 832
c792 457 1443 832 1448 832 4 1 7 -943 7 -2097z"/>
<path d="M14583 17582 c-118 -47 -174 -117 -273 -344 -88 -201 -130 -258 -192
-258 -72 0 -78 140 -10 238 5 7 26 19 47 26 l38 13 -25 17 c-68 45 -162 -53
-203 -211 -32 -121 -9 -233 58 -287 36 -29 45 -31 115 -31 87 1 161 27 256 90
214 142 326 348 326 600 0 90 -18 141 -55 155 -33 12 -31 13 -82 -8z"/>
<path d="M10691 17115 c-114 -98 -160 -108 -476 -109 -209 -1 -261 -4 -315
-19 -200 -56 -339 -187 -357 -336 -5 -46 -7 -48 -47 -59 -23 -6 -62 -29 -88
-51 -108 -95 -116 -213 -41 -556 4 -17 11 -20 57 -17 94 6 165 -49 221 -170
29 -64 72 -226 115 -432 35 -169 49 -205 101 -256 137 -133 472 -185 782 -120
273 57 377 137 408 316 10 61 14 392 5 435 -7 35 -21 245 -20 309 1 30 5 102
9 160 8 121 -5 197 -55 306 l-30 67 30 46 c43 64 64 142 56 208 -7 57 -30 113
-46 113 -6 0 -40 -22 -77 -50 l-68 -49 -7 102 c-7 112 -18 160 -44 188 -27 30
-56 23 -113 -26z m248 -705 c51 -261 80 -510 81 -692 0 -156 -17 -170 -170
-139 -175 36 -237 29 -495 -55 -205 -68 -320 -65 -417 9 -80 61 -144 202 -155
342 -3 52 1 95 17 165 15 62 25 146 29 241 l6 145 144 -23 c320 -50 497 -53
657 -13 91 23 184 66 234 109 19 16 38 26 42 23 3 -4 15 -54 27 -112z"/>
<path d="M10756 15968 c-9 -12 -16 -32 -16 -44 0 -32 37 -74 66 -74 32 0 74
42 74 75 0 59 -91 90 -124 43z"/>
<path d="M10200 15940 c-43 -43 -14 -120 44 -120 40 0 69 29 69 70 0 62 -70
93 -113 50z"/>
<path d="M9483 15610 c-72 -29 -44 -150 34 -150 83 0 111 115 37 149 -29 13
-41 13 -71 1z"/>
<path d="M14410 15554 c-46 -39 -90 -111 -90 -148 l0 -31 -43 47 c-118 131
-237 122 -313 -22 -30 -56 -26 -206 8 -286 31 -75 93 -167 143 -214 21 -19 50
-53 66 -74 27 -37 29 -45 29 -136 0 -129 17 -185 80 -253 27 -30 63 -60 80
-67 16 -7 30 -16 30 -20 0 -5 -13 -38 -29 -74 -35 -77 -91 -248 -91 -276 0
-13 12 -25 38 -35 49 -21 63 -40 51 -72 -9 -23 -8 -25 13 -19 142 39 240 -10
240 -120 0 -72 -27 -127 -89 -184 -94 -86 -204 -100 -250 -31 l-23 33 -11 -28
c-7 -16 -12 -60 -13 -99 -1 -87 21 -135 78 -174 60 -41 111 -55 201 -55 l80 1
470 272 c510 296 503 291 584 429 92 156 99 328 18 447 -24 35 -24 38 -11 82
32 106 6 243 -66 351 -54 80 -173 192 -254 237 -36 20 -144 65 -240 100 -287
104 -355 148 -469 303 -80 108 -105 131 -149 138 -28 5 -40 1 -68 -22z"/>
<path d="M10535 14890 c-13 -4 -1 -16 44 -44 84 -51 222 -184 275 -264 90
-137 219 -423 199 -443 -15 -15 -260 -83 -403 -112 -218 -45 -571 -87 -725
-87 l-61 0 -28 88 c-43 133 -120 320 -182 445 -55 109 -150 263 -176 285 -10
8 -36 6 -97 -8 -45 -10 -84 -20 -86 -22 -2 -1 17 -30 42 -63 147 -194 311
-671 338 -980 l6 -70 -89 169 c-60 113 -96 193 -107 240 -63 263 -192 531
-308 644 l-34 33 -79 -16 c-561 -116 -650 -678 -221 -1390 100 -166 384 -581
392 -573 2 2 31 41 65 86 131 178 307 336 452 406 123 59 101 73 223 -151 59
-109 108 -200 110 -201 9 -10 427 235 610 358 153 103 197 141 230 201 28 50
30 63 33 177 3 77 0 122 -6 122 -5 0 -63 -10 -129 -21 -89 -17 -161 -22 -293
-23 -183 -1 -209 4 -254 49 -22 22 -21 71 2 81 9 4 114 8 232 9 118 1 266 7
328 14 l112 14 0 28 c0 59 23 133 49 159 31 32 151 74 189 67 15 -3 34 -1 44
4 16 8 16 13 1 62 -43 147 -131 341 -205 451 -59 87 -172 195 -245 234 -35 18
-63 35 -63 37 0 9 108 -29 155 -53 72 -39 178 -144 231 -229 56 -89 110 -213
159 -360 l35 -108 53 -2 c28 -1 84 -1 124 -1 68 -1 73 -2 107 -36 28 -29 43
-36 73 -36 21 0 49 -7 61 -16 13 -9 25 -14 27 -12 8 7 -193 387 -251 476 -70
107 -164 206 -259 272 -147 101 -232 121 -500 118 -101 -1 -191 -5 -200 -8z"/>
<path d="M13685 14510 c-55 -32 -113 -69 -129 -83 -34 -28 -30 -40 31 -100
l39 -37 82 136 c45 76 81 139 79 140 -1 2 -48 -23 -102 -56z"/>
<path d="M11856 13707 c-59 -105 -199 -323 -239 -370 -22 -27 -98 -96 -169
-154 -70 -58 -128 -109 -128 -113 0 -8 -283 -266 -520 -475 -391 -345 -634
-505 -786 -521 -80 -8 -178 20 -261 76 -64 42 -199 177 -276 276 l-48 61 -75
13 c-71 11 -177 38 -216 55 -16 6 -18 0 -18 -68 l0 -75 68 -26 c65 -25 230
-70 282 -78 l25 -3 -4 -1311 c-3 -1272 -3 -1312 15 -1318 30 -9 239 -35 365
-46 137 -12 482 -14 604 -4 l85 7 0 -62 c0 -86 22 -278 85 -751 51 -383 109
-878 136 -1164 l13 -129 -25 -16 c-68 -44 -99 -106 -99 -198 0 -60 18 -164 31
-177 5 -6 9 -13 9 -17 0 -15 -64 -39 -104 -39 -23 0 -67 -4 -98 -9 -31 -6 -69
-6 -85 -2 -17 5 -45 3 -73 -5 -25 -8 -92 -14 -150 -14 -137 -1 -281 -15 -348
-35 -64 -19 -126 -73 -143 -123 -18 -55 -15 -208 6 -259 44 -108 242 -235 420
-269 50 -10 101 -25 115 -35 51 -35 343 -200 347 -196 2 3 20 72 40 153 19 82
78 320 130 529 89 358 95 385 91 463 -4 83 -4 84 19 79 19 -3 24 1 32 27 4 18
73 292 151 611 114 459 146 574 153 554 5 -13 19 -46 31 -74 l23 -50 -133
-535 c-73 -294 -133 -542 -134 -551 0 -12 13 -18 46 -23 136 -18 288 9 386 69
31 19 59 35 62 35 3 0 6 -74 6 -164 l0 -164 -42 -36 c-23 -20 -67 -45 -97 -57
-107 -40 -302 -34 -393 12 -22 11 -41 19 -42 17 -2 -2 -55 -210 -118 -463 -64
-253 -118 -466 -119 -474 -3 -8 29 -33 81 -64 74 -45 92 -51 140 -52 54 0 63
5 480 246 234 136 607 351 830 479 223 128 413 242 423 252 13 15 17 38 17 89
l0 69 -45 32 c-38 27 -45 37 -45 66 0 18 -9 68 -19 110 -17 68 -36 302 -24
302 2 0 47 -25 99 -55 53 -30 100 -55 105 -55 6 0 9 28 7 66 l-3 66 -425 245
c-234 135 -432 248 -441 250 -15 4 -17 -10 -21 -119 -2 -67 -2 -128 0 -135 8
-25 37 -22 96 11 l62 35 42 -25 c23 -14 42 -29 42 -33 0 -4 -16 -15 -35 -24
-57 -27 -43 -37 54 -37 l89 0 124 -71 c67 -39 127 -75 132 -80 15 -14 -32 -57
-99 -89 -156 -76 -385 -58 -488 39 -41 37 -50 57 -37 81 16 29 -11 26 -40 -5
-25 -27 -83 -50 -100 -40 -5 3 -24 -1 -42 -9 -18 -8 -59 -16 -91 -19 l-57 -6
6 137 c3 75 9 208 12 295 l7 157 112 -65 c62 -36 115 -65 118 -65 3 0 5 30 5
68 l0 67 -157 90 c-239 138 -346 248 -389 402 -15 55 -16 85 -7 290 9 194 14
237 32 285 12 31 30 67 40 80 l18 22 114 -91 c63 -49 175 -136 249 -192 l135
-101 19 438 c10 240 20 439 21 440 7 7 41 -9 66 -30 l26 -23 -18 -395 c-10
-217 -18 -418 -18 -447 l-1 -52 143 -98 c308 -213 719 -465 734 -449 3 3 15
214 26 468 10 255 21 464 22 466 1 2 23 -10 49 -25 46 -28 46 -28 41 -73 -9
-85 -38 -877 -33 -892 7 -16 257 -129 338 -152 30 -8 81 -19 112 -24 l58 -9 4
31 c3 17 8 87 11 156 3 69 8 166 10 215 3 50 10 175 15 280 6 104 14 193 19
198 9 9 295 176 297 174 3 -4 -107 -2052 -110 -2054 -2 -2 -176 96 -387 218
-211 122 -389 223 -396 226 -10 4 -13 -12 -13 -64 0 -68 1 -70 33 -86 77 -39
185 -100 217 -122 19 -13 150 -90 290 -171 252 -147 256 -149 315 -148 l60 0
570 331 c314 182 842 488 1175 680 530 306 607 353 623 384 15 30 29 268 117
1959 55 1059 100 1961 100 2005 -1 150 -43 280 -119 366 -50 57 -169 124 -249
140 -80 17 -193 2 -294 -39 -72 -29 -974 -545 -1088 -622 -339 -230 -649 -710
-731 -1133 -14 -74 -29 -283 -59 -854 -22 -416 -41 -757 -42 -758 -2 -2 -56
28 -122 67 -65 38 -151 86 -190 107 -39 22 -163 93 -276 158 l-205 120 -46
-42 c-76 -70 -101 -80 -209 -80 -80 0 -105 5 -156 27 -55 23 -666 389 -976
585 -164 104 -211 123 -321 133 -145 14 -205 41 -314 142 -93 87 -113 78 -113
-49 0 -95 -5 -99 -67 -54 -80 58 -92 88 -113 291 -18 168 -5 205 89 239 42 15
70 33 89 57 21 27 34 34 62 34 19 0 50 9 68 20 17 11 51 23 75 26 23 4 61 20
84 37 35 24 48 28 77 23 37 -7 148 -78 225 -143 l43 -37 -6 479 c-7 547 -13
872 -22 1161 l-7 202 39 12 c62 20 204 94 274 144 87 61 220 194 277 278 l47
69 -73 142 c-41 78 -79 148 -85 154 -9 10 -18 0 -40 -40z"/>
<path d="M15695 13701 c-66 -30 -1137 -650 -1175 -680 -48 -38 -116 -141 -134
-201 -21 -70 -32 -281 -17 -318 12 -27 90 -82 138 -97 34 -9 72 11 540 280
629 363 684 396 725 437 87 87 123 180 133 349 9 151 0 173 -82 217 -70 37
-75 38 -128 13z"/>
<path d="M13891 13487 c-18 -22 -64 -30 -107 -18 l-37 10 36 -37 c94 -98 145
-314 98 -418 -21 -45 -79 -98 -128 -116 -50 -18 -39 -29 20 -23 130 16 214 94
236 220 22 123 -16 288 -86 374 -17 20 -20 21 -32 8z"/>
<path d="M8303 12906 c-18 -8 -106 -57 -195 -109 -90 -52 -356 -206 -593 -342
-236 -136 -432 -249 -434 -251 -2 -2 -2 -6 1 -9 10 -10 88 26 323 149 280 145
277 145 410 69 102 -58 140 -73 133 -52 -2 8 -39 35 -83 61 -43 25 -85 53 -93
62 -31 31 -1 28 60 -5 127 -68 178 -92 184 -86 11 11 -8 28 -86 72 -78 46
-108 70 -97 81 3 3 32 -8 64 -25 159 -85 208 -104 188 -72 -3 6 -46 34 -95 63
-82 47 -116 78 -88 78 6 0 56 -24 112 -54 116 -61 151 -75 144 -55 -2 7 -47
39 -98 70 -88 52 -118 79 -89 79 6 0 57 -24 113 -54 116 -61 151 -75 144 -55
-2 7 -47 39 -98 70 -52 31 -96 62 -98 69 -7 19 32 4 130 -51 162 -90 194 -74
38 20 -51 31 -96 63 -98 70 -7 20 31 6 130 -50 162 -90 194 -74 38 20 -51 31
-96 62 -98 70 -7 20 31 6 128 -49 47 -27 99 -52 115 -55 l30 -7 -21 21 c-11
12 -56 43 -99 69 -43 26 -81 53 -83 61 -7 20 30 6 128 -49 47 -27 99 -52 115
-55 l30 -7 -20 20 c-11 12 -56 43 -99 69 -44 26 -82 54 -84 62 -7 20 30 6 128
-49 47 -27 99 -52 115 -56 30 -7 30 -7 12 14 -10 11 -54 41 -97 66 -43 25 -81
50 -85 56 -16 25 9 21 68 -10 137 -74 178 -93 184 -87 12 13 -20 37 -127 97
-119 67 -159 78 -207 56z"/>
<path d="M13340 12772 c-61 -9 -190 -46 -245 -70 -168 -73 -296 -194 -370
-346 -24 -50 -55 -134 -69 -186 -61 -227 -155 -682 -215 -1044 -35 -206 -36
-202 52 -283 153 -139 476 -233 664 -193 26 6 53 14 60 18 13 8 204 884 247
1129 39 221 49 346 43 529 -5 184 -17 247 -67 349 -35 73 -66 102 -100 97z"/>
<path d="M7623 12100 c-85 -22 -140 -49 -188 -92 -47 -41 -65 -77 -65 -130 0
-67 13 -74 33 -18 24 68 88 121 224 187 62 30 115 58 118 64 9 14 -43 10 -122
-11z"/>
<path d="M7996 12080 c141 -71 209 -147 230 -255 7 -38 7 -38 20 -14 7 13 13
45 14 70 0 84 -76 159 -206 203 -124 42 -148 41 -58 -4z"/>
<path d="M7345 11780 c13 -72 73 -180 132 -238 124 -123 281 -167 451 -127
163 39 292 160 342 323 11 36 18 67 16 69 -2 3 -7 -4 -10 -15 -11 -33 -93
-102 -160 -133 -85 -40 -182 -59 -301 -59 -210 0 -385 71 -457 185 l-19 30 6
-35z"/>
<path d="M6007 11577 c-21 -105 -38 -197 -37 -204 0 -21 52 -73 91 -94 120
-61 349 -26 394 61 20 40 20 40 -22 248 l-36 183 -21 -25 c-30 -36 -85 -56
-156 -56 -70 0 -126 20 -155 55 l-21 25 -37 -193z"/>
<path d="M7135 11395 c-27 -15 -165 -107 -305 -206 -140 -99 -267 -183 -281
-186 -15 -3 -49 -24 -75 -48 -42 -37 -47 -46 -38 -62 8 -11 21 -17 38 -15 20
2 26 -2 26 -17 0 -23 26 -35 34 -16 8 21 109 70 114 56 3 -9 9 -7 22 4 9 8
111 38 227 64 374 88 563 152 563 193 0 16 -5 19 -22 15 -76 -19 -551 -108
-560 -105 -5 2 46 51 114 109 140 120 201 188 196 219 -3 20 -4 20 -53 -5z"/>
<path d="M5185 11202 c-84 -41 -981 -564 -992 -579 -20 -25 -15 -57 10 -80 26
-23 309 -186 361 -208 19 -8 45 -15 56 -15 41 0 2 38 -98 96 -150 87 -202 123
-202 139 0 8 4 15 9 15 25 0 99 -35 210 -99 126 -72 189 -97 203 -83 13 13
-30 47 -152 117 -112 65 -160 100 -160 117 0 18 49 5 115 -30 39 -21 113 -62
166 -90 99 -54 158 -68 140 -34 -5 10 -58 46 -118 81 -59 35 -125 75 -146 88
-35 22 -55 48 -45 58 11 11 84 -21 204 -89 132 -74 208 -106 222 -92 11 12
-47 55 -166 124 -105 60 -162 105 -149 118 13 13 72 -11 198 -83 139 -78 204
-107 221 -97 17 11 -36 55 -134 111 -169 95 -221 143 -142 130 19 -3 99 -42
177 -86 129 -74 199 -103 214 -87 12 11 -22 38 -116 93 -149 86 -201 122 -201
138 0 8 4 15 9 15 25 0 99 -35 211 -99 124 -71 194 -101 207 -87 13 12 -41 54
-157 121 -147 85 -191 125 -140 125 18 0 87 -34 280 -139 71 -38 130 -53 130
-32 0 13 -36 38 -170 116 -117 68 -150 92 -150 107 0 23 67 2 165 -54 166 -92
218 -118 243 -118 54 0 5 42 -157 134 -95 55 -151 100 -138 112 13 13 72 -11
189 -78 154 -89 238 -124 238 -98 0 18 -45 51 -142 107 -170 96 -221 143 -141
130 20 -4 97 -41 171 -83 132 -76 204 -106 219 -90 13 13 -48 56 -219 155
-152 88 -167 94 -228 98 -50 3 -74 -1 -105 -15z"/>
<path d="M7990 10911 c-114 -67 -1268 -734 -2133 -1233 -246 -142 -453 -258
-459 -258 -5 0 -355 196 -777 436 -421 241 -769 439 -773 441 -5 2 -8 -484 -8
-1081 l0 -1085 48 14 c49 15 71 35 132 125 43 62 136 141 210 178 77 38 181
43 244 12 96 -46 110 -155 42 -327 -55 -140 -49 -179 45 -289 104 -122 134
-208 105 -305 -22 -76 -46 -101 -175 -182 -63 -40 -123 -84 -134 -99 -28 -38
-25 -94 9 -208 41 -134 41 -259 2 -344 l-28 -58 16 -137 c15 -123 15 -304 1
-496 -2 -29 8 -35 693 -426 l695 -397 45 25 c25 14 69 40 97 57 l53 30 2 184
3 184 743 429 744 429 149 -85 149 -85 100 57 100 57 0 173 0 172 102 57 101
58 -7 2020 c-4 1112 -10 2022 -14 2023 -4 0 -59 -29 -122 -66z"/>
<path d="M11925 10876 c-39 -12 -79 -27 -90 -33 -18 -11 -16 -13 25 -31 25
-11 101 -44 170 -74 69 -30 158 -67 198 -82 65 -25 72 -30 66 -50 -31 -97 -33
-264 -4 -357 11 -35 23 -69 27 -76 5 -6 8 66 9 160 0 155 4 187 33 326 18 84
29 157 24 161 -11 11 -134 48 -216 66 -94 20 -160 17 -242 -10z"/>
<path d="M11240 5994 c-136 -60 -151 -74 -162 -161 -9 -77 -30 -106 -78 -106
-46 0 -80 31 -127 116 -22 43 -55 93 -72 112 -17 20 -31 40 -31 45 0 6 -4 10
-9 10 -15 0 -29 -55 -46 -180 -8 -63 -24 -158 -35 -210 -23 -109 -26 -262 -7
-300 31 -63 170 -105 377 -115 159 -8 191 -16 325 -83 192 -95 333 -132 512
-132 165 0 346 53 429 124 l39 34 1 88 c1 113 -11 170 -42 211 -33 44 -77 65
-222 107 -112 33 -124 35 -178 25 -73 -14 -139 -47 -183 -93 -38 -39 -79 -47
-101 -20 -35 41 47 117 163 152 l60 19 -33 12 c-91 31 -239 -15 -314 -98 -37
-41 -90 -19 -84 36 4 34 72 83 150 108 29 9 60 19 68 22 11 3 7 9 -14 20 -55
29 -173 -7 -253 -77 -19 -17 -44 -30 -56 -30 -52 0 -63 54 -19 95 37 35 139
85 174 85 l29 0 -39 38 c-31 28 -45 53 -61 108 -12 41 -28 75 -37 78 -19 7 -1
13 -124 -40z"/>
<path d="M9130 5483 c-114 -12 -176 -25 -187 -40 -7 -9 -13 -40 -14 -67 0 -28
-4 -71 -7 -96 l-7 -45 -32 43 c-17 24 -35 56 -38 72 -3 16 -13 34 -21 41 -8 6
-14 24 -14 40 0 122 -94 -164 -109 -332 -13 -142 -5 -171 74 -284 80 -113 87
-135 95 -290 6 -122 10 -146 33 -190 44 -88 147 -166 266 -201 120 -35 314
-40 431 -12 62 15 150 60 180 93 24 25 25 33 25 139 0 106 -2 115 -33 178 -44
91 -171 222 -227 237 -125 32 -282 18 -370 -34 -46 -26 -69 -25 -86 6 -16 31
4 53 83 89 60 28 88 35 158 38 47 2 104 -1 128 -6 45 -10 49 -7 28 20 -52 69
-273 75 -401 11 -40 -20 -54 -22 -73 -14 -18 9 -23 18 -20 39 2 22 15 33 73
62 69 35 70 35 207 35 76 0 138 1 138 3 0 2 -7 16 -15 32 -19 37 -64 50 -170
50 -61 0 -97 -7 -150 -26 -95 -35 -119 -39 -134 -20 -22 27 -3 52 61 80 82 36
200 51 280 37 34 -6 63 -9 65 -8 1 2 -2 32 -8 68 -6 35 -8 98 -4 139 3 41 2
81 -3 89 -16 24 -104 34 -202 24z"/>
</g>
</svg>
