<?xml version="1.0" standalone="no"?>
<!DOCTYPE svg PUBLIC "-//W3C//DTD SVG 20010904//EN"
 "http://www.w3.org/TR/2001/REC-SVG-20010904/DTD/svg10.dtd">
<svg version="1.0" xmlns="http://www.w3.org/2000/svg"
 width="3000.000000pt" height="2000.000000pt" viewBox="0 0 3000.000000 2000.000000"
 preserveAspectRatio="xMidYMid meet">
<metadata>
Created by potrace 1.16, written by Peter Selinger 2001-2019
</metadata>
<g transform="translate(0.000000,2000.000000) scale(0.100000,-0.100000)"
fill="#000000" stroke="none">
<path d="M6730 16885 l0 -1345 -249 0 c-197 0 -251 -3 -260 -14 -8 -10 -10
-338 -9 -1227 l3 -1214 411 -3 412 -2 4 -83 c2 -54 10 -96 23 -122 11 -22 67
-86 126 -143 149 -145 154 -156 154 -357 0 -142 2 -165 21 -206 25 -54 89
-119 151 -151 43 -23 44 -23 36 -63 -14 -71 -6 -325 16 -500 20 -161 42 -304
111 -740 16 -104 37 -253 45 -330 29 -258 55 -349 125 -428 l29 -34 -45 -109
c-112 -269 -217 -635 -250 -863 -48 -344 32 -758 252 -1312 30 -75 54 -144 54
-153 0 -15 -85 -16 -1015 -16 -956 0 -1015 1 -1023 18 -5 9 -19 73 -32 142
-82 466 -127 674 -155 731 -54 105 -169 190 -286 208 -78 13 -1712 2 -1773
-11 -62 -14 -117 -68 -147 -146 -18 -44 -23 -77 -22 -147 0 -79 9 -127 77
-390 71 -275 190 -728 202 -766 4 -13 -6 -17 -51 -22 -71 -7 -130 -40 -151
-86 -26 -53 -29 -181 -9 -323 l17 -122 -23 -16 c-47 -30 -121 -105 -146 -147
-13 -24 -33 -70 -43 -103 -13 -44 -35 -80 -82 -137 -36 -43 -84 -106 -108
-140 -24 -35 -45 -61 -46 -60 -2 2 4 30 12 62 28 106 -3 260 -65 319 -86 82
-214 3 -197 -121 12 -89 75 -174 188 -253 l47 -33 -30 -51 c-44 -75 -109 -203
-134 -265 l-22 -54 -5 77 c-4 61 -12 90 -42 150 -57 116 -134 167 -202 134
-37 -17 -74 -73 -74 -113 0 -45 46 -130 92 -169 36 -31 175 -96 206 -96 17 0
16 -11 -12 -120 -13 -52 -29 -131 -36 -175 -13 -83 -30 -122 -30 -68 0 45 -64
165 -110 207 -42 38 -82 46 -134 26 -34 -13 -66 -66 -66 -110 1 -104 100 -203
257 -254 50 -16 51 -18 47 -49 -2 -18 -13 -108 -24 -202 -12 -93 -22 -177 -24
-185 -1 -8 -10 12 -20 45 -23 78 -60 145 -102 186 -26 25 -44 33 -83 37 -47 4
-53 2 -86 -31 -30 -30 -35 -41 -35 -84 0 -61 44 -142 101 -182 22 -17 73 -42
112 -57 40 -15 76 -31 80 -34 11 -9 -24 -145 -68 -266 -43 -119 -58 -145 -51
-88 8 54 -9 140 -39 209 -14 31 -25 65 -25 76 0 12 -15 36 -34 55 -42 42 -95
46 -147 11 -50 -33 -108 -154 -116 -243 -3 -38 -7 -64 -9 -59 -28 111 -72 251
-103 326 l-38 96 89 28 c149 46 233 129 233 231 0 47 -4 57 -33 86 -27 27 -40
33 -76 33 -53 0 -85 -21 -139 -91 -53 -70 -77 -140 -86 -248 -1 -6 -18 26 -40
70 -21 43 -70 139 -110 213 -39 74 -70 135 -69 136 2 1 41 14 88 28 105 32
154 64 203 129 30 42 37 59 37 98 0 86 -58 140 -137 125 -80 -15 -184 -172
-191 -292 -3 -34 -7 -63 -11 -63 -13 0 -117 227 -156 342 l-23 66 99 32 c80
26 109 41 148 76 51 46 91 113 91 153 0 64 -58 121 -123 121 -92 0 -198 -150
-214 -303 -5 -48 -8 -56 -15 -38 -16 44 -47 237 -49 310 l-2 74 93 19 c108 22
141 37 193 87 51 48 67 80 67 137 0 39 -5 51 -34 80 -56 56 -126 43 -207 -39
-49 -50 -99 -138 -99 -175 0 -12 -5 -22 -11 -22 -7 0 -9 37 -5 118 2 64 3 108
0 97 -2 -11 -8 -76 -12 -145 l-7 -125 -18 55 c-32 96 -114 195 -192 231 -53
25 -85 24 -126 -4 -70 -47 -70 -141 1 -208 65 -62 149 -89 276 -89 l64 0 0
-52 c1 -50 21 -241 35 -318 l6 -35 -18 25 c-88 127 -258 209 -341 166 -62 -32
-79 -119 -36 -180 25 -35 109 -75 170 -82 42 -5 183 15 229 32 6 3 23 -32 38
-81 16 -46 48 -130 72 -185 l44 -101 -43 38 c-53 46 -135 88 -193 98 -117 19
-187 -112 -106 -197 68 -72 163 -91 306 -63 49 10 89 16 91 14 7 -7 118 -233
152 -307 l33 -72 -47 39 c-50 43 -137 87 -189 97 -47 9 -101 -13 -124 -50 -42
-68 -13 -144 71 -190 67 -36 142 -43 244 -22 43 9 82 16 86 16 16 0 130 -394
117 -406 -2 -2 -14 19 -28 47 -42 91 -176 189 -257 189 -69 0 -112 -46 -112
-119 0 -56 35 -100 109 -138 61 -32 67 -33 182 -33 136 0 118 16 144 -125 8
-44 15 -90 15 -102 l0 -23 -200 0 -200 0 5 -52 c3 -29 25 -381 50 -783 24
-401 47 -758 51 -792 l6 -63 -574 -2 c-501 -3 -573 -5 -573 -18 0 -13 1590
-15 14250 -15 13563 0 14250 1 14253 18 3 16 -22 17 -427 17 l-431 0 0 43 c0
23 5 112 10 197 10 152 90 1432 90 1444 0 3 -79 6 -176 6 -97 0 -174 4 -172 8
2 4 20 52 42 106 34 88 40 97 60 91 49 -14 213 -18 252 -5 63 21 118 64 139
109 15 35 16 47 6 81 -16 54 -52 80 -110 80 -81 -1 -187 -65 -254 -154 -16
-23 -28 -34 -25 -26 41 118 81 255 96 328 10 50 20 94 23 97 3 3 32 -5 65 -16
87 -32 213 -32 277 0 57 28 87 70 87 123 0 53 -18 85 -58 104 -76 36 -221 -16
-312 -112 -28 -30 -52 -54 -54 -54 -2 0 0 21 4 47 5 27 16 129 25 228 10 99
21 183 24 188 4 4 34 -2 67 -14 141 -49 271 -33 338 42 55 60 48 139 -16 180
-44 27 -119 19 -204 -21 -65 -31 -98 -59 -152 -125 -29 -36 -32 -37 -32 -16 0
62 60 394 76 422 2 4 39 -4 81 -18 111 -36 201 -36 273 -1 64 32 90 68 90 128
0 52 -13 76 -52 96 -81 42 -252 -22 -335 -124 -24 -29 -43 -48 -43 -43 0 34
93 239 146 323 l24 38 48 -24 c63 -32 147 -56 194 -56 145 0 237 92 194 194
-26 61 -97 80 -201 52 -62 -16 -122 -46 -166 -83 l-34 -28 22 35 c12 19 56 78
97 131 l75 97 78 6 c104 9 170 29 221 66 58 42 82 84 82 143 0 40 -5 54 -29
77 -16 16 -41 32 -56 36 -90 23 -231 -103 -277 -249 -18 -57 -37 -90 -91 -156
-37 -46 -86 -110 -108 -143 -23 -33 -43 -57 -46 -54 -3 2 3 28 12 57 32 96 -1
262 -63 323 -62 59 -148 40 -184 -40 -17 -39 -18 -52 -9 -95 21 -97 69 -159
183 -237 27 -18 48 -35 48 -37 0 -3 -15 -28 -34 -57 -40 -64 -106 -194 -132
-263 l-19 -50 -6 78 c-12 139 -98 277 -184 293 -72 13 -142 -61 -130 -140 13
-87 73 -152 190 -207 46 -21 89 -39 97 -39 26 0 26 -10 6 -83 -12 -40 -31
-126 -43 -192 -13 -66 -25 -113 -27 -105 -40 130 -70 185 -128 234 -54 45
-143 28 -175 -34 -53 -102 42 -237 211 -301 46 -18 84 -35 84 -39 0 -4 -11
-92 -25 -196 -14 -104 -25 -195 -25 -202 0 -25 -18 -2 -24 32 -11 56 -64 152
-106 190 -33 30 -48 36 -83 36 -49 0 -81 -19 -102 -60 -51 -100 38 -235 195
-295 41 -16 79 -32 83 -35 5 -4 -1 -44 -13 -89 -22 -86 -95 -300 -106 -310 -4
-3 -4 17 -1 44 11 89 -51 299 -104 348 -56 52 -139 30 -190 -51 -36 -56 -69
-158 -70 -216 0 -22 -2 -36 -4 -31 -2 6 -17 60 -34 120 -17 61 -46 151 -66
200 -19 50 -35 93 -35 97 0 4 37 18 83 32 94 29 153 67 197 127 50 70 52 145
3 193 -36 36 -81 42 -130 17 -77 -39 -151 -161 -161 -263 -5 -59 -14 -73 -27
-40 -3 9 -50 100 -103 202 -53 102 -98 188 -100 191 -1 3 32 16 75 28 101 30
139 50 190 103 48 50 63 83 63 141 0 49 -19 81 -60 102 -41 21 -72 19 -115
-11 -87 -58 -138 -154 -154 -286 l-7 -63 -53 110 c-61 125 -132 306 -125 317
3 4 14 8 24 8 28 0 159 49 194 73 44 29 94 93 107 138 34 112 -77 200 -176
139 -67 -42 -138 -171 -150 -273 -4 -32 -9 -56 -12 -53 -13 13 -44 190 -50
289 l-6 107 25 0 c14 0 58 7 98 16 84 19 150 60 197 122 27 36 33 52 33 94 0
44 -4 54 -34 84 -55 55 -113 46 -197 -33 -52 -48 -109 -145 -109 -183 0 -12
-4 -19 -9 -15 -5 3 -8 47 -6 98 3 85 3 87 -5 27 -4 -36 -9 -92 -10 -125 l-1
-60 -19 51 c-24 69 -37 91 -82 145 l-38 45 -2 635 -3 634 -1972 3 -1973 2 -2
-2667 -3 -2668 -2397 -3 -2398 -2 -2 2667 -3 2668 -1197 3 -1198 2 -23 38
c-13 20 -47 78 -77 127 -89 151 -180 275 -208 287 -72 28 -318 -16 -602 -107
-63 -21 -125 -40 -137 -42 l-23 -5 -2 463 -3 464 -447 3 -448 2 0 606 0 605
76 87 c284 325 496 730 598 1142 45 180 62 298 78 511 35 501 -89 1054 -335
1493 -380 680 -997 1156 -1740 1346 -293 74 -597 101 -922 82 -409 -25 -742
-111 -1090 -283 -138 -67 -360 -205 -466 -289 -241 -189 -460 -427 -623 -676
-208 -319 -356 -705 -411 -1069 -9 -60 -20 -125 -23 -144 l-7 -34 -70 114
c-39 62 -72 117 -73 121 -2 5 14 29 37 54 73 84 83 154 50 362 -16 97 -11 114
53 201 34 47 50 61 78 67 56 11 86 31 104 69 10 19 39 121 66 226 l48 191 59
37 c55 35 113 92 113 111 0 25 -24 62 -78 122 -77 85 -88 126 -76 282 15 206
11 271 -24 376 -31 95 -31 95 -16 155 18 69 13 106 -21 151 -54 71 -264 184
-485 261 -199 70 -249 78 -475 77 -183 -1 -209 -3 -300 -27 -256 -68 -408
-198 -479 -409 -54 -161 -68 -282 -75 -660 l-6 -347 -35 -36 c-33 -35 -152
-125 -164 -125 -3 0 -6 463 -6 1029 0 566 -3 1036 -6 1045 -5 14 -38 16 -260
16 l-254 0 0 1345 c0 1338 0 1345 -20 1345 -20 0 -20 -7 -20 -1345z m520
-2428 l0 -1043 -50 -49 c-62 -60 -105 -125 -127 -191 -9 -27 -20 -51 -24 -54
-4 -3 -185 -4 -403 -2 l-396 2 0 1190 0 1190 500 0 500 0 0 -1043z m4776 73
c552 -45 1060 -244 1494 -588 116 -92 331 -307 423 -422 394 -494 597 -1075
597 -1710 0 -595 -183 -1146 -540 -1627 l-65 -88 -5 45 -5 45 -225 0 -225 0
-3 -264 c-1 -175 -6 -269 -13 -278 -21 -24 -266 -188 -270 -180 -1 1 -3 63 -4
138 -1 75 -5 141 -9 148 -11 17 -301 15 -317 -2 -10 -10 -23 -1 -68 43 -31 31
-86 75 -123 99 -38 24 -68 44 -68 45 0 1 7 24 15 51 23 74 20 173 -6 253 -12
37 -57 144 -99 238 -107 237 -107 214 -3 192 144 -31 226 -11 263 61 23 47 55
159 71 256 11 64 16 75 68 133 86 98 85 95 67 134 -9 19 -46 63 -81 98 -36 35
-68 74 -71 87 -7 25 -4 52 17 189 12 74 11 92 -9 195 -18 95 -20 126 -12 184
33 242 -10 310 -179 284 -76 -12 -76 -12 -201 29 -167 54 -341 99 -415 107
-67 7 -200 -7 -291 -31 -210 -54 -420 -197 -494 -335 -31 -58 -34 -73 -41
-189 -8 -143 -17 -190 -33 -189 -6 0 -30 8 -53 17 -35 14 -55 36 -129 142
-186 266 -291 404 -340 449 -94 86 -224 141 -334 141 -184 0 -336 -113 -390
-288 -32 -102 -24 -197 26 -295 13 -27 24 -55 24 -63 0 -26 -79 -101 -185
-174 -138 -96 -196 -182 -245 -370 -24 -95 -40 -122 -40 -71 0 88 -129 378
-303 681 l-95 165 14 118 c58 503 261 988 581 1387 93 117 308 331 425 423
545 431 1227 641 1904 587z m-2697 -180 c12 -41 21 -89 21 -107 0 -29 -3 -33
-25 -33 -15 0 -38 -6 -54 -14 -30 -16 -111 -100 -111 -115 0 -28 26 -16 75 34
44 46 60 56 82 53 27 -3 28 -5 23 -48 -3 -25 -5 -94 -4 -155 1 -130 14 -165
100 -258 30 -32 54 -62 54 -66 0 -16 -65 -73 -117 -103 -49 -28 -52 -32 -64
-86 -6 -31 -14 -62 -18 -68 -9 -18 -81 14 -81 35 0 37 -33 140 -70 222 -84
182 -69 306 75 619 34 74 66 146 70 159 10 33 21 17 44 -69z m-51 -1014 c2 -3
-12 -62 -32 -133 -36 -127 -57 -163 -93 -163 -11 0 -13 5 -8 18 32 75 57 168
62 225 l6 69 30 -6 c17 -3 32 -8 35 -10z m-1003 -929 c17 -6 77 -41 135 -77
131 -84 138 -87 190 -99 55 -12 148 2 219 35 29 13 57 24 61 24 9 0 153 -233
273 -440 104 -181 243 -463 282 -570 30 -82 36 -163 51 -716 l7 -251 -64 -7
c-35 -4 -109 -13 -164 -21 -55 -8 -123 -17 -152 -20 l-51 -7 -16 74 c-194 906
-249 1113 -350 1311 -128 253 -302 437 -413 437 -73 0 -144 -86 -222 -271 -74
-177 -86 -244 -86 -484 1 -217 18 -351 75 -584 59 -240 186 -592 285 -791 23
-47 45 -94 49 -106 l6 -21 -92 14 c-249 38 -373 85 -433 164 -49 64 -70 137
-90 305 -9 77 -46 328 -81 559 -84 554 -104 712 -111 880 -6 157 5 231 35 222
128 -42 174 -50 282 -51 123 -1 153 7 196 56 44 48 47 83 24 254 -17 122 5
181 75 196 21 5 32 3 80 -15z m2170 -48 c66 -24 148 -76 140 -89 -4 -6 1 -7
11 -3 13 5 16 3 11 -10 -4 -10 -2 -14 6 -11 19 7 58 -42 51 -63 -4 -12 -3 -14
3 -6 11 15 76 -64 69 -84 -3 -7 1 -10 10 -6 7 3 14 0 14 -6 0 -6 26 -45 58
-88 118 -158 175 -245 156 -239 -200 61 -284 42 -284 -64 0 -54 16 -106 60
-192 17 -33 29 -63 26 -65 -8 -9 -66 8 -61 18 4 5 -1 6 -9 3 -8 -3 -59 6 -113
21 -257 69 -340 103 -422 173 l-34 29 18 52 c35 106 0 230 -69 243 -31 6 -48
-11 -73 -75 l-19 -49 -20 43 c-14 33 -19 66 -19 139 0 89 2 99 34 157 18 35
37 60 42 57 5 -3 6 3 2 12 -5 14 -3 16 11 11 11 -4 15 -3 11 4 -17 26 104 92
195 108 67 11 128 5 195 -20z m-2084 -347 c133 -86 306 -349 384 -586 59 -180
152 -568 249 -1034 18 -90 36 -166 39 -169 8 -7 336 33 757 93 354 50 391 62
488 149 64 58 73 74 106 197 14 54 37 120 50 147 25 48 189 231 207 231 5 0
14 -11 21 -25 15 -33 -10 -99 -63 -162 -30 -37 -36 -50 -26 -59 11 -11 196
-54 321 -74 90 -14 119 -53 78 -105 -10 -12 -45 -45 -79 -73 -51 -43 -65 -61
-87 -119 -14 -37 -30 -73 -34 -79 -12 -18 -69 -33 -166 -45 -87 -11 -103 -17
-361 -141 -148 -72 -324 -157 -390 -188 -66 -32 -201 -97 -300 -145 -99 -48
-220 -106 -270 -130 -49 -24 -202 -97 -339 -164 -137 -66 -253 -118 -259 -114
-15 9 -103 148 -183 289 -205 361 -385 847 -459 1244 -36 193 -45 468 -21 609
28 158 127 383 198 446 47 43 79 45 139 7z m1745 -114 c11 -22 15 -49 12 -93
-3 -51 -11 -74 -45 -131 -23 -38 -51 -94 -63 -125 -25 -69 -109 -170 -246
-296 -89 -82 -226 -195 -230 -190 -2 2 36 142 63 235 9 28 34 85 57 124 32 57
55 83 106 121 221 162 223 164 294 330 14 31 27 57 30 57 3 0 13 -14 22 -32z
m2701 -167 c3 -38 3 -81 -1 -95 -5 -22 -9 -25 -26 -16 -10 5 -26 10 -35 10
-23 0 -75 -55 -75 -79 0 -31 27 -25 45 9 17 33 26 36 56 19 18 -9 19 -17 13
-69 -3 -32 -4 -70 0 -84 3 -14 42 -64 86 -111 44 -46 80 -87 80 -91 0 -3 -30
-37 -67 -75 -55 -58 -68 -77 -72 -112 -5 -37 -9 -42 -34 -45 -16 -2 -34 1 -40
6 -27 21 -47 22 -47 2 0 -21 46 -50 80 -50 24 0 25 -13 4 -93 -36 -139 -77
-175 -189 -163 -33 3 -89 14 -125 24 -62 16 -65 19 -76 57 -16 51 -17 120 -3
148 6 12 51 60 99 107 48 47 98 105 111 130 33 66 30 149 -10 271 -17 53 -31
107 -31 121 0 40 56 112 146 188 46 39 84 76 84 83 0 7 5 4 11 -6 6 -9 13 -48
16 -86z m-1858 -27 c47 -14 95 -29 106 -34 11 -5 55 -23 98 -41 l79 -32 -55
-56 c-31 -31 -97 -98 -146 -148 -50 -51 -93 -93 -96 -93 -2 0 -14 17 -25 38
-12 20 -32 52 -46 71 -15 22 -22 42 -18 55 3 14 2 17 -4 8 -13 -19 -39 23 -86
142 -16 40 -21 97 -9 109 15 15 122 5 202 -19z m564 -37 c48 -27 67 -62 67
-122 0 -37 -6 -52 -33 -81 l-32 -36 -37 29 c-20 15 -69 52 -108 82 l-70 55 32
31 c68 66 118 77 181 42z m-1016 -211 c103 -29 221 -61 261 -71 70 -17 75 -20
108 -69 18 -28 34 -55 34 -60 0 -6 -45 -55 -99 -111 -98 -99 -100 -100 -121
-83 -12 10 -31 18 -42 18 -11 0 -58 -40 -114 -97 -109 -114 -143 -173 -178
-315 -28 -111 -44 -139 -119 -196 -87 -68 -115 -75 -502 -127 -138 -19 -181
-21 -187 -12 -4 7 -8 74 -8 150 l0 138 118 155 117 156 40 -6 c137 -21 139
-21 178 14 20 18 37 41 37 51 0 13 7 19 23 19 32 0 96 46 103 74 4 16 15 26
34 30 37 7 100 70 100 99 0 44 -21 58 -103 69 -47 7 -74 15 -69 20 6 6 32 5
68 -1 108 -20 138 -16 184 28 32 31 41 45 38 67 -4 36 -44 64 -95 66 -24 1
-43 4 -43 6 0 9 33 42 41 42 4 0 93 -24 196 -54z m-154 -41 c25 -11 21 -30
-14 -59 -24 -20 -41 -26 -79 -26 -57 0 -147 18 -155 31 -3 4 2 23 11 40 l16
32 101 -5 c56 -3 110 -9 120 -13z m-129 -175 c34 -13 33 -33 -5 -64 -35 -30
-45 -31 -85 -12 -16 8 -57 17 -91 21 l-63 7 15 29 c15 29 16 29 110 29 51 0
105 -4 119 -10z m792 -41 c24 -18 41 -36 37 -42 -3 -6 -1 -7 5 -3 10 6 55 -19
89 -51 7 -6 18 -13 25 -16 8 -3 -42 -60 -123 -141 l-135 -136 -51 0 c-111 0
-172 120 -106 209 26 35 201 211 210 211 3 0 24 -14 49 -31z m-898 -73 c16
-16 15 -19 -17 -48 -34 -30 -36 -31 -111 -25 -124 10 -149 26 -114 76 16 23
21 23 121 19 81 -4 108 -9 121 -22z m-538 -126 c0 -38 45 -89 87 -98 l32 -7
-82 -109 -82 -110 -9 157 -8 157 23 20 c33 27 39 25 39 -10z m1385 -535 c9
-79 -6 -168 -38 -231 -14 -27 -61 -110 -106 -184 -111 -184 -125 -222 -126
-340 0 -131 22 -171 124 -229 11 -7 9 -22 -14 -82 -16 -41 -32 -78 -36 -83 -9
-10 -202 80 -304 142 -201 121 -411 280 -534 405 l-64 66 114 54 c63 30 218
104 346 166 183 87 242 111 275 111 60 0 161 23 191 43 16 10 35 42 53 89 18
48 39 84 63 106 19 17 38 32 42 32 4 0 11 -29 14 -65z m2935 -505 l0 -190
-192 2 -193 3 -3 188 -2 187 195 0 195 0 0 -190z m-3785 -311 c161 -128 337
-238 520 -325 63 -30 115 -58 115 -62 0 -5 -14 -48 -30 -98 -33 -95 -111 -350
-130 -422 l-11 -42 -532 2 -532 3 -7 103 c-9 133 -23 223 -54 346 -21 86 -26
131 -31 328 l-6 228 204 98 204 99 100 -93 c55 -51 141 -125 190 -165z m-2153
235 c60 -31 247 -75 418 -99 l45 -6 73 -127 c40 -70 97 -161 126 -202 46 -66
56 -75 82 -73 16 0 142 56 279 123 138 67 282 137 321 155 l71 32 6 -218 c6
-183 11 -234 32 -321 57 -234 81 -613 72 -1146 -8 -499 -40 -779 -142 -1257
-35 -165 -129 -640 -160 -810 -63 -342 -122 -637 -200 -990 -105 -477 -148
-770 -190 -1310 -9 -110 -18 -219 -21 -243 l-5 -42 -260 0 c-240 0 -259 1
-259 18 0 99 -75 962 -101 1157 -37 289 -40 321 -34 385 11 116 36 252 75 411
52 205 156 694 169 792 26 191 4 500 -75 1057 -35 251 -118 750 -133 807 -11
40 -187 257 -212 261 -35 6 -19 -23 75 -138 86 -104 96 -120 106 -175 150
-820 229 -1511 202 -1762 -12 -111 -104 -558 -166 -808 -86 -346 -101 -514
-65 -710 13 -68 49 -386 49 -430 0 -26 -18 -62 -75 -148 -105 -160 -212 -377
-269 -544 -37 -110 -52 -143 -65 -143 -22 0 -378 48 -410 56 -22 5 -23 7 -17
72 34 337 182 1179 272 1544 74 304 122 413 289 663 165 248 209 353 225 540
14 166 -16 499 -81 880 -49 291 -74 389 -142 565 -134 343 -205 605 -238 870
-31 254 20 570 156 970 43 127 135 360 142 360 2 0 18 -7 35 -16z m4707 -38
c108 -73 156 -129 205 -242 65 -151 172 -316 414 -639 195 -259 406 -522 468
-581 98 -94 372 -277 789 -527 138 -82 251 -151 253 -152 6 -6 -68 -274 -109
-390 -41 -121 -77 -199 -111 -246 -11 -15 -17 -32 -14 -38 4 -6 36 -11 72 -11
l64 0 0 -38 c0 -100 -61 -241 -137 -314 -96 -93 -234 -168 -802 -442 -201 -96
-258 -147 -336 -294 -29 -56 -63 -105 -84 -123 -76 -63 -276 -103 -476 -97
-88 3 -142 10 -166 20 -34 15 -38 21 -52 85 -45 195 -191 1165 -343 2273 -35
261 -70 477 -76 481 -6 4 -145 7 -310 7 -165 0 -301 2 -303 4 -2 2 -62 152
-134 333 -167 419 -161 405 -180 405 -10 0 -47 -57 -103 -158 -108 -194 -124
-231 -182 -412 -26 -80 -50 -151 -54 -159 -10 -19 -372 -22 -372 -3 0 45 253
836 275 860 2 2 41 -16 86 -39 158 -79 224 -93 299 -63 37 15 42 21 57 75 9
33 19 56 23 52 3 -4 14 -34 23 -65 26 -85 39 -95 134 -108 93 -12 305 -15 378
-5 74 10 182 43 188 58 2 6 -2 46 -9 87 -16 91 -19 194 -5 237 22 74 135 197
175 191 11 -2 40 -29 65 -62 51 -65 81 -85 128 -86 42 0 108 51 153 118 19 28
36 52 38 52 2 0 34 -20 71 -44z m1226 -622 l0 -509 -177 -2 c-147 -1 -180 1
-193 13 -13 13 -15 82 -15 508 0 271 2 495 4 497 2 2 89 3 193 3 l188 -2 0
-508z m-737 363 l3 -128 -87 3 -87 3 -40 79 c-24 47 -42 97 -45 126 l-4 48
128 -1 129 -2 3 -128z m322 -432 c0 -200 -3 -355 -8 -355 -12 0 -272 347 -273
365 -1 8 -1 22 -1 30 0 8 0 48 1 89 l1 75 78 41 c42 23 102 58 132 79 30 21
58 36 62 34 4 -2 7 -163 8 -358z m-320 165 c0 -55 -2 -100 -5 -100 -4 0 -105
147 -129 188 -5 9 10 12 63 12 l71 0 0 -100z m-1728 -393 c70 -177 130 -330
134 -339 6 -17 -12 -18 -275 -18 -272 0 -281 1 -281 19 0 27 94 311 121 364
42 85 163 297 168 297 3 0 63 -146 133 -323z m-872 -276 c0 -5 -3 -23 -6 -41
-6 -28 -15 -36 -71 -61 -86 -39 -147 -83 -169 -125 l-19 -34 -381 0 -381 0 -6
83 c-4 45 -7 106 -7 135 l0 52 520 0 c290 0 520 -4 520 -9z m-5088 -159 c72
-35 166 -130 152 -153 -5 -8 -3 -9 6 -4 10 6 12 4 7 -9 -4 -9 -3 -15 2 -12 12
8 60 -200 77 -329 2 -16 10 -66 19 -110 9 -44 18 -91 20 -105 15 -84 40 -214
83 -430 27 -135 47 -248 45 -252 -5 -9 -245 0 -253 9 -4 5 -24 121 -45 258
-44 295 -58 384 -80 525 -27 173 -36 233 -39 270 -13 121 -123 277 -249 350
l-52 31 120 -3 c113 -3 125 -5 187 -36z m4331 -163 c157 -80 378 -286 496
-463 40 -60 95 -155 121 -212 27 -56 55 -104 63 -107 8 -3 17 -18 21 -34 11
-46 94 -349 112 -405 4 -14 -1 -18 -23 -18 -82 0 -165 -54 -183 -118 -27 -99
-1 -327 66 -582 40 -152 288 -904 328 -993 14 -32 35 -71 46 -87 l21 -30 975
0 975 0 -3 -192 -3 -193 -100 -5 -100 -5 -3 -75 -3 -75 -182 -82 c-100 -46
-256 -117 -347 -158 -704 -324 -682 -315 -752 -315 -76 0 -96 -12 -108 -65
-11 -50 1 -71 48 -85 50 -13 851 -14 887 0 15 6 34 19 44 30 9 11 104 75 211
143 l195 123 3 -695 c2 -766 4 -742 -61 -864 -90 -171 -270 -250 -1026 -448
-200 -52 -228 -62 -258 -91 -18 -17 -38 -47 -44 -65 l-11 -33 -749 0 c-412 0
-749 2 -749 4 0 2 7 20 15 39 35 85 18 102 -190 191 -88 37 -210 92 -270 122
-157 77 -413 274 -452 347 -18 34 -20 139 -7 365 l6 112 279 0 c273 0 279 0
290 21 9 18 6 26 -23 58 -19 20 -75 86 -125 146 -344 417 -363 441 -363 465 0
84 68 562 99 695 95 405 117 513 311 1515 39 201 91 462 115 580 99 479 135
827 135 1313 l0 247 115 0 c98 0 122 -3 158 -21z m249 -16 c91 -53 164 -108
240 -181 56 -54 68 -72 78 -115 7 -29 28 -108 46 -177 19 -69 34 -132 34 -140
0 -8 -20 21 -43 66 -112 213 -288 402 -527 566 -25 17 -24 17 42 17 59 1 74
-3 130 -36z m4122 0 c89 -53 210 -150 294 -234 72 -73 195 -229 187 -237 -2
-3 -68 35 -147 83 -115 70 -161 106 -233 179 -78 78 -180 163 -275 228 -25 17
-24 17 44 17 61 1 75 -3 130 -36z m1471 -496 c132 -176 352 -588 536 -1002
129 -291 273 -643 454 -1110 97 -249 152 -372 196 -436 46 -68 144 -169 190
-196 21 -12 27 -22 22 -33 -4 -8 -8 -37 -9 -65 -1 -47 -3 -51 -41 -72 -33 -19
-235 -73 -272 -73 -5 0 -47 73 -93 163 -87 167 -162 290 -252 412 -79 106
-472 629 -678 902 -186 245 -301 417 -407 607 -78 141 -134 346 -149 546 -6
70 -10 85 -24 88 -15 3 -18 -4 -18 -51 0 -66 32 -248 66 -380 15 -54 25 -99
23 -101 -2 -1 -69 -12 -149 -24 -138 -21 -146 -22 -155 -5 -5 10 -27 35 -47
56 l-37 39 -81 -4 c-44 -2 -80 0 -80 3 0 3 15 39 34 80 41 90 97 260 141 434
l33 129 69 24 c188 64 482 137 578 144 79 6 97 -3 150 -75z m-8073 -392 c4 -5
8 -85 8 -178 l0 -167 -822 2 -823 3 -32 165 c-18 91 -31 170 -29 175 2 7 294
10 847 10 551 0 847 -3 851 -10z m18718 -2645 l0 -2650 -1570 0 -1570 0 0
2653 0 2652 1570 -3 1570 -2 0 -2650z m-8752 1518 l-3 -1133 -125 -27 c-69
-15 -135 -27 -148 -28 l-23 0 2 151 c1 83 -2 154 -7 159 -5 5 -108 11 -229 12
l-220 3 -67 165 c-36 91 -67 168 -67 173 -1 4 132 7 294 7 229 0 295 3 295 13
3 237 -1 1231 -5 1237 -3 6 -234 9 -558 9 l-552 0 -97 193 c-53 106 -97 194
-98 196 0 1 362 2 805 2 l805 0 -2 -1132z m-9693 712 c52 -25 78 -48 101 -91
18 -32 19 -60 16 -499 l-4 -465 -30 -55 c-37 -66 -63 -101 -71 -94 -3 3 -4 -1
-4 -8 1 -7 -28 -58 -65 -113 -74 -112 -153 -261 -169 -317 l-10 -38 -930 0
-931 0 5 23 c27 111 45 708 36 1192 -6 328 -12 373 -61 453 l-20 32 1049 0
c1013 0 1049 -1 1088 -20z m6962 5 c12 -8 31 -39 42 -69 19 -52 19 -66 11
-799 -8 -626 -11 -751 -24 -781 l-15 -36 -1086 0 -1087 0 6 28 c7 30 26 249
26 298 l0 31 68 -15 c160 -34 528 18 604 85 9 8 22 12 29 7 8 -5 10 -3 4 5 -4
8 3 23 18 39 13 15 43 63 66 107 28 52 63 100 103 138 60 58 109 85 488 264
122 58 293 144 320 162 14 9 33 21 42 26 9 6 41 27 72 48 31 21 61 35 66 32 5
-3 7 0 4 9 -3 8 2 17 13 20 10 4 36 31 58 60 22 30 44 51 49 48 5 -3 6 -1 3 5
-3 5 7 44 23 85 17 43 33 107 36 147 7 77 18 86 61 56z m2403 -605 l0 -590
-288 0 -288 0 -133 328 c-73 180 -135 343 -138 362 -3 19 -13 44 -23 55 -17
19 -190 407 -190 426 0 5 220 9 530 9 l530 0 0 -590z m-1920 428 c108 -188
230 -366 428 -625 l161 -212 -9 -343 c-22 -800 -3 -1590 41 -1706 5 -12 24
-31 43 -42 29 -18 35 -29 46 -82 12 -56 12 -62 -5 -74 -10 -8 -22 -14 -26 -14
-6 0 -375 442 -447 535 -29 38 -40 74 -97 316 -36 151 -74 312 -85 359 -10 47
-37 159 -59 250 -66 275 -105 517 -129 804 l-8 99 80 52 c45 28 120 76 168
106 84 51 108 79 71 79 -10 0 -92 -47 -183 -103 -150 -95 -360 -217 -371 -217
-2 0 -3 111 -1 247 1 137 4 342 5 458 l2 210 140 21 c77 12 143 22 146 23 4 0
44 -63 89 -141z m-11643 -686 c80 -262 257 -765 288 -816 l30 -51 218 -3 217
-2 0 -546 0 -545 -31 -11 c-36 -13 -58 -54 -51 -100 4 -25 12 -34 43 -46 l39
-15 0 -877 0 -876 -35 -34 c-20 -19 -39 -48 -43 -65 l-8 -30 -760 -3 c-417 -1
-764 0 -769 2 -7 2 7 284 42 822 29 451 52 829 53 842 l0 22 -176 0 c-137 0
-175 3 -171 13 76 193 79 199 101 192 11 -3 67 -9 122 -12 94 -5 105 -4 155
19 71 33 105 67 119 117 21 79 -27 141 -110 141 -82 0 -206 -79 -263 -165 -10
-16 -17 -23 -14 -15 2 8 21 65 40 127 20 61 44 154 54 208 14 76 21 95 33 91
173 -54 248 -58 334 -16 87 41 114 139 57 202 -27 31 -34 33 -93 33 -98 -1
-221 -69 -281 -154 -9 -14 -18 -23 -20 -20 -3 2 1 45 8 94 7 50 18 154 25 233
7 78 16 142 20 142 4 0 33 -9 66 -21 135 -47 267 -33 333 35 61 63 49 161 -24
192 -46 19 -75 18 -141 -6 -80 -28 -147 -74 -191 -131 -26 -34 -39 -45 -41
-35 -7 34 56 396 74 427 2 4 39 -4 81 -18 143 -47 268 -31 333 43 51 59 38
149 -27 183 -80 41 -251 -27 -334 -131 -21 -28 -39 -46 -39 -40 0 35 89 234
146 323 l23 38 48 -24 c149 -71 283 -72 358 -1 85 81 33 206 -87 206 -75 0
-196 -48 -252 -99 l-29 -26 19 33 c10 18 53 77 94 130 l76 97 107 12 c66 8
122 20 145 33 20 10 39 19 42 19 3 1 24 -61 47 -137z m11467 -144 c4 -40 9
-99 13 -130 l6 -58 -117 0 -117 0 6 78 c3 42 8 78 13 80 4 1 45 25 92 52 47
27 88 50 91 50 4 0 9 -33 13 -72z m12090 -175 c7 -100 28 -245 42 -289 4 -15
1 -14 -13 5 -47 61 -106 119 -138 137 l-35 19 0 117 0 118 69 0 68 0 7 -107z
m-12060 -115 c7 -65 33 -225 43 -265 l5 -23 -146 0 -146 0 0 175 0 175 119 0
118 0 7 -62z m1028 -103 c68 -91 125 -170 126 -175 2 -6 -71 -10 -199 -10
l-202 0 6 98 c4 53 7 132 7 175 l0 77 70 0 70 0 122 -165z m11107 -187 c13
-40 45 -124 71 -185 l48 -113 -43 38 c-86 76 -203 114 -272 89 -23 -8 -23 -8
-23 96 l0 105 63 11 c34 6 76 15 92 20 17 5 32 10 36 10 3 1 16 -32 28 -71z
m-12046 -196 c84 -347 198 -835 195 -838 -2 -2 -17 14 -33 34 -16 20 -104 127
-195 237 -449 542 -460 556 -460 585 0 28 2 29 53 32 l52 3 25 52 25 52 150 1
150 0 38 -158z m1170 66 c101 -147 159 -254 361 -670 66 -135 101 -173 150
-162 25 5 212 72 279 99 16 7 17 -5 17 -174 l0 -181 -647 2 c-612 3 -646 4
-649 21 -1 10 -4 126 -6 258 l-3 240 214 -1 c148 0 217 3 227 11 10 8 14 36
14 99 0 49 -3 95 -6 104 -5 14 -35 16 -230 16 l-224 0 0 215 0 215 220 0 219
0 64 -92z m807 -53 l0 -144 -37 -10 c-80 -22 -119 -6 -216 87 -46 45 -147 184
-147 203 0 5 86 9 200 9 l200 0 0 -145z m-12470 -458 l0 -494 -124 -57 c-82
-39 -133 -57 -152 -54 l-29 3 -2 539 c-1 297 0 543 3 548 3 4 72 8 155 8 l149
0 0 -493z m1175 333 l0 -155 -140 -5 -140 -5 -3 -108 -3 -107 31 -7 c29 -5 25
-8 -62 -48 -51 -23 -252 -115 -445 -204 -194 -88 -357 -161 -363 -161 -7 0
-10 159 -10 480 l0 480 568 -2 567 -3 0 -155z m1330 -375 l0 -530 -412 -3
-413 -2 0 333 c0 253 -3 336 -12 346 -13 12 -15 16 -17 51 -1 18 -8 20 -91 20
l-90 0 0 160 0 160 518 -2 517 -3 0 -530z m213 430 c39 -57 72 -112 72 -122 0
-11 -16 -90 -35 -176 -70 -319 -195 -1032 -195 -1114 0 -18 -4 -35 -10 -38 -6
-4 -10 13 -10 44 l0 51 -430 0 -430 0 0 175 0 175 428 2 427 3 3 553 2 552 53
0 52 -1 73 -104z m6865 49 l37 -55 0 -1415 c0 -1076 -3 -1414 -12 -1414 -23 0
-473 132 -577 169 -216 77 -326 152 -390 264 -64 113 -61 67 -64 1138 l-2 974
-100 5 -100 5 -3 193 -2 192 587 0 588 -1 38 -55z m321 -8 l56 -63 0 -168 0
-167 -83 118 c-188 270 -217 313 -217 328 0 13 15 16 94 16 l94 0 56 -64z
m3196 -75 c0 -5 -27 -49 -59 -98 -117 -173 -209 -249 -440 -364 -126 -62 -364
-156 -422 -165 -65 -11 -53 13 18 37 109 35 263 98 312 127 25 15 111 90 191
167 151 146 286 255 355 286 47 22 45 21 45 10z m-3267 -278 l127 -182 0 -249
c0 -219 2 -251 16 -256 9 -3 89 -6 178 -6 l162 0 44 -62 c131 -190 190 -277
190 -282 0 -3 -132 -7 -292 -8 l-293 -3 0 -620 0 -620 1268 -3 1267 -2 0 22
c0 80 0 1205 0 1216 0 9 -61 12 -270 12 l-270 0 6 25 c8 30 -10 55 -36 50 -10
-2 -51 -15 -90 -29 -88 -32 -160 -33 -307 -6 -105 20 -285 71 -311 88 -16 11
-28 60 -37 155 l-7 67 655 0 c463 0 658 3 663 11 3 6 7 99 8 207 l1 197 85 43
c47 24 109 56 139 73 30 16 58 29 63 29 4 0 7 -584 6 -1297 l-3 -1298 -1401
-3 -1402 -2 -7 27 c-9 38 -42 81 -73 97 -15 8 -78 27 -139 42 l-113 29 0 1394
0 1394 23 -34 c13 -19 81 -116 150 -216z m249 139 c64 -79 260 -316 558 -677
l91 -110 -173 -3 -173 -2 -20 27 c-19 26 -55 77 -267 383 l-98 140 0 166 c0
104 4 163 10 159 5 -3 37 -40 72 -83z m12292 22 c64 -36 144 -42 252 -19 47
10 86 16 88 14 7 -7 137 -270 161 -326 l25 -55 -40 36 c-49 44 -141 91 -196
100 -79 14 -144 -37 -144 -111 0 -48 33 -94 88 -126 67 -38 142 -45 246 -23
43 9 82 16 86 16 17 0 121 -351 120 -402 -1 -7 -14 12 -30 43 -51 100 -174
189 -259 189 -36 0 -49 -6 -78 -35 -33 -33 -35 -39 -31 -84 6 -64 37 -103 115
-142 59 -30 64 -31 177 -27 l115 3 6 -25 c4 -14 15 -71 24 -127 l18 -103 -201
0 -201 0 46 -747 c26 -412 50 -792 53 -845 l6 -98 -250 0 -250 0 0 1460 c0
803 2 1460 4 1460 2 0 24 -12 50 -26z m-20734 -1131 c0 -798 3 -967 15 -1012
39 -149 135 -261 286 -335 50 -24 172 -71 270 -103 l179 -58 -7 -96 c-3 -60
-2 -108 5 -128 l11 -31 -1394 0 c-1324 0 -1394 1 -1388 18 13 35 43 70 70 80
16 6 111 32 213 57 391 97 720 203 854 276 76 41 153 119 193 195 64 120 63
106 63 884 0 388 4 710 8 715 8 11 88 65 97 65 3 0 4 -330 2 -732 -3 -776 -1
-747 -48 -853 -42 -96 -134 -208 -226 -277 -51 -37 -68 -68 -39 -68 27 0 166
120 212 183 56 76 84 130 115 222 l24 70 5 744 5 745 182 116 c101 63 188 121
194 127 7 7 9 23 5 37 -9 34 -36 34 -89 -2 -59 -41 -286 -182 -292 -182 -2 0
-6 44 -7 98 -2 78 -6 97 -18 97 -12 0 -16 -20 -18 -112 l-3 -112 -44 -31 c-24
-16 -48 -30 -54 -30 -8 0 -11 63 -11 195 l0 195 315 0 315 0 0 -957z m6900 0
c0 -766 3 -968 14 -1008 38 -145 133 -261 271 -332 139 -71 414 -160 800 -258
261 -66 268 -69 300 -107 53 -63 188 -58 -1695 -58 l-1720 0 13 32 c7 17 24
40 38 50 13 10 121 43 239 73 457 115 767 219 888 297 67 44 129 114 168 190
54 106 54 106 54 873 l0 710 50 33 c27 17 52 32 55 32 3 0 4 -330 3 -732 -3
-727 -3 -733 -25 -791 -54 -143 -146 -266 -252 -338 -45 -30 -68 -69 -41 -69
21 0 97 55 151 111 95 96 148 186 186 314 16 54 18 131 23 799 l5 739 190 122
c160 102 190 125 193 148 3 21 -2 28 -21 32 -20 5 -58 -15 -190 -99 -90 -58
-167 -106 -170 -106 -4 0 -8 44 -9 98 -2 78 -6 97 -18 97 -12 0 -16 -20 -18
-111 -3 -122 -2 -120 -74 -163 l-38 -23 0 201 0 201 315 0 315 0 0 -957z
m-7570 643 l0 -114 -167 -106 -167 -106 -298 0 c-164 0 -298 4 -298 8 0 5 75
43 168 85 368 168 561 256 652 300 52 25 98 46 103 46 4 1 7 -50 7 -113z
m6900 0 l0 -113 -197 -126 c-215 -137 -228 -144 -238 -128 -4 7 -98 11 -286
11 -153 0 -279 3 -279 8 0 4 143 72 318 151 174 80 398 182 497 228 99 46 181
83 183 83 1 0 2 -51 2 -114z m2289 -140 c67 -96 121 -177 121 -180 0 -3 -63
-6 -140 -6 l-140 0 0 203 c1 238 -19 240 159 -17z m-9189 -401 l0 -175 -482
-2 -483 -3 0 -620 0 -620 328 -3 c293 -2 365 -8 310 -25 -10 -3 -63 -21 -118
-41 -179 -63 -763 -226 -812 -226 l-23 0 3 870 2 871 396 -1 c251 0 407 3 424
10 15 6 34 19 44 30 9 11 48 40 86 64 l70 45 128 0 127 1 0 -175z m9818 7 c23
-92 42 -170 42 -174 0 -5 -40 -8 -89 -8 l-89 0 -66 98 c-37 53 -91 132 -122
175 l-55 77 168 0 168 0 43 -168z m-13121 122 c25 -19 68 -46 95 -60 56 -28
56 -19 -1 -151 l-38 -88 -92 -3 c-50 -1 -91 -1 -91 0 -1 2 -13 65 -28 141
l-28 137 61 29 c33 16 63 30 67 30 4 1 29 -15 55 -35z m25632 7 c20 -15 62
-43 94 -61 31 -17 57 -35 57 -39 0 -5 -19 -52 -43 -107 l-43 -99 -92 -3 c-88
-3 -92 -2 -96 20 -18 85 -46 234 -46 247 0 14 93 66 124 70 4 1 25 -12 45 -28z
m-12322 -213 c92 -112 168 -207 168 -212 0 -14 -82 -35 -162 -42 l-71 -7 -12
59 c-6 33 -20 88 -30 124 -17 58 -47 180 -64 253 -4 15 -4 27 -2 27 3 0 80
-91 173 -202z m-6843 -72 c6 -7 93 -113 194 -234 100 -121 182 -223 182 -226
0 -3 -97 -6 -215 -6 l-215 0 0 48 c0 26 7 124 15 217 8 94 15 180 15 193 0 25
8 28 24 8z m-2000 -65 l378 -1 -5 -267 c-4 -263 -9 -320 -70 -813 l-12 -95
-245 -3 c-135 -1 -255 0 -267 3 -34 8 -139 111 -172 168 -59 105 -61 120 -61
582 0 232 2 424 4 426 2 2 19 3 38 2 18 -1 203 -2 412 -2z m8448 -1 c3 0 70
-93 148 -206 127 -184 141 -208 131 -228 -7 -13 -11 -58 -9 -116 l3 -95 377
-3 378 -2 5 22 c3 13 5 61 3 108 l-3 85 -32 3 c-22 2 -44 17 -77 52 -25 27
-46 53 -46 58 0 5 39 25 88 45 48 20 123 58 166 83 74 44 182 137 203 177 8
16 30 18 279 18 l269 1 0 -589 0 -588 -1232 -3 -1233 -2 0 589 0 590 23 3 c16
2 454 1 559 -2z m255 1 c6 -1 16 -24 22 -52 12 -56 27 -237 19 -229 -15 15
-188 270 -188 277 0 6 81 9 147 4z m-9867 -216 l0 -215 -40 0 -40 0 0 -110 0
-110 40 0 40 0 0 -97 c0 -54 -5 -118 -11 -142 -23 -100 -106 -223 -183 -271
-33 -20 -45 -20 -382 -18 l-349 3 -3 588 -2 587 465 0 465 0 0 -215z m1820
-200 c102 -14 190 -27 197 -30 9 -3 9 -15 -2 -52 -25 -88 -64 -277 -75 -366
-10 -81 -9 -91 10 -135 12 -26 32 -58 45 -72 l24 -25 -21 -58 c-19 -53 -23
-57 -52 -57 -63 0 -439 29 -444 34 -3 3 1 52 7 108 22 191 59 522 66 598 9 89
10 91 38 85 12 -2 105 -16 207 -30z m1236 -157 c-11 -168 -9 -351 2 -380 6
-16 30 -48 53 -73 l41 -44 -32 -97 -33 -97 -66 6 c-36 3 -146 11 -243 18
l-176 13 -6 55 c-3 31 -15 182 -26 336 -11 154 -22 299 -25 323 l-5 42 261 0
261 0 -6 -102z m204 -581 c147 -119 230 -165 528 -292 113 -48 187 -85 193
-97 8 -14 6 -28 -9 -56 l-19 -37 -319 -8 c-175 -4 -466 -6 -646 -5 -294 3
-329 5 -345 20 -13 14 -18 45 -25 150 -4 73 -10 150 -14 171 l-6 37 55 0 c48
0 115 -4 383 -25 51 -4 74 -2 81 7 6 7 23 52 37 101 15 48 30 87 34 87 4 0 36
-24 72 -53z m-1084 -80 c66 -56 153 -130 193 -165 40 -34 104 -84 142 -109 38
-25 69 -51 69 -58 0 -7 3 -27 6 -44 l7 -31 -556 0 -556 0 -15 22 c-9 12 -16
39 -16 59 0 41 38 330 44 337 3 2 80 -2 173 -8 92 -6 206 -12 253 -13 l85 -2
20 58 c11 31 22 57 25 57 3 0 59 -46 126 -103z m-730 -4 c-2 -16 -7 -49 -11
-74 l-6 -47 -107 34 c-147 46 -282 97 -282 106 0 4 93 8 206 8 l206 0 -6 -27z"/>
<path d="M12217 13152 c-279 -279 -507 -513 -507 -520 0 -6 8 -12 17 -12 22 0
1023 1000 1023 1023 0 9 -6 17 -13 17 -6 0 -240 -228 -520 -508z"/>
<path d="M11257 12822 c-97 -98 -177 -184 -177 -190 0 -36 54 6 218 171 100
101 182 186 182 190 0 4 -10 7 -23 7 -15 0 -74 -52 -200 -178z"/>
<path d="M12875 9430 c-14 -23 190 -592 332 -925 52 -123 165 -356 194 -403
15 -24 35 -29 41 -11 2 6 -30 79 -72 163 -126 249 -246 549 -403 1000 -58 169
-76 202 -92 176z"/>
<path d="M12114 9277 c-2 -7 2 -78 10 -158 8 -79 23 -229 32 -333 14 -139 22
-190 32 -194 8 -3 17 0 21 6 7 11 -53 652 -63 678 -7 18 -25 18 -32 1z"/>
<path d="M12780 9206 c0 -51 177 -901 340 -1631 28 -126 62 -279 75 -340 32
-146 118 -535 194 -872 33 -150 61 -275 61 -278 0 -9 28 -6 34 4 4 5 -9 78
-28 163 -19 84 -95 428 -169 763 -246 1105 -410 1869 -452 2100 -21 117 -24
125 -41 125 -9 0 -14 -11 -14 -34z"/>
<path d="M13787 8308 c-11 -31 386 -761 556 -1025 78 -120 123 -173 148 -173
28 0 24 12 -25 71 -91 112 -306 478 -526 899 -115 221 -127 240 -140 240 -5 0
-10 -6 -13 -12z"/>
<path d="M23451 7027 c-11 -15 -16 -1202 -5 -1232 6 -13 142 -15 1269 -15
1139 0 1263 2 1269 16 3 8 6 285 6 614 -1 523 -3 601 -16 615 -14 13 -160 15
-1263 15 -1026 0 -1251 -3 -1260 -13z m2497 -619 l2 -588 -1235 0 -1235 0 0
583 c0 321 3 587 7 590 3 4 558 6 1232 5 l1226 -3 3 -587z"/>
<path d="M24346 6562 c-15 -3 -16 -16 -14 -110 l3 -107 380 0 380 0 3 103 c2
79 0 104 -11 108 -15 5 -713 11 -741 6z"/>
<path d="M23446 5414 c-8 -21 -7 -1209 0 -1229 5 -13 154 -15 1265 -15 1226 0
1259 0 1268 19 11 20 15 1198 5 1226 -5 13 -161 15 -1269 15 -1155 0 -1263 -1
-1269 -16z m2504 -614 l0 -590 -1235 0 -1235 0 0 590 0 590 1235 0 1235 0 0
-590z"/>
<path d="M24337 4953 c-14 -13 -8 -200 6 -212 19 -15 725 -15 744 0 14 12 19
171 7 203 -5 14 -48 16 -378 16 -205 0 -376 -3 -379 -7z"/>
<path d="M23447 3814 c-8 -9 -9 -1192 -1 -1221 l6 -23 1263 0 1263 0 5 33 c7
43 8 1183 1 1202 -5 13 -156 15 -1268 15 -695 0 -1266 -3 -1269 -6z m2498
-621 l0 -588 -1230 0 -1230 0 -3 584 c-1 345 2 587 7 590 5 3 560 5 1233 4
l1223 -3 0 -587z"/>
<path d="M24332 3243 l3 -108 380 0 380 0 0 105 0 105 -383 3 -383 2 3 -107z"/>
<path d="M15897 18223 c-4 -3 -7 -609 -7 -1344 l0 -1339 -252 -2 -253 -3 -5
-1215 c-3 -668 -3 -1221 -1 -1227 2 -10 119 -13 537 -13 l534 0 -2 1228 -3
1227 -257 3 -258 2 0 1345 c0 1373 0 1372 -33 1338z m513 -3913 l0 -1190 -500
0 -500 0 0 1183 c0 651 3 1187 7 1190 3 4 228 7 500 7 l493 0 0 -1190z"/>
<path d="M24910 16886 l0 -1346 -257 -2 -258 -3 -3 -1227 -2 -1228 535 0 535
0 0 1224 c0 1107 -2 1224 -16 1230 -9 3 -124 6 -257 6 l-242 0 0 1342 c0 1271
-1 1343 -17 1346 -17 3 -18 -66 -18 -1342z m518 -2578 l2 -1188 -495 -2 c-272
-2 -500 -1 -505 0 -11 4 -15 2364 -3 2375 3 4 230 6 502 5 l496 -3 3 -1187z"/>
<path d="M19745 14574 c-22 -2 -89 -9 -150 -14 -315 -30 -712 -151 -992 -302
-681 -365 -1174 -979 -1373 -1708 -74 -274 -95 -434 -94 -740 0 -341 33 -555
134 -860 197 -601 580 -1097 1120 -1453 342 -225 703 -357 1155 -423 150 -22
616 -25 770 -5 184 23 496 96 588 136 16 7 17 -9 17 -249 l0 -256 -2022 0
c-1403 0 -2035 -3 -2061 -11 -84 -23 -139 -115 -123 -204 10 -50 67 -109 121
-124 27 -7 200 -11 519 -11 l479 0 71 -44 c246 -154 433 -361 561 -620 l67
-136 124 0 124 0 0 400 0 400 1580 0 1581 0 47 -24 c91 -47 198 -131 313 -245
131 -131 210 -244 295 -418 l54 -113 120 0 c65 0 121 4 125 9 7 13 8 1119 0
1131 -4 6 -172 10 -451 10 l-444 0 0 606 0 606 62 67 c130 139 305 397 407
599 130 258 222 558 268 867 27 185 24 582 -6 774 -122 796 -563 1477 -1239
1918 -333 218 -731 363 -1147 418 -113 15 -512 28 -600 19z m530 -64 c603 -89
1111 -344 1540 -774 443 -444 694 -956 780 -1591 23 -164 23 -488 0 -660 -62
-484 -246 -939 -526 -1306 l-64 -84 -5 45 -5 45 -225 0 -225 0 -3 -264 c-2
-235 -4 -267 -20 -285 -9 -10 -71 -55 -137 -98 l-120 -79 -3 137 c-1 81 -7
143 -14 151 -8 10 -47 13 -153 13 -79 0 -150 -3 -159 -6 -14 -5 -16 -35 -16
-234 l0 -228 -77 -30 c-748 -285 -1633 -208 -2328 203 -624 369 -1082 977
-1260 1671 -57 220 -77 378 -80 639 -7 469 72 825 275 1240 132 270 299 503
515 720 380 381 863 643 1371 744 130 26 197 36 389 55 95 10 416 -4 550 -24z
m1685 -4550 l0 -190 -192 2 -193 3 -3 175 c-1 96 0 180 2 187 4 10 50 13 196
13 l190 0 0 -190z m-12 -230 c10 0 12 -105 10 -507 l-3 -508 -170 -3 c-93 -1
-180 0 -192 3 l-23 5 0 504 c0 276 2 505 4 507 2 2 85 3 183 2 98 -2 184 -3
191 -3z m-730 -142 l3 -128 -131 0 -130 0 0 130 0 131 128 -3 127 -3 3 -127z
m322 -483 l0 -405 -140 0 -140 0 0 328 0 327 63 35 c34 18 93 53 132 77 38 24
73 43 77 43 5 0 8 -182 8 -405z m-322 -37 l-3 -353 -127 -3 -128 -3 0 355 0
356 130 0 130 0 -2 -352z m-78 -413 c0 -2 -11 -21 -25 -41 -34 -51 -34 -121 0
-181 l26 -43 -2137 0 c-2133 0 -2138 0 -2180 20 -52 26 -79 75 -71 132 6 43
26 71 72 99 29 18 104 19 2173 19 1178 0 2142 -2 2142 -5z m-3011 -350 c235
-145 436 -365 558 -610 56 -110 58 -105 -44 -105 l-89 0 -39 86 c-110 246
-344 512 -581 661 -16 10 -7 12 51 12 67 1 75 -2 144 -44z m4089 18 c160 -91
329 -244 453 -410 48 -64 179 -296 179 -317 0 -3 -39 -6 -87 -6 l-88 0 -58
118 c-123 251 -296 445 -557 624 -25 17 -24 17 43 17 56 1 77 -4 115 -26z"/>
<path d="M20592 13027 c-149 -149 -272 -278 -272 -285 0 -8 7 -12 15 -10 18 3
565 546 565 559 0 34 -68 -24 -308 -264z"/>
<path d="M20317 11902 c-675 -675 -1227 -1233 -1227 -1240 0 -6 8 -12 18 -12
19 0 2472 2448 2472 2468 0 6 -8 12 -18 12 -9 0 -549 -532 -1245 -1228z"/>
<path d="M1628 6744 c-40 -21 -76 -99 -86 -185 -9 -71 -6 -94 18 -196 l13 -51
61 48 c137 108 174 175 167 304 0 19 -13 40 -37 62 -40 38 -88 45 -136 18z"/>
<path d="M27258 6737 c-72 -60 -101 -225 -62 -352 10 -33 19 -62 20 -64 4 -6
117 85 157 126 38 40 77 130 77 178 0 39 -24 89 -55 113 -38 30 -101 29 -137
-1z"/>
</g>
</svg>
