<?xml version="1.0" encoding="UTF-8" standalone="no"?>
<svg
   xmlns:dc="http://purl.org/dc/elements/1.1/"
   xmlns:cc="http://creativecommons.org/ns#"
   xmlns:rdf="http://www.w3.org/1999/02/22-rdf-syntax-ns#"
   xmlns:svg="http://www.w3.org/2000/svg"
   xmlns="http://www.w3.org/2000/svg"
   viewBox="0 0 1000 666.66669"
   height="666.66669"
   width="1000"
   xml:space="preserve"
   id="svg2"
   version="1.1"><metadata
     id="metadata8"><rdf:RDF><cc:Work
         rdf:about=""><dc:format>image/svg+xml</dc:format><dc:type
           rdf:resource="http://purl.org/dc/dcmitype/StillImage" /></cc:Work></rdf:RDF></metadata><defs
     id="defs6"><clipPath
       id="clipPath18"
       clipPathUnits="userSpaceOnUse"><path
         id="path16"
         d="M 0,500 H 750 V 0 H 0 Z" /></clipPath><clipPath
       id="clipPath30"
       clipPathUnits="userSpaceOnUse"><path
         id="path28"
         d="M 23.1298,422.752 H 689.465 V 52.674 H 23.1298 Z" /></clipPath><clipPath
       id="clipPath94"
       clipPathUnits="userSpaceOnUse"><path
         id="path92"
         d="M 0,500 H 750 V 0 H 0 Z" /></clipPath><clipPath
       id="clipPath182"
       clipPathUnits="userSpaceOnUse"><path
         id="path180"
         d="M 0,500 H 750 V 0 H 0 Z" /></clipPath><clipPath
       id="clipPath306"
       clipPathUnits="userSpaceOnUse"><path
         id="path304"
         d="M 0,500 H 750 V 0 H 0 Z" /></clipPath><clipPath
       id="clipPath370"
       clipPathUnits="userSpaceOnUse"><path
         id="path368"
         d="M 0,500 H 750 V 0 H 0 Z" /></clipPath><clipPath
       id="clipPath552"
       clipPathUnits="userSpaceOnUse"><path
         id="path550"
         d="M 0,500 H 750 V 0 H 0 Z" /></clipPath><clipPath
       id="clipPath740"
       clipPathUnits="userSpaceOnUse"><path
         id="path738"
         d="M 0,500 H 750 V 0 H 0 Z" /></clipPath><clipPath
       id="clipPath764"
       clipPathUnits="userSpaceOnUse"><path
         id="path762"
         d="M 0,500 H 750 V 0 H 0 Z" /></clipPath></defs><g
     transform="matrix(1.3333333,0,0,-1.3333333,0,666.66667)"
     id="g10"><g
       id="g12"><g
         clip-path="url(#clipPath18)"
         id="g14"><g
           transform="translate(688.96,210.9639)"
           id="g20"><path
             id="path22"
             style="fill:#5ae4a7;fill-opacity:1;fill-rule:nonzero;stroke:none"
             d="m 0,0 c 0,0 6.92,110.717 -108.122,185.104 -115.041,74.388 -201.538,-28.543 -246.517,-45.843 -44.979,-17.3 -110.716,39.789 -169.535,12.11 -58.818,-27.68 -54.493,-100.337 -59.683,-126.287 -5.19,-25.949 -76.982,-81.307 -81.308,-115.041 -4.324,-33.734 13.84,-68.333 13.84,-68.333 h 619.993 c 0,0 36.521,44.978 31.332,158.29" /></g><g
           id="g24"><g
             id="g26" /><g
             id="g38"><g
               style="opacity:0.69999701"
               id="g36"
               clip-path="url(#clipPath30)"><g
                 id="g34"
                 transform="translate(688.96,210.9639)"><path
                   id="path32"
                   style="fill:#ffffff;fill-opacity:1;fill-rule:nonzero;stroke:none"
                   d="m 0,0 c 0,0 6.92,110.717 -108.122,185.104 -115.041,74.388 -201.538,-28.543 -246.517,-45.843 -44.979,-17.3 -110.716,39.789 -169.535,12.11 -58.818,-27.68 -54.493,-100.337 -59.683,-126.287 -5.19,-25.949 -76.982,-81.307 -81.308,-115.041 -4.324,-33.734 13.84,-68.333 13.84,-68.333 h 619.993 c 0,0 36.521,44.978 31.332,158.29" /></g></g></g></g></g></g><path
       id="path40"
       style="fill:#1a2e35;fill-opacity:1;fill-rule:nonzero;stroke:#1a2e35;stroke-width:1;stroke-linecap:round;stroke-linejoin:round;stroke-miterlimit:10;stroke-dasharray:none;stroke-opacity:1"
       d="m 675.914,186.209 h -97.8 V 52.674 h 97.8 z" /><path
       id="path42"
       style="fill:#ffffff;fill-opacity:1;fill-rule:nonzero;stroke:#1a2e35;stroke-width:1;stroke-linecap:round;stroke-linejoin:round;stroke-miterlimit:10;stroke-dasharray:none;stroke-opacity:1"
       d="M 657.628,186.209 H 578.114 V 52.674 h 79.514 z" /><path
       id="path44"
       style="fill:#ffffff;fill-opacity:1;fill-rule:nonzero;stroke:#1a2e35;stroke-width:1;stroke-linecap:round;stroke-linejoin:round;stroke-miterlimit:10;stroke-dasharray:none;stroke-opacity:1"
       d="m 649.299,144.81 h -62.587 v 30.509 h 62.587 z" /><path
       id="path46"
       style="fill:#1a2e35;fill-opacity:1;fill-rule:nonzero;stroke:#1a2e35;stroke-width:1;stroke-linecap:round;stroke-linejoin:round;stroke-miterlimit:10;stroke-dasharray:none;stroke-opacity:1"
       d="m 627.105,158.888 h -18.2 v 4.639 h 18.2 z" /><path
       id="path48"
       style="fill:#ffffff;fill-opacity:1;fill-rule:nonzero;stroke:#1a2e35;stroke-width:1;stroke-linecap:round;stroke-linejoin:round;stroke-miterlimit:10;stroke-dasharray:none;stroke-opacity:1"
       d="m 649.299,104.65 h -62.587 v 30.509 h 62.587 z" /><path
       id="path50"
       style="fill:#1a2e35;fill-opacity:1;fill-rule:nonzero;stroke:#1a2e35;stroke-width:1;stroke-linecap:round;stroke-linejoin:round;stroke-miterlimit:10;stroke-dasharray:none;stroke-opacity:1"
       d="m 627.105,118.728 h -18.2 v 4.64 h 18.2 z" /><path
       id="path52"
       style="fill:#ffffff;fill-opacity:1;fill-rule:nonzero;stroke:#1a2e35;stroke-width:1;stroke-linecap:round;stroke-linejoin:round;stroke-miterlimit:10;stroke-dasharray:none;stroke-opacity:1"
       d="m 649.299,64.49 h -62.587 v 30.509 h 62.587 z" /><path
       id="path54"
       style="fill:#1a2e35;fill-opacity:1;fill-rule:nonzero;stroke:#1a2e35;stroke-width:1;stroke-linecap:round;stroke-linejoin:round;stroke-miterlimit:10;stroke-dasharray:none;stroke-opacity:1"
       d="m 627.105,78.567 h -18.2 v 4.64 h 18.2 z" /><path
       id="path56"
       style="fill:#1a2e35;fill-opacity:1;fill-rule:nonzero;stroke:#1a2e35;stroke-width:1;stroke-linecap:round;stroke-linejoin:round;stroke-miterlimit:10;stroke-dasharray:none;stroke-opacity:1"
       d="m 457.076,186.209 h -97.8 V 52.674 h 97.8 z" /><path
       id="path58"
       style="fill:#ffffff;fill-opacity:1;fill-rule:nonzero;stroke:#1a2e35;stroke-width:1;stroke-linecap:round;stroke-linejoin:round;stroke-miterlimit:10;stroke-dasharray:none;stroke-opacity:1"
       d="M 438.79,186.209 H 359.276 V 52.674 h 79.514 z" /><path
       id="path60"
       style="fill:#ffffff;fill-opacity:1;fill-rule:nonzero;stroke:#1a2e35;stroke-width:1;stroke-linecap:round;stroke-linejoin:round;stroke-miterlimit:10;stroke-dasharray:none;stroke-opacity:1"
       d="m 430.461,144.81 h -62.587 v 30.509 h 62.587 z" /><path
       id="path62"
       style="fill:#1a2e35;fill-opacity:1;fill-rule:nonzero;stroke:#1a2e35;stroke-width:1;stroke-linecap:round;stroke-linejoin:round;stroke-miterlimit:10;stroke-dasharray:none;stroke-opacity:1"
       d="m 408.267,158.888 h -18.199 v 4.639 h 18.199 z" /><path
       id="path64"
       style="fill:#ffffff;fill-opacity:1;fill-rule:nonzero;stroke:#1a2e35;stroke-width:1;stroke-linecap:round;stroke-linejoin:round;stroke-miterlimit:10;stroke-dasharray:none;stroke-opacity:1"
       d="m 430.461,104.65 h -62.587 v 30.509 h 62.587 z" /><path
       id="path66"
       style="fill:#1a2e35;fill-opacity:1;fill-rule:nonzero;stroke:#1a2e35;stroke-width:1;stroke-linecap:round;stroke-linejoin:round;stroke-miterlimit:10;stroke-dasharray:none;stroke-opacity:1"
       d="m 408.267,118.728 h -18.199 v 4.64 h 18.199 z" /><path
       id="path68"
       style="fill:#ffffff;fill-opacity:1;fill-rule:nonzero;stroke:#1a2e35;stroke-width:1;stroke-linecap:round;stroke-linejoin:round;stroke-miterlimit:10;stroke-dasharray:none;stroke-opacity:1"
       d="m 430.461,64.49 h -62.587 v 30.509 h 62.587 z" /><path
       id="path70"
       style="fill:#1a2e35;fill-opacity:1;fill-rule:nonzero;stroke:#1a2e35;stroke-width:1;stroke-linecap:round;stroke-linejoin:round;stroke-miterlimit:10;stroke-dasharray:none;stroke-opacity:1"
       d="m 408.267,78.567 h -18.199 v 4.64 h 18.199 z" /><path
       id="path72"
       style="fill:#1a2e35;fill-opacity:1;fill-rule:nonzero;stroke:#1a2e35;stroke-width:1;stroke-linecap:round;stroke-linejoin:round;stroke-miterlimit:10;stroke-dasharray:none;stroke-opacity:1"
       d="m 207.964,186.209 h -97.8 V 52.674 h 97.8 z" /><path
       id="path74"
       style="fill:#ffffff;fill-opacity:1;fill-rule:nonzero;stroke:#1a2e35;stroke-width:1;stroke-linecap:round;stroke-linejoin:round;stroke-miterlimit:10;stroke-dasharray:none;stroke-opacity:1"
       d="M 189.678,186.209 H 110.164 V 52.674 h 79.514 z" /><path
       id="path76"
       style="fill:#ffffff;fill-opacity:1;fill-rule:nonzero;stroke:#1a2e35;stroke-width:1;stroke-linecap:round;stroke-linejoin:round;stroke-miterlimit:10;stroke-dasharray:none;stroke-opacity:1"
       d="m 181.349,144.81 h -62.587 v 30.509 h 62.587 z" /><path
       id="path78"
       style="fill:#1a2e35;fill-opacity:1;fill-rule:nonzero;stroke:#1a2e35;stroke-width:1;stroke-linecap:round;stroke-linejoin:round;stroke-miterlimit:10;stroke-dasharray:none;stroke-opacity:1"
       d="m 159.154,158.888 h -18.199 v 4.639 h 18.199 z" /><path
       id="path80"
       style="fill:#ffffff;fill-opacity:1;fill-rule:nonzero;stroke:#1a2e35;stroke-width:1;stroke-linecap:round;stroke-linejoin:round;stroke-miterlimit:10;stroke-dasharray:none;stroke-opacity:1"
       d="m 181.349,104.65 h -62.587 v 30.509 h 62.587 z" /><path
       id="path82"
       style="fill:#1a2e35;fill-opacity:1;fill-rule:nonzero;stroke:#1a2e35;stroke-width:1;stroke-linecap:round;stroke-linejoin:round;stroke-miterlimit:10;stroke-dasharray:none;stroke-opacity:1"
       d="m 159.154,118.728 h -18.199 v 4.64 h 18.199 z" /><path
       id="path84"
       style="fill:#ffffff;fill-opacity:1;fill-rule:nonzero;stroke:#1a2e35;stroke-width:1;stroke-linecap:round;stroke-linejoin:round;stroke-miterlimit:10;stroke-dasharray:none;stroke-opacity:1"
       d="m 181.349,64.49 h -62.587 v 30.509 h 62.587 z" /><path
       id="path86"
       style="fill:#1a2e35;fill-opacity:1;fill-rule:nonzero;stroke:#1a2e35;stroke-width:1;stroke-linecap:round;stroke-linejoin:round;stroke-miterlimit:10;stroke-dasharray:none;stroke-opacity:1"
       d="m 159.154,78.567 h -18.199 v 4.64 h 18.199 z" /><g
       id="g88"><g
         clip-path="url(#clipPath94)"
         id="g90"><g
           transform="translate(566.6377,205.6748)"
           id="g96"><path
             id="path98"
             style="fill:#ffffff;fill-opacity:1;fill-rule:nonzero;stroke:none"
             d="m 0,0 v 3.541 2.801 4.816 h -40.614 c -2.103,0 -3.809,-1.705 -3.809,-3.808 0,-2.104 1.706,-3.809 3.809,-3.809 h 22.82 C -9.879,-0.665 -3.685,-7.516 -0.308,-15.828 L 0,-16.586 H 5.571 V 0 Z" /></g><g
           transform="translate(566.6377,205.6748)"
           id="g100"><path
             id="path102"
             style="fill:none;stroke:#1a2e35;stroke-width:1;stroke-linecap:round;stroke-linejoin:round;stroke-miterlimit:10;stroke-dasharray:none;stroke-opacity:1"
             d="m 0,0 v 3.541 2.801 4.816 h -40.614 c -2.103,0 -3.809,-1.705 -3.809,-3.808 0,-2.104 1.706,-3.809 3.809,-3.809 h 22.82 C -9.879,-0.665 -3.685,-7.516 -0.308,-15.828 L 0,-16.586 H 5.571 V 0 Z" /></g><g
           transform="translate(463.6465,205.6748)"
           id="g104"><path
             id="path106"
             style="fill:#ffffff;fill-opacity:1;fill-rule:nonzero;stroke:none"
             d="m 0,0 v 3.541 2.801 4.816 h -40.614 c -2.104,0 -3.809,-1.705 -3.809,-3.808 0,-2.104 1.705,-3.809 3.809,-3.809 h 22.819 C -9.879,-0.665 -3.686,-7.516 -0.308,-15.828 L 0,-16.586 H 5.571 V 0 Z" /></g><g
           transform="translate(463.6465,205.6748)"
           id="g108"><path
             id="path110"
             style="fill:none;stroke:#1a2e35;stroke-width:1;stroke-linecap:round;stroke-linejoin:round;stroke-miterlimit:10;stroke-dasharray:none;stroke-opacity:1"
             d="m 0,0 v 3.541 2.801 4.816 h -40.614 c -2.104,0 -3.809,-1.705 -3.809,-3.808 0,-2.104 1.705,-3.809 3.809,-3.809 h 22.819 C -9.879,-0.665 -3.686,-7.516 -0.308,-15.828 L 0,-16.586 H 5.571 V 0 Z" /></g><g
           transform="translate(428.6035,216.833)"
           id="g112"><path
             id="path114"
             style="fill:#1a2e35;fill-opacity:1;fill-rule:nonzero;stroke:none"
             d="m 0,0 c -2.104,0 -3.809,-1.705 -3.809,-3.809 0,-2.103 1.705,-3.808 3.809,-3.808 h 22.82 c 7.915,-4.206 14.109,-11.057 17.487,-19.369 l 0.307,-0.758 V -7.617 -4.816 0 Z" /></g><g
           transform="translate(428.6035,216.833)"
           id="g116"><path
             id="path118"
             style="fill:none;stroke:#1a2e35;stroke-width:1;stroke-linecap:round;stroke-linejoin:round;stroke-miterlimit:10;stroke-dasharray:none;stroke-opacity:1"
             d="m 0,0 c -2.104,0 -3.809,-1.705 -3.809,-3.809 0,-2.103 1.705,-3.808 3.809,-3.808 h 22.82 c 7.915,-4.206 14.109,-11.057 17.487,-19.369 l 0.307,-0.758 V -7.617 -4.816 0 Z" /></g><g
           transform="translate(572.209,209.2158)"
           id="g120"><path
             id="path122"
             style="fill:#ffffff;fill-opacity:1;fill-rule:nonzero;stroke:none"
             d="m 0,0 h -150.06 c -2.103,0 -3.808,1.705 -3.808,3.809 0,2.103 1.705,3.808 3.808,3.808 H 0 Z" /></g><g
           transform="translate(572.209,209.2158)"
           id="g124"><path
             id="path126"
             style="fill:none;stroke:#1a2e35;stroke-width:1;stroke-linecap:round;stroke-linejoin:round;stroke-miterlimit:10;stroke-dasharray:none;stroke-opacity:1"
             d="m 0,0 h -150.06 c -2.103,0 -3.808,1.705 -3.808,3.809 0,2.103 1.705,3.808 3.808,3.808 H 0 Z" /></g><g
           transform="translate(531.5947,216.833)"
           id="g128"><path
             id="path130"
             style="fill:#1a2e35;fill-opacity:1;fill-rule:nonzero;stroke:none"
             d="m 0,0 c -2.103,0 -3.809,-1.705 -3.809,-3.809 0,-2.103 1.706,-3.808 3.809,-3.808 h 22.82 c 7.915,-4.206 14.11,-11.057 17.487,-19.369 l 0.307,-0.758 V -7.617 -4.816 0 Z" /></g><g
           transform="translate(531.5947,216.833)"
           id="g132"><path
             id="path134"
             style="fill:none;stroke:#1a2e35;stroke-width:1;stroke-linecap:round;stroke-linejoin:round;stroke-miterlimit:10;stroke-dasharray:none;stroke-opacity:1"
             d="m 0,0 c -2.103,0 -3.809,-1.705 -3.809,-3.809 0,-2.103 1.706,-3.808 3.809,-3.808 h 22.82 c 7.915,-4.206 14.11,-11.057 17.487,-19.369 l 0.307,-0.758 V -7.617 -4.816 0 Z" /></g><g
           transform="translate(568.6641,295.293)"
           id="g136"><path
             id="path138"
             style="fill:#1a2e35;fill-opacity:1;fill-rule:nonzero;stroke:none"
             d="m 0,0 c 0,-37.882 -30.71,-68.592 -68.593,-68.592 -37.882,0 -68.592,30.71 -68.592,68.592 0,37.883 30.71,68.592 68.592,68.592 C -30.71,68.592 0,37.883 0,0" /></g><g
           transform="translate(568.6641,295.293)"
           id="g140"><path
             id="path142"
             style="fill:none;stroke:#1a2e35;stroke-width:1;stroke-linecap:round;stroke-linejoin:round;stroke-miterlimit:10;stroke-dasharray:none;stroke-opacity:1"
             d="m 0,0 c 0,-37.882 -30.71,-68.592 -68.593,-68.592 -37.882,0 -68.592,30.71 -68.592,68.592 0,37.883 30.71,68.592 68.592,68.592 C -30.71,68.592 0,37.883 0,0 Z" /></g><g
           transform="translate(566.0156,295.293)"
           id="g144"><path
             id="path146"
             style="fill:#ffffff;fill-opacity:1;fill-rule:nonzero;stroke:none"
             d="m 0,0 c 0,-37.882 -30.71,-68.592 -68.593,-68.592 -37.882,0 -68.592,30.71 -68.592,68.592 0,37.883 30.71,68.592 68.592,68.592 C -30.71,68.592 0,37.883 0,0" /></g><g
           transform="translate(566.0156,295.293)"
           id="g148"><path
             id="path150"
             style="fill:none;stroke:#1a2e35;stroke-width:1;stroke-linecap:round;stroke-linejoin:round;stroke-miterlimit:10;stroke-dasharray:none;stroke-opacity:1"
             d="m 0,0 c 0,-37.882 -30.71,-68.592 -68.593,-68.592 -37.882,0 -68.592,30.71 -68.592,68.592 0,37.883 30.71,68.592 68.592,68.592 C -30.71,68.592 0,37.883 0,0 Z" /></g><path
           id="path152"
           style="fill:#ffffff;fill-opacity:1;fill-rule:nonzero;stroke:#1a2e35;stroke-width:1;stroke-linecap:round;stroke-linejoin:round;stroke-miterlimit:10;stroke-dasharray:none;stroke-opacity:1"
           d="m 549.653,254.124 h -10.596 v -36.791 h 10.596 z" /><path
           id="path154"
           style="fill:#ffffff;fill-opacity:1;fill-rule:nonzero;stroke:#1a2e35;stroke-width:1;stroke-linecap:round;stroke-linejoin:round;stroke-miterlimit:10;stroke-dasharray:none;stroke-opacity:1"
           d="m 549.653,254.124 h -10.596 v -10.378 h 10.596 z" /><path
           id="path156"
           style="fill:#ffffff;fill-opacity:1;fill-rule:nonzero;stroke:#1a2e35;stroke-width:1;stroke-linecap:round;stroke-linejoin:round;stroke-miterlimit:10;stroke-dasharray:none;stroke-opacity:1"
           d="m 531.106,243.273 h -7.471 v -25.94 h 7.471 z" /><path
           id="path158"
           style="fill:#ffffff;fill-opacity:1;fill-rule:nonzero;stroke:#1a2e35;stroke-width:1;stroke-linecap:round;stroke-linejoin:round;stroke-miterlimit:10;stroke-dasharray:none;stroke-opacity:1"
           d="m 531.106,243.273 h -7.471 v -7.317 h 7.471 z" /><g
           transform="translate(474.8994,263.5894)"
           id="g160"><path
             id="path162"
             style="fill:#ffffff;fill-opacity:1;fill-rule:nonzero;stroke:#1a2e35;stroke-width:1;stroke-linecap:round;stroke-linejoin:round;stroke-miterlimit:10;stroke-dasharray:none;stroke-opacity:1"
             d="M 0,0 -4.031,-4.031" /></g><g
           transform="translate(539.2031,327.8931)"
           id="g164"><path
             id="path166"
             style="fill:#ffffff;fill-opacity:1;fill-rule:nonzero;stroke:#1a2e35;stroke-width:1;stroke-linecap:round;stroke-linejoin:round;stroke-miterlimit:10;stroke-dasharray:none;stroke-opacity:1"
             d="M 0,0 -61.476,-61.476" /></g><g
           transform="translate(522.2197,332.2251)"
           id="g168"><path
             id="path170"
             style="fill:#ffffff;fill-opacity:1;fill-rule:nonzero;stroke:#1a2e35;stroke-width:1;stroke-linecap:round;stroke-linejoin:round;stroke-miterlimit:10;stroke-dasharray:none;stroke-opacity:1"
             d="M 0,0 -13.735,-13.736" /></g><g
           transform="translate(527.292,337.2969)"
           id="g172"><path
             id="path174"
             style="fill:#ffffff;fill-opacity:1;fill-rule:nonzero;stroke:#1a2e35;stroke-width:1;stroke-linecap:round;stroke-linejoin:round;stroke-miterlimit:10;stroke-dasharray:none;stroke-opacity:1"
             d="M 0,0 -2.421,-2.42" /></g></g></g><g
       id="g176"><g
         clip-path="url(#clipPath182)"
         id="g178"><g
           transform="translate(364.7686,205.6748)"
           id="g184"><path
             id="path186"
             style="fill:#ffffff;fill-opacity:1;fill-rule:nonzero;stroke:none"
             d="m 0,0 v 3.541 2.801 4.816 h -40.614 c -2.103,0 -3.808,-1.705 -3.808,-3.808 0,-2.104 1.705,-3.809 3.808,-3.809 h 22.82 C -9.879,-0.665 -3.685,-7.516 -0.308,-15.828 L 0,-16.586 H 5.571 V 0 Z" /></g><g
           transform="translate(364.7686,205.6748)"
           id="g188"><path
             id="path190"
             style="fill:none;stroke:#1a2e35;stroke-width:1;stroke-linecap:round;stroke-linejoin:round;stroke-miterlimit:10;stroke-dasharray:none;stroke-opacity:1"
             d="m 0,0 v 3.541 2.801 4.816 h -40.614 c -2.103,0 -3.808,-1.705 -3.808,-3.808 0,-2.104 1.705,-3.809 3.808,-3.809 h 22.82 C -9.879,-0.665 -3.685,-7.516 -0.308,-15.828 L 0,-16.586 H 5.571 V 0 Z" /></g><g
           transform="translate(261.7769,205.6748)"
           id="g192"><path
             id="path194"
             style="fill:#ffffff;fill-opacity:1;fill-rule:nonzero;stroke:none"
             d="m 0,0 v 3.541 2.801 4.816 h -40.614 c -2.103,0 -3.808,-1.705 -3.808,-3.808 0,-2.104 1.705,-3.809 3.808,-3.809 h 22.82 C -9.879,-0.665 -3.685,-7.516 -0.308,-15.828 L 0,-16.586 H 5.571 V 0 Z" /></g><g
           transform="translate(261.7769,205.6748)"
           id="g196"><path
             id="path198"
             style="fill:none;stroke:#1a2e35;stroke-width:1;stroke-linecap:round;stroke-linejoin:round;stroke-miterlimit:10;stroke-dasharray:none;stroke-opacity:1"
             d="m 0,0 v 3.541 2.801 4.816 h -40.614 c -2.103,0 -3.808,-1.705 -3.808,-3.808 0,-2.104 1.705,-3.809 3.808,-3.809 h 22.82 C -9.879,-0.665 -3.685,-7.516 -0.308,-15.828 L 0,-16.586 H 5.571 V 0 Z" /></g><g
           transform="translate(226.7344,216.833)"
           id="g200"><path
             id="path202"
             style="fill:#1a2e35;fill-opacity:1;fill-rule:nonzero;stroke:none"
             d="m 0,0 c -2.103,0 -3.809,-1.705 -3.809,-3.809 0,-2.103 1.706,-3.808 3.809,-3.808 h 22.82 c 7.915,-4.206 14.109,-11.057 17.486,-19.369 l 0.308,-0.758 V -7.617 -4.816 0 Z" /></g><g
           transform="translate(226.7344,216.833)"
           id="g204"><path
             id="path206"
             style="fill:none;stroke:#1a2e35;stroke-width:1;stroke-linecap:round;stroke-linejoin:round;stroke-miterlimit:10;stroke-dasharray:none;stroke-opacity:1"
             d="m 0,0 c -2.103,0 -3.809,-1.705 -3.809,-3.809 0,-2.103 1.706,-3.808 3.809,-3.808 h 22.82 c 7.915,-4.206 14.109,-11.057 17.486,-19.369 l 0.308,-0.758 V -7.617 -4.816 0 Z" /></g><g
           transform="translate(370.3398,209.2158)"
           id="g208"><path
             id="path210"
             style="fill:#ffffff;fill-opacity:1;fill-rule:nonzero;stroke:none"
             d="m 0,0 h -150.06 c -2.103,0 -3.808,1.705 -3.808,3.809 0,2.103 1.705,3.808 3.808,3.808 H 0 Z" /></g><g
           transform="translate(370.3398,209.2158)"
           id="g212"><path
             id="path214"
             style="fill:none;stroke:#1a2e35;stroke-width:1;stroke-linecap:round;stroke-linejoin:round;stroke-miterlimit:10;stroke-dasharray:none;stroke-opacity:1"
             d="m 0,0 h -150.06 c -2.103,0 -3.808,1.705 -3.808,3.809 0,2.103 1.705,3.808 3.808,3.808 H 0 Z" /></g><g
           transform="translate(329.7261,216.833)"
           id="g216"><path
             id="path218"
             style="fill:#1a2e35;fill-opacity:1;fill-rule:nonzero;stroke:none"
             d="m 0,0 c -2.104,0 -3.809,-1.705 -3.809,-3.809 0,-2.103 1.705,-3.808 3.809,-3.808 h 22.819 c 7.915,-4.206 14.11,-11.057 17.487,-19.369 l 0.308,-0.758 V -7.617 -4.816 0 Z" /></g><g
           transform="translate(329.7261,216.833)"
           id="g220"><path
             id="path222"
             style="fill:none;stroke:#1a2e35;stroke-width:1;stroke-linecap:round;stroke-linejoin:round;stroke-miterlimit:10;stroke-dasharray:none;stroke-opacity:1"
             d="m 0,0 c -2.104,0 -3.809,-1.705 -3.809,-3.809 0,-2.103 1.705,-3.808 3.809,-3.808 h 22.819 c 7.915,-4.206 14.11,-11.057 17.487,-19.369 l 0.308,-0.758 V -7.617 -4.816 0 Z" /></g><g
           transform="translate(366.7944,295.293)"
           id="g224"><path
             id="path226"
             style="fill:#1a2e35;fill-opacity:1;fill-rule:nonzero;stroke:none"
             d="m 0,0 c 0,-37.882 -30.71,-68.592 -68.592,-68.592 -37.883,0 -68.593,30.71 -68.593,68.592 0,37.883 30.71,68.592 68.593,68.592 C -30.71,68.592 0,37.883 0,0" /></g><g
           transform="translate(366.7944,295.293)"
           id="g228"><path
             id="path230"
             style="fill:none;stroke:#1a2e35;stroke-width:1;stroke-linecap:round;stroke-linejoin:round;stroke-miterlimit:10;stroke-dasharray:none;stroke-opacity:1"
             d="m 0,0 c 0,-37.882 -30.71,-68.592 -68.592,-68.592 -37.883,0 -68.593,30.71 -68.593,68.592 0,37.883 30.71,68.592 68.593,68.592 C -30.71,68.592 0,37.883 0,0 Z" /></g><g
           transform="translate(364.146,295.293)"
           id="g232"><path
             id="path234"
             style="fill:#ffffff;fill-opacity:1;fill-rule:nonzero;stroke:none"
             d="m 0,0 c 0,-37.882 -30.709,-68.592 -68.592,-68.592 -37.883,0 -68.592,30.71 -68.592,68.592 0,37.883 30.709,68.592 68.592,68.592 C -30.709,68.592 0,37.883 0,0" /></g><g
           transform="translate(364.146,295.293)"
           id="g236"><path
             id="path238"
             style="fill:none;stroke:#1a2e35;stroke-width:1;stroke-linecap:round;stroke-linejoin:round;stroke-miterlimit:10;stroke-dasharray:none;stroke-opacity:1"
             d="m 0,0 c 0,-37.882 -30.709,-68.592 -68.592,-68.592 -37.883,0 -68.592,30.71 -68.592,68.592 0,37.883 30.709,68.592 68.592,68.592 C -30.709,68.592 0,37.883 0,0 Z" /></g><g
           transform="translate(318.5264,341.0586)"
           id="g240"><path
             id="path242"
             style="fill:#ffffff;fill-opacity:1;fill-rule:nonzero;stroke:#1a2e35;stroke-width:1;stroke-linecap:round;stroke-linejoin:round;stroke-miterlimit:10;stroke-dasharray:none;stroke-opacity:1"
             d="M 0,0 -25.391,-25.391" /></g><g
           transform="translate(327.3032,349.8354)"
           id="g244"><path
             id="path246"
             style="fill:#ffffff;fill-opacity:1;fill-rule:nonzero;stroke:#1a2e35;stroke-width:1;stroke-linecap:round;stroke-linejoin:round;stroke-miterlimit:10;stroke-dasharray:none;stroke-opacity:1"
             d="M 0,0 -4.388,-4.389" /></g><g
           transform="translate(286.5532,324.7588)"
           id="g248"><path
             id="path250"
             style="fill:#ffffff;fill-opacity:1;fill-rule:nonzero;stroke:#1a2e35;stroke-width:1;stroke-linecap:round;stroke-linejoin:round;stroke-miterlimit:10;stroke-dasharray:none;stroke-opacity:1"
             d="M 0,0 -9.09,-9.091" /></g><g
           transform="translate(293.4492,331.6548)"
           id="g252"><path
             id="path254"
             style="fill:#ffffff;fill-opacity:1;fill-rule:nonzero;stroke:#1a2e35;stroke-width:1;stroke-linecap:round;stroke-linejoin:round;stroke-miterlimit:10;stroke-dasharray:none;stroke-opacity:1"
             d="M 0,0 -4.542,-4.542" /></g><path
           id="path256"
           style="fill:#ffffff;fill-opacity:1;fill-rule:nonzero;stroke:#1a2e35;stroke-width:1;stroke-linecap:round;stroke-linejoin:round;stroke-miterlimit:10;stroke-dasharray:none;stroke-opacity:1"
           d="m 347.784,254.124 h -10.596 v -36.791 h 10.596 z" /><path
           id="path258"
           style="fill:#ffffff;fill-opacity:1;fill-rule:nonzero;stroke:#1a2e35;stroke-width:1;stroke-linecap:round;stroke-linejoin:round;stroke-miterlimit:10;stroke-dasharray:none;stroke-opacity:1"
           d="m 347.784,254.124 h -10.596 v -10.378 h 10.596 z" /><path
           id="path260"
           style="fill:#ffffff;fill-opacity:1;fill-rule:nonzero;stroke:#1a2e35;stroke-width:1;stroke-linecap:round;stroke-linejoin:round;stroke-miterlimit:10;stroke-dasharray:none;stroke-opacity:1"
           d="m 329.238,243.273 h -7.471 v -25.94 h 7.471 z" /><path
           id="path262"
           style="fill:#ffffff;fill-opacity:1;fill-rule:nonzero;stroke:#1a2e35;stroke-width:1;stroke-linecap:round;stroke-linejoin:round;stroke-miterlimit:10;stroke-dasharray:none;stroke-opacity:1"
           d="m 329.238,243.273 h -7.471 v -7.317 h 7.471 z" /></g></g><path
       id="path264"
       style="fill:#ffffff;fill-opacity:1;fill-rule:nonzero;stroke:#1a2e35;stroke-width:1;stroke-linecap:round;stroke-linejoin:round;stroke-miterlimit:10;stroke-dasharray:none;stroke-opacity:1"
       d="M 636.279,327.35 H 610.33 v 60.548 h 25.949 z" /><g
       transform="translate(623.3047,387.8481)"
       id="g266"><path
         id="path268"
         style="fill:none;stroke:#1a2e35;stroke-width:1;stroke-linecap:round;stroke-linejoin:round;stroke-miterlimit:10;stroke-dasharray:none;stroke-opacity:1"
         d="M 0,0 V 67.518" /></g><path
       id="path270"
       style="fill:#ffffff;fill-opacity:1;fill-rule:nonzero;stroke:#1a2e35;stroke-width:1;stroke-linecap:round;stroke-linejoin:round;stroke-miterlimit:10;stroke-dasharray:none;stroke-opacity:1"
       d="m 410.871,327.35 h -25.949 v 60.548 h 25.949 z" /><g
       transform="translate(397.8965,387.8481)"
       id="g272"><path
         id="path274"
         style="fill:none;stroke:#1a2e35;stroke-width:1;stroke-linecap:round;stroke-linejoin:round;stroke-miterlimit:10;stroke-dasharray:none;stroke-opacity:1"
         d="M 0,0 V 67.518" /></g><path
       id="path276"
       style="fill:#ffffff;fill-opacity:1;fill-rule:nonzero;stroke:#1a2e35;stroke-width:1;stroke-linecap:round;stroke-linejoin:round;stroke-miterlimit:10;stroke-dasharray:none;stroke-opacity:1"
       d="m 181.743,327.35 h -25.949 v 60.548 h 25.949 z" /><g
       transform="translate(168.7686,387.8481)"
       id="g278"><path
         id="path280"
         style="fill:none;stroke:#1a2e35;stroke-width:1;stroke-linecap:round;stroke-linejoin:round;stroke-miterlimit:10;stroke-dasharray:none;stroke-opacity:1"
         d="M 0,0 V 67.518" /></g><g
       transform="translate(184.6392,133.1797)"
       id="g282"><path
         id="path284"
         style="fill:none;stroke:#1a2e35;stroke-width:2;stroke-linecap:round;stroke-linejoin:round;stroke-miterlimit:10;stroke-dasharray:none;stroke-opacity:1"
         d="M 0,0 34.451,-49.499" /></g><g
       transform="translate(218.5435,83.4854)"
       id="g286"><path
         id="path288"
         style="fill:none;stroke:#1a2e35;stroke-width:2;stroke-linecap:round;stroke-linejoin:round;stroke-miterlimit:10;stroke-dasharray:none;stroke-opacity:1"
         d="M 0,0 H 14.904" /></g><g
       transform="translate(192.7568,132.585)"
       id="g290"><path
         id="path292"
         style="fill:none;stroke:#1a2e35;stroke-width:2;stroke-linecap:round;stroke-linejoin:round;stroke-miterlimit:10;stroke-dasharray:none;stroke-opacity:1"
         d="M 0,0 40.192,-48.706" /></g><g
       transform="translate(144.0508,117.9336)"
       id="g294"><path
         id="path296"
         style="fill:none;stroke:#1a2e35;stroke-width:2;stroke-linecap:round;stroke-linejoin:round;stroke-miterlimit:10;stroke-dasharray:none;stroke-opacity:1"
         d="M 0,0 -35.441,-16.235" /></g><path
       id="path298"
       style="fill:#3b3b3b;fill-opacity:1;fill-rule:nonzero;stroke:#1a2e35;stroke-width:1;stroke-linecap:round;stroke-linejoin:round;stroke-miterlimit:10;stroke-dasharray:none;stroke-opacity:1"
       d="m 154.6,62.693 h -6.446 v 71.762 h 6.446 z" /><g
       id="g300"><g
         clip-path="url(#clipPath306)"
         id="g302"><g
           transform="translate(166.6328,64.0801)"
           id="g308"><path
             id="path310"
             style="fill:#ffffff;fill-opacity:1;fill-rule:nonzero;stroke:none"
             d="m 0,0 c -0.315,0.163 -0.617,0.327 -0.905,0.491 -3.774,2.151 -6.036,6.226 -6.036,10.57 V 57.615 H -23.572 V 10.853 c 0,-4.503 -2.435,-8.697 -6.423,-10.79 -0.04,-0.021 -0.081,-0.042 -0.122,-0.063 -5.326,-2.763 -19.514,-6.356 -25.63,-7.834 -1.683,-0.407 -2.87,-1.912 -2.87,-3.644 v -0.005 h 43.255 0.607 43.255 v 0.005 c 0,1.732 -1.187,3.237 -2.87,3.644 C 19.515,-6.356 5.326,-2.763 0,0" /></g><g
           transform="translate(166.6328,64.0801)"
           id="g312"><path
             id="path314"
             style="fill:none;stroke:#1a2e35;stroke-width:1;stroke-linecap:round;stroke-linejoin:round;stroke-miterlimit:10;stroke-dasharray:none;stroke-opacity:1"
             d="m 0,0 c -0.315,0.163 -0.617,0.327 -0.905,0.491 -3.774,2.151 -6.036,6.226 -6.036,10.57 V 57.615 H -23.572 V 10.853 c 0,-4.503 -2.435,-8.697 -6.423,-10.79 -0.04,-0.021 -0.081,-0.042 -0.122,-0.063 -5.326,-2.763 -19.514,-6.356 -25.63,-7.834 -1.683,-0.407 -2.87,-1.912 -2.87,-3.644 v -0.005 h 43.255 0.607 43.255 v 0.005 c 0,1.732 -1.187,3.237 -2.87,3.644 C 19.515,-6.356 5.326,-2.763 0,0 Z" /></g><g
           transform="translate(135.3569,60.9639)"
           id="g316"><path
             id="path318"
             style="fill:none;stroke:#1a2e35;stroke-width:1;stroke-linecap:round;stroke-linejoin:round;stroke-miterlimit:10;stroke-dasharray:none;stroke-opacity:1"
             d="M 0,0 C -1.473,-0.641 -3.038,-1.139 -4.661,-1.483" /></g><g
           transform="translate(146.7578,118.1455)"
           id="g320"><path
             id="path322"
             style="fill:none;stroke:#1a2e35;stroke-width:1;stroke-linecap:round;stroke-linejoin:round;stroke-miterlimit:10;stroke-dasharray:none;stroke-opacity:1"
             d="m 0,0 v -41.036 c 0,-6.347 -3.413,-11.44 -8.466,-14.603" /></g><g
           transform="translate(156.1284,117.9336)"
           id="g324"><path
             id="path326"
             style="fill:none;stroke:#1a2e35;stroke-width:2;stroke-linecap:round;stroke-linejoin:round;stroke-miterlimit:10;stroke-dasharray:none;stroke-opacity:1"
             d="M 0,0 -25.541,-16.235" /></g><g
           transform="translate(109.6001,102.4902)"
           id="g328"><path
             id="path330"
             style="fill:none;stroke:#1a2e35;stroke-width:4;stroke-linecap:round;stroke-linejoin:round;stroke-miterlimit:10;stroke-dasharray:none;stroke-opacity:1"
             d="M 0,0 H 20.987" /></g><g
           transform="translate(139.8926,176.3418)"
           id="g332"><path
             id="path334"
             style="fill:#888888;fill-opacity:1;fill-rule:nonzero;stroke:none"
             d="m 0,0 h 53.869 c 3.3,0 6.024,-2.692 5.93,-5.99 -10e-4,-0.049 -0.003,-0.099 -0.005,-0.148 -0.198,-4.95 -0.198,-34.054 -0.594,-35.638 -0.396,-1.584 -1.188,-2.178 -1.188,-2.178 h -98.6 c 0,0 -1.584,1.979 -2.772,6.138 -1.188,4.157 -11.088,29.104 -8.316,36.034 1.093,2.733 5.742,1.98 5.742,1.98 z" /></g><g
           transform="translate(139.8926,176.3418)"
           id="g336"><path
             id="path338"
             style="fill:none;stroke:#1a2e35;stroke-width:1;stroke-linecap:round;stroke-linejoin:round;stroke-miterlimit:10;stroke-dasharray:none;stroke-opacity:1"
             d="m 0,0 h 53.869 c 3.3,0 6.024,-2.692 5.93,-5.99 -10e-4,-0.049 -0.003,-0.099 -0.005,-0.148 -0.198,-4.95 -0.198,-34.054 -0.594,-35.638 -0.396,-1.584 -1.188,-2.178 -1.188,-2.178 h -98.6 c 0,0 -1.584,1.979 -2.772,6.138 -1.188,4.157 -11.088,29.104 -8.316,36.034 1.093,2.733 5.742,1.98 5.742,1.98 z" /></g><g
           transform="translate(88.2168,174.5596)"
           id="g340"><path
             id="path342"
             style="fill:#3b3b3b;fill-opacity:1;fill-rule:nonzero;stroke:none"
             d="m 0,0 c -2.772,-6.93 7.127,-31.877 8.315,-36.034 1.188,-4.158 2.772,-6.138 2.772,-6.138 h 43.335 c 0.075,0.242 0.149,0.506 0.224,0.792 1.188,4.554 1.386,31.481 0.792,37.223 -0.594,5.741 -3.762,5.939 -3.762,5.939 L 5.742,1.98 C 5.742,1.98 1.093,2.733 0,0" /></g><g
           transform="translate(88.2168,174.5596)"
           id="g344"><path
             id="path346"
             style="fill:none;stroke:#1a2e35;stroke-width:1;stroke-linecap:round;stroke-linejoin:round;stroke-miterlimit:10;stroke-dasharray:none;stroke-opacity:1"
             d="m 0,0 c -2.772,-6.93 7.127,-31.877 8.315,-36.034 1.188,-4.158 2.772,-6.138 2.772,-6.138 h 43.335 c 0.075,0.242 0.149,0.506 0.224,0.792 1.188,4.554 1.386,31.481 0.792,37.223 -0.594,5.741 -3.762,5.939 -3.762,5.939 L 5.742,1.98 C 5.742,1.98 1.093,2.733 0,0 Z" /></g><g
           transform="translate(92.6938,213.7617)"
           id="g348"><path
             id="path350"
             style="fill:#747474;fill-opacity:1;fill-rule:nonzero;stroke:none"
             d="m 0,0 c -1.158,0 -2.312,-0.209 -3.378,-0.662 -1.943,-0.827 -3.465,-4.944 -3.079,-7.39 0.594,-3.761 14.651,-57.681 16.038,-58.077 1.385,-0.396 32.47,0 32.47,0 0,0 -1.584,20.591 -0.198,24.749 0.461,1.383 1.239,3.036 3.572,3.886 0.876,0.319 8.688,-0.058 9.613,0.074 L 49.361,-7.616 C 48.52,-3.197 44.656,0 40.157,0 Z" /></g><g
           transform="translate(92.6938,213.7617)"
           id="g352"><path
             id="path354"
             style="fill:none;stroke:#1a2e35;stroke-width:1;stroke-linecap:round;stroke-linejoin:round;stroke-miterlimit:10;stroke-dasharray:none;stroke-opacity:1"
             d="m 0,0 c -1.158,0 -2.312,-0.209 -3.378,-0.662 -1.943,-0.827 -3.465,-4.944 -3.079,-7.39 0.594,-3.761 14.651,-57.681 16.038,-58.077 1.385,-0.396 32.47,0 32.47,0 0,0 -1.584,20.591 -0.198,24.749 0.461,1.383 1.239,3.036 3.572,3.886 0.876,0.319 8.688,-0.058 9.613,0.074 L 49.361,-7.616 C 48.52,-3.197 44.656,0 40.157,0 Z" /></g><g
           transform="translate(127.1211,213.0479)"
           id="g356"><path
             id="path358"
             style="fill:#888888;fill-opacity:1;fill-rule:nonzero;stroke:none"
             d="m 0,0 c 4.109,-1.242 7.301,-4.494 8.466,-8.625 l 4.291,-28.027 c 2.612,0.034 7.161,-0.153 7.854,-0.054 l -5.677,29.804 c -0.842,4.419 -4.705,7.616 -9.205,7.616 h -9.055 l -1.21,0.015 z" /></g><g
           transform="translate(127.1211,213.0479)"
           id="g360"><path
             id="path362"
             style="fill:none;stroke:#1a2e35;stroke-width:1;stroke-linecap:round;stroke-linejoin:round;stroke-miterlimit:10;stroke-dasharray:none;stroke-opacity:1"
             d="m 0,0 c 4.109,-1.242 7.301,-4.494 8.466,-8.625 l 4.291,-28.027 c 2.612,0.034 7.161,-0.153 7.854,-0.054 l -5.677,29.804 c -0.842,4.419 -4.705,7.616 -9.205,7.616 h -9.055 l -1.21,0.015 z" /></g></g></g><g
       id="g364"><g
         clip-path="url(#clipPath370)"
         id="g366"><g
           transform="translate(366.4873,146.4443)"
           id="g372"><path
             id="path374"
             style="fill:#ffffff;fill-opacity:1;fill-rule:nonzero;stroke:none"
             d="m 0,0 11.483,6.336 c 0,0 0.595,-11.483 2.971,-21.185 2.375,-9.702 7.524,-32.273 8.909,-36.629 1.386,-4.356 0.792,-10.494 1.783,-11.286 0.99,-0.792 4.553,-0.395 6.731,0.595 2.178,0.989 6.731,2.97 8.712,3.762 1.979,0.792 6.731,2.969 9.107,6.731 2.376,3.762 -0.593,1.189 -3.761,0.594 -3.168,-0.594 -12.276,1.782 -14.058,2.97 -1.782,1.188 -1.782,31.481 -1.188,47.123 0.594,15.641 -3.366,27.718 -6.137,29.896 -2.773,2.178 -12.277,-0.792 -12.277,-0.792 L 3.05,27.294 Z" /></g><g
           transform="translate(366.4873,146.4443)"
           id="g376"><path
             id="path378"
             style="fill:none;stroke:#1a2e35;stroke-width:1;stroke-linecap:round;stroke-linejoin:round;stroke-miterlimit:10;stroke-dasharray:none;stroke-opacity:1"
             d="m 0,0 11.483,6.336 c 0,0 0.595,-11.483 2.971,-21.185 2.375,-9.702 7.524,-32.273 8.909,-36.629 1.386,-4.356 0.792,-10.494 1.783,-11.286 0.99,-0.792 4.553,-0.395 6.731,0.595 2.178,0.989 6.731,2.97 8.712,3.762 1.979,0.792 6.731,2.969 9.107,6.731 2.376,3.762 -0.593,1.189 -3.761,0.594 -3.168,-0.594 -12.276,1.782 -14.058,2.97 -1.782,1.188 -1.782,31.481 -1.188,47.123 0.594,15.641 -3.366,27.718 -6.137,29.896 -2.773,2.178 -12.277,-0.792 -12.277,-0.792 L 3.05,27.294 Z" /></g><g
           transform="translate(377.9707,152.7803)"
           id="g380"><path
             id="path382"
             style="fill:none;stroke:#1a2e35;stroke-width:1;stroke-linecap:round;stroke-linejoin:round;stroke-miterlimit:10;stroke-dasharray:none;stroke-opacity:1"
             d="M 0,0 8.514,5.346" /></g><g
           transform="translate(412.4219,95.3623)"
           id="g384"><path
             id="path386"
             style="fill:#1a2e35;fill-opacity:1;fill-rule:nonzero;stroke:none"
             d="m 0,0 c -2.652,-0.497 -9.455,1.086 -12.648,2.313 0.043,-0.113 0.088,-0.221 0.121,-0.367 0.362,-1.632 0.906,-3.444 0.906,-3.444 0,0 -3.807,-2.72 -7.795,-2.9 -0.766,-0.036 -1.564,-0.083 -2.355,-0.139 0.371,-3.373 0.284,-6.586 0.982,-7.145 0.99,-0.792 4.554,-0.395 6.731,0.595 2.178,0.989 6.732,2.97 8.712,3.762 1.98,0.792 6.732,2.97 9.108,6.731 C 6.138,3.168 3.168,0.595 0,0" /></g><g
           transform="translate(412.4219,95.3623)"
           id="g388"><path
             id="path390"
             style="fill:none;stroke:#1a2e35;stroke-width:1;stroke-linecap:round;stroke-linejoin:round;stroke-miterlimit:10;stroke-dasharray:none;stroke-opacity:1"
             d="m 0,0 c -2.652,-0.497 -9.455,1.086 -12.648,2.313 0.043,-0.113 0.088,-0.221 0.121,-0.367 0.362,-1.632 0.906,-3.444 0.906,-3.444 0,0 -3.807,-2.72 -7.795,-2.9 -0.766,-0.036 -1.564,-0.083 -2.355,-0.139 0.371,-3.373 0.284,-6.586 0.982,-7.145 0.99,-0.792 4.554,-0.395 6.731,0.595 2.178,0.989 6.732,2.97 8.712,3.762 1.98,0.792 6.732,2.97 9.108,6.731 C 6.138,3.168 3.168,0.595 0,0 Z" /></g><g
           transform="translate(357.1821,133.1797)"
           id="g392"><path
             id="path394"
             style="fill:none;stroke:#1a2e35;stroke-width:2;stroke-linecap:round;stroke-linejoin:round;stroke-miterlimit:10;stroke-dasharray:none;stroke-opacity:1"
             d="M 0,0 34.451,-49.499" /></g><g
           transform="translate(391.0859,83.4854)"
           id="g396"><path
             id="path398"
             style="fill:none;stroke:#1a2e35;stroke-width:2;stroke-linecap:round;stroke-linejoin:round;stroke-miterlimit:10;stroke-dasharray:none;stroke-opacity:1"
             d="M 0,0 H 14.904" /></g><g
           transform="translate(365.2998,132.585)"
           id="g400"><path
             id="path402"
             style="fill:none;stroke:#1a2e35;stroke-width:2;stroke-linecap:round;stroke-linejoin:round;stroke-miterlimit:10;stroke-dasharray:none;stroke-opacity:1"
             d="M 0,0 40.192,-48.706" /></g><g
           transform="translate(368.2695,192.5771)"
           id="g404"><path
             id="path406"
             style="fill:#ffffff;fill-opacity:1;fill-rule:nonzero;stroke:none"
             d="m 0,0 c 0,0 19.896,7.25 21.978,4.554 12.967,-16.798 26.961,-58.805 29.931,-63.953 2.97,-5.148 6.93,-6.93 6.93,-6.93 0,0 12.078,2.179 15.84,3.564 3.761,1.386 2.969,-0.396 1.979,-2.574 -0.989,-2.178 -2.178,-5.346 -6.137,-7.92 -3.96,-2.573 -9.306,-4.949 -12.87,-6.137 -3.564,-1.188 -3.96,-1.782 -5.148,0 -1.188,1.782 -5.148,11.087 -8.711,16.83 -3.564,5.741 -17.657,23.759 -22.805,30.689 -5.147,6.93 -8.91,14.256 -8.91,14.256 l -13.581,-2.208 c 0,0 -4.832,-4.92 -5.822,0.624 C -8.316,-13.662 0,0 0,0" /></g><g
           transform="translate(368.2695,192.5771)"
           id="g408"><path
             id="path410"
             style="fill:none;stroke:#1a2e35;stroke-width:1;stroke-linecap:round;stroke-linejoin:round;stroke-miterlimit:10;stroke-dasharray:none;stroke-opacity:1"
             d="m 0,0 c 0,0 19.896,7.25 21.978,4.554 12.967,-16.798 26.961,-58.805 29.931,-63.953 2.97,-5.148 6.93,-6.93 6.93,-6.93 0,0 12.078,2.179 15.84,3.564 3.761,1.386 2.969,-0.396 1.979,-2.574 -0.989,-2.178 -2.178,-5.346 -6.137,-7.92 -3.96,-2.573 -9.306,-4.949 -12.87,-6.137 -3.564,-1.188 -3.96,-1.782 -5.148,0 -1.188,1.782 -5.148,11.087 -8.711,16.83 -3.564,5.741 -17.657,23.759 -22.805,30.689 -5.147,6.93 -8.91,14.256 -8.91,14.256 l -13.581,-2.208 c 0,0 -4.832,-4.92 -5.822,0.624 C -8.316,-13.662 0,0 0,0 Z" /></g><g
           transform="translate(380.3467,174.9561)"
           id="g412"><path
             id="path414"
             style="fill:none;stroke:#1a2e35;stroke-width:1;stroke-linecap:round;stroke-linejoin:round;stroke-miterlimit:10;stroke-dasharray:none;stroke-opacity:1"
             d="M 0,0 C 0,0 -2.573,7.523 -2.573,13.266" /></g><g
           transform="translate(442.9482,129.8125)"
           id="g416"><path
             id="path418"
             style="fill:#1a2e35;fill-opacity:1;fill-rule:nonzero;stroke:none"
             d="m 0,0 c -3.762,-1.386 -15.84,-3.564 -15.84,-3.564 0,0 -1.29,-0.841 -1.109,-1.748 l 0.181,-0.906 c 0,0 1.088,-1.45 -4.712,-2.719 -1.7,-0.372 -3.047,-0.648 -4.117,-0.856 1.564,-3.227 2.833,-5.956 3.421,-6.839 1.189,-1.781 1.584,-1.187 5.149,0 3.563,1.189 8.909,3.565 12.869,6.138 3.96,2.574 7.067,7.719 8.057,9.896 C 4.889,1.58 3.762,1.386 0,0" /></g><g
           transform="translate(442.9482,129.8125)"
           id="g420"><path
             id="path422"
             style="fill:none;stroke:#1a2e35;stroke-width:1;stroke-linecap:round;stroke-linejoin:round;stroke-miterlimit:10;stroke-dasharray:none;stroke-opacity:1"
             d="m 0,0 c -3.762,-1.386 -15.84,-3.564 -15.84,-3.564 0,0 -1.29,-0.841 -1.109,-1.748 l 0.181,-0.906 c 0,0 1.088,-1.45 -4.712,-2.719 -1.7,-0.372 -3.047,-0.648 -4.117,-0.856 1.564,-3.227 2.833,-5.956 3.421,-6.839 1.189,-1.781 1.584,-1.187 5.149,0 3.563,1.189 8.909,3.565 12.869,6.138 3.96,2.574 7.067,7.719 8.057,9.896 C 4.889,1.58 3.762,1.386 0,0 Z" /></g><g
           transform="translate(444.6758,128.6924)"
           id="g424"><path
             id="path426"
             style="fill:#ffffff;fill-opacity:1;fill-rule:nonzero;stroke:none"
             d="m 0,0 c -1.05,-0.414 -2.576,-1.535 -4.494,-3.069 -1.679,-1.344 -2.235,-1.866 -3.668,-3.297 -2.357,-2.358 -3.807,-4.352 -7.433,-5.983 -3.244,-1.46 -6.248,-2.231 -8.358,-3.079 0.015,-0.024 0.035,-0.061 0.05,-0.084 1.188,-1.781 1.584,-1.187 5.148,0 3.564,1.189 8.909,3.565 12.869,6.138 3.96,2.574 7.068,7.719 8.058,9.896 C 2.463,1.163 0.754,0.297 0,0" /></g><g
           transform="translate(444.6758,128.6924)"
           id="g428"><path
             id="path430"
             style="fill:none;stroke:#1a2e35;stroke-width:1;stroke-linecap:round;stroke-linejoin:round;stroke-miterlimit:10;stroke-dasharray:none;stroke-opacity:1"
             d="m 0,0 c -1.05,-0.414 -2.576,-1.535 -4.494,-3.069 -1.679,-1.344 -2.235,-1.866 -3.668,-3.297 -2.357,-2.358 -3.807,-4.352 -7.433,-5.983 -3.244,-1.46 -6.248,-2.231 -8.358,-3.079 0.015,-0.024 0.035,-0.061 0.05,-0.084 1.188,-1.781 1.584,-1.187 5.148,0 3.564,1.189 8.909,3.565 12.869,6.138 3.96,2.574 7.068,7.719 8.058,9.896 C 2.463,1.163 0.754,0.297 0,0 Z" /></g><g
           transform="translate(316.5933,117.9336)"
           id="g432"><path
             id="path434"
             style="fill:none;stroke:#1a2e35;stroke-width:2;stroke-linecap:round;stroke-linejoin:round;stroke-miterlimit:10;stroke-dasharray:none;stroke-opacity:1"
             d="M 0,0 -35.44,-16.235" /></g><path
           id="path436"
           style="fill:#3b3b3b;fill-opacity:1;fill-rule:nonzero;stroke:#1a2e35;stroke-width:1;stroke-linecap:round;stroke-linejoin:round;stroke-miterlimit:10;stroke-dasharray:none;stroke-opacity:1"
           d="m 327.143,62.693 h -6.447 v 71.762 h 6.447 z" /><g
           transform="translate(339.1758,64.0801)"
           id="g438"><path
             id="path440"
             style="fill:#ffffff;fill-opacity:1;fill-rule:nonzero;stroke:none"
             d="m 0,0 c -0.315,0.163 -0.617,0.327 -0.905,0.491 -3.774,2.151 -6.036,6.226 -6.036,10.57 V 57.615 H -23.572 V 10.853 c 0,-4.503 -2.436,-8.697 -6.423,-10.79 -0.04,-0.021 -0.081,-0.042 -0.122,-0.063 -5.326,-2.763 -19.514,-6.356 -25.63,-7.834 -1.683,-0.407 -2.87,-1.912 -2.87,-3.644 v -0.005 h 43.255 0.607 43.255 v 0.005 c 0,1.732 -1.187,3.237 -2.871,3.644 C 19.514,-6.356 5.326,-2.763 0,0" /></g><g
           transform="translate(339.1758,64.0801)"
           id="g442"><path
             id="path444"
             style="fill:none;stroke:#1a2e35;stroke-width:1;stroke-linecap:round;stroke-linejoin:round;stroke-miterlimit:10;stroke-dasharray:none;stroke-opacity:1"
             d="m 0,0 c -0.315,0.163 -0.617,0.327 -0.905,0.491 -3.774,2.151 -6.036,6.226 -6.036,10.57 V 57.615 H -23.572 V 10.853 c 0,-4.503 -2.436,-8.697 -6.423,-10.79 -0.04,-0.021 -0.081,-0.042 -0.122,-0.063 -5.326,-2.763 -19.514,-6.356 -25.63,-7.834 -1.683,-0.407 -2.87,-1.912 -2.87,-3.644 v -0.005 h 43.255 0.607 43.255 v 0.005 c 0,1.732 -1.187,3.237 -2.871,3.644 C 19.514,-6.356 5.326,-2.763 0,0 Z" /></g><g
           transform="translate(307.8999,60.9639)"
           id="g446"><path
             id="path448"
             style="fill:none;stroke:#1a2e35;stroke-width:1;stroke-linecap:round;stroke-linejoin:round;stroke-miterlimit:10;stroke-dasharray:none;stroke-opacity:1"
             d="M 0,0 C -1.474,-0.641 -3.038,-1.139 -4.661,-1.483" /></g><g
           transform="translate(319.3003,118.1455)"
           id="g450"><path
             id="path452"
             style="fill:none;stroke:#1a2e35;stroke-width:1;stroke-linecap:round;stroke-linejoin:round;stroke-miterlimit:10;stroke-dasharray:none;stroke-opacity:1"
             d="m 0,0 v -41.036 c 0,-6.347 -3.413,-11.44 -8.465,-14.603" /></g><g
           transform="translate(328.6709,117.9336)"
           id="g454"><path
             id="path456"
             style="fill:none;stroke:#1a2e35;stroke-width:2;stroke-linecap:round;stroke-linejoin:round;stroke-miterlimit:10;stroke-dasharray:none;stroke-opacity:1"
             d="M 0,0 -25.541,-16.235" /></g><g
           transform="translate(282.1426,102.4902)"
           id="g458"><path
             id="path460"
             style="fill:none;stroke:#1a2e35;stroke-width:4;stroke-linecap:round;stroke-linejoin:round;stroke-miterlimit:10;stroke-dasharray:none;stroke-opacity:1"
             d="M 0,0 H 20.987" /></g><g
           transform="translate(312.4355,176.3418)"
           id="g462"><path
             id="path464"
             style="fill:#888888;fill-opacity:1;fill-rule:nonzero;stroke:none"
             d="m 0,0 h 57.22 c 0,0 2.772,-1.188 2.574,-6.138 -0.198,-4.95 -0.198,-34.054 -0.594,-35.638 -0.396,-1.584 -1.188,-2.178 -1.188,-2.178 h -98.6 c 0,0 -1.584,1.979 -2.772,6.138 -1.188,4.157 -11.088,29.104 -8.316,36.034 1.093,2.733 5.741,1.98 5.741,1.98 z" /></g><g
           transform="translate(312.4355,176.3418)"
           id="g466"><path
             id="path468"
             style="fill:none;stroke:#1a2e35;stroke-width:1;stroke-linecap:round;stroke-linejoin:round;stroke-miterlimit:10;stroke-dasharray:none;stroke-opacity:1"
             d="m 0,0 h 57.22 c 0,0 2.772,-1.188 2.574,-6.138 -0.198,-4.95 -0.198,-34.054 -0.594,-35.638 -0.396,-1.584 -1.188,-2.178 -1.188,-2.178 h -98.6 c 0,0 -1.584,1.979 -2.772,6.138 -1.188,4.157 -11.088,29.104 -8.316,36.034 1.093,2.733 5.741,1.98 5.741,1.98 z" /></g><g
           transform="translate(260.7593,174.5596)"
           id="g470"><path
             id="path472"
             style="fill:#3b3b3b;fill-opacity:1;fill-rule:nonzero;stroke:none"
             d="m 0,0 c -2.771,-6.93 7.128,-31.877 8.316,-36.034 1.188,-4.158 2.772,-6.138 2.772,-6.138 h 43.334 c 0.075,0.242 0.149,0.506 0.224,0.792 1.188,4.554 1.386,31.481 0.792,37.223 -0.594,5.741 -3.762,5.939 -3.762,5.939 L 5.742,1.98 C 5.742,1.98 1.093,2.733 0,0" /></g><g
           transform="translate(260.7593,174.5596)"
           id="g474"><path
             id="path476"
             style="fill:none;stroke:#1a2e35;stroke-width:1;stroke-linecap:round;stroke-linejoin:round;stroke-miterlimit:10;stroke-dasharray:none;stroke-opacity:1"
             d="m 0,0 c -2.771,-6.93 7.128,-31.877 8.316,-36.034 1.188,-4.158 2.772,-6.138 2.772,-6.138 h 43.334 c 0.075,0.242 0.149,0.506 0.224,0.792 1.188,4.554 1.386,31.481 0.792,37.223 -0.594,5.741 -3.762,5.939 -3.762,5.939 L 5.742,1.98 C 5.742,1.98 1.093,2.733 0,0 Z" /></g><g
           transform="translate(263.7295,213.7617)"
           id="g478"><path
             id="path480"
             style="fill:#747474;fill-opacity:1;fill-rule:nonzero;stroke:none"
             d="m 0,0 c 0,0 -6.732,-1.781 -6.138,-5.543 0.594,-3.762 15.84,-60.19 17.225,-60.586 1.387,-0.396 32.471,0 32.471,0 0,0 -1.584,20.591 -0.198,24.749 0.824,2.471 5.346,3.96 5.346,3.96 L 41.578,0 Z" /></g><g
           transform="translate(263.7295,213.7617)"
           id="g482"><path
             id="path484"
             style="fill:none;stroke:#1a2e35;stroke-width:1;stroke-linecap:round;stroke-linejoin:round;stroke-miterlimit:10;stroke-dasharray:none;stroke-opacity:1"
             d="m 0,0 c 0,0 -6.732,-1.781 -6.138,-5.543 0.594,-3.762 15.84,-60.19 17.225,-60.586 1.387,-0.396 32.471,0 32.471,0 0,0 -1.584,20.591 -0.198,24.749 0.824,2.471 5.346,3.96 5.346,3.96 L 41.578,0 Z" /></g><g
           transform="translate(319.3652,299.6909)"
           id="g486"><path
             id="path488"
             style="fill:#ffffff;fill-opacity:1;fill-rule:nonzero;stroke:none"
             d="m 0,0 c 0,0 0.99,-3.563 1.386,-6.335 0.396,-2.772 -1.188,-5.94 -0.594,-7.722 0.594,-1.782 4.95,-4.356 3.96,-5.544 -0.99,-1.188 -3.168,-3.366 -3.168,-3.366 0,0 -0.99,-7.524 -2.574,-9.108 -1.584,-1.584 -5.148,-0.593 -6.138,-0.396 -0.99,0.199 -2.574,0.594 -2.574,0.594 l -2.573,2.97 c 0,0 -3.96,0.396 -2.575,5.148 1.387,4.752 2.575,10.692 3.564,12.473 0.991,1.783 3.168,4.356 3.168,4.356 0,0 2.376,2.574 3.168,3.367 C -4.158,-2.771 0,0 0,0" /></g><g
           transform="translate(319.3652,299.6909)"
           id="g490"><path
             id="path492"
             style="fill:none;stroke:#1a2e35;stroke-width:1;stroke-linecap:round;stroke-linejoin:round;stroke-miterlimit:10;stroke-dasharray:none;stroke-opacity:1"
             d="m 0,0 c 0,0 0.99,-3.563 1.386,-6.335 0.396,-2.772 -1.188,-5.94 -0.594,-7.722 0.594,-1.782 4.95,-4.356 3.96,-5.544 -0.99,-1.188 -3.168,-3.366 -3.168,-3.366 0,0 -0.99,-7.524 -2.574,-9.108 -1.584,-1.584 -5.148,-0.593 -6.138,-0.396 -0.99,0.199 -2.574,0.594 -2.574,0.594 l -2.573,2.97 c 0,0 -3.96,0.396 -2.575,5.148 1.387,4.752 2.575,10.692 3.564,12.473 0.991,1.783 3.168,4.356 3.168,4.356 0,0 2.376,2.574 3.168,3.367 C -4.158,-2.771 0,0 0,0 Z" /></g><g
           transform="translate(319.1777,285.3281)"
           id="g494"><path
             id="path496"
             style="fill:#1a2e35;fill-opacity:1;fill-rule:nonzero;stroke:none"
             d="m 0,0 c 0,-0.974 -0.315,-1.763 -0.705,-1.763 -0.39,0 -0.705,0.789 -0.705,1.763 0,0.974 0.315,1.763 0.705,1.763 C -0.315,1.763 0,0.974 0,0" /></g><g
           transform="translate(319.8486,289.5864)"
           id="g498"><path
             id="path500"
             style="fill:none;stroke:#1a2e35;stroke-width:1;stroke-linecap:round;stroke-linejoin:round;stroke-miterlimit:10;stroke-dasharray:none;stroke-opacity:1"
             d="M 0,0 C 0,0 -1.473,1.933 -2.615,-1.021" /></g><g
           transform="translate(320.4116,274.2222)"
           id="g502"><path
             id="path504"
             style="fill:none;stroke:#1a2e35;stroke-width:1;stroke-linecap:round;stroke-linejoin:round;stroke-miterlimit:10;stroke-dasharray:none;stroke-opacity:1"
             d="M 0,0 C 0,0 -1.586,-0.529 -2.82,0.705" /></g><g
           transform="translate(312.0396,249.0049)"
           id="g506"><path
             id="path508"
             style="fill:#5ae4a7;fill-opacity:1;fill-rule:nonzero;stroke:none"
             d="m 0,0 c 0,0 8.315,-2.97 10.098,-8.712 1.781,-5.741 17.423,-25.343 21.185,-29.698 3.762,-4.357 27.125,-17.819 27.125,-17.819 0,0 -3.168,-14.058 -6.138,-16.831 h 3.564 c 0,0 0.594,-3.563 -2.178,-8.117 -2.772,-4.553 -15.641,-9.702 -23.561,-13.662 -7.92,-3.959 -4.95,-8.711 -10.692,-10.691 -5.741,-1.98 -14.057,-1.782 -15.443,-0.198 -1.386,1.583 -10.692,70.485 -10.692,70.485 H -48.31 c 0,0 4.95,18.612 8.711,25.739 3.763,7.128 13.86,12.672 26.136,12.672 C -1.188,3.168 0,0 0,0" /></g><g
           transform="translate(312.0396,249.0049)"
           id="g510"><path
             id="path512"
             style="fill:none;stroke:#1a2e35;stroke-width:1;stroke-linecap:round;stroke-linejoin:round;stroke-miterlimit:10;stroke-dasharray:none;stroke-opacity:1"
             d="m 0,0 c 0,0 8.315,-2.97 10.098,-8.712 1.781,-5.741 17.423,-25.343 21.185,-29.698 3.762,-4.357 27.125,-17.819 27.125,-17.819 0,0 -3.168,-14.058 -6.138,-16.831 h 3.564 c 0,0 0.594,-3.563 -2.178,-8.117 -2.772,-4.553 -15.641,-9.702 -23.561,-13.662 -7.92,-3.959 -4.95,-8.711 -10.692,-10.691 -5.741,-1.98 -14.057,-1.782 -15.443,-0.198 -1.386,1.583 -10.692,70.485 -10.692,70.485 H -48.31 c 0,0 4.95,18.612 8.711,25.739 3.763,7.128 13.86,12.672 26.136,12.672 C -1.188,3.168 0,0 0,0 Z" /></g><g
           transform="translate(289.8311,213.7627)"
           id="g514"><path
             id="path516"
             style="fill:#ffffff;fill-opacity:1;fill-rule:nonzero;stroke:none"
             d="m 0,0 -7.49,18.809 c 0,0 -0.792,-1.584 -3.564,-6.336 C -12.899,9.311 -14.655,3.521 -15.624,0 Z" /></g><g
           transform="translate(289.8311,213.7627)"
           id="g518"><path
             id="path520"
             style="fill:none;stroke:#1a2e35;stroke-width:1;stroke-linecap:round;stroke-linejoin:round;stroke-miterlimit:10;stroke-dasharray:none;stroke-opacity:1"
             d="m 0,0 -7.49,18.809 c 0,0 -0.792,-1.584 -3.564,-6.336 C -12.899,9.311 -14.655,3.521 -15.624,0 Z" /></g><g
           transform="translate(304.9116,215.1484)"
           id="g522"><path
             id="path524"
             style="fill:none;stroke:#1a2e35;stroke-width:1;stroke-linecap:round;stroke-linejoin:round;stroke-miterlimit:10;stroke-dasharray:none;stroke-opacity:1"
             d="M 0,0 -1.583,16.434" /></g><g
           transform="translate(322.335,235.3437)"
           id="g526"><path
             id="path528"
             style="fill:none;stroke:#1a2e35;stroke-width:1;stroke-linecap:round;stroke-linejoin:round;stroke-miterlimit:10;stroke-dasharray:none;stroke-opacity:1"
             d="M 0,0 C 0,0 6.93,-21.779 13.464,-33.065" /></g><g
           transform="translate(345.1045,207.4268)"
           id="g530"><path
             id="path532"
             style="fill:none;stroke:#1a2e35;stroke-width:1;stroke-linecap:round;stroke-linejoin:round;stroke-miterlimit:10;stroke-dasharray:none;stroke-opacity:1"
             d="M 0,0 C 0,0 12.87,-25.344 17.225,-29.501" /></g><g
           transform="translate(336.7886,152.3848)"
           id="g534"><path
             id="path536"
             style="fill:none;stroke:#1a2e35;stroke-width:1;stroke-linecap:round;stroke-linejoin:round;stroke-miterlimit:10;stroke-dasharray:none;stroke-opacity:1"
             d="M 0,0 C 0,0 -15.839,70.485 -16.829,78.009" /></g><g
           transform="translate(320.355,303.2549)"
           id="g538"><path
             id="path540"
             style="fill:#1a2e35;fill-opacity:1;fill-rule:nonzero;stroke:none"
             d="m 0,0 c 0,0 -0.396,-6.93 -1.386,-7.92 -0.989,-0.99 -4.752,-3.366 -5.544,-5.939 -0.792,-2.575 3.367,-6.93 0.595,-10.89 -2.772,-3.96 -6.336,-3.96 -4.95,-8.91 1.386,-4.949 5.939,-12.275 6.335,-16.235 0.396,-3.96 -2.376,-9.306 -5.147,-9.9 -2.772,-0.594 -3.564,4.356 -5.346,3.762 -1.782,-0.594 -5.346,-3.96 -4.95,-7.919 0.396,-3.96 0.792,-5.347 0.792,-5.347 0,0 -2.97,-1.386 -7.722,-1.386 -4.752,0 -7.325,0.594 -7.919,0.594 -0.594,0 -2.178,6.336 -2.178,6.336 l -1.188,-4.949 c 0,0 -1.584,-1.981 -5.742,0 -4.158,1.979 -7.722,3.762 -7.92,4.949 -0.198,1.189 -1.98,3.366 1.386,9.306 3.366,5.94 5.346,7.326 4.95,12.672 -0.396,5.345 0.594,13.661 0.594,13.661 0,0 5.94,15.444 5.544,22.571 -0.396,7.128 13.265,14.454 22.967,11.88 C -7.127,3.762 -6.731,2.97 -5.543,3.168 -4.355,3.366 0.396,5.148 0,0" /></g><g
           transform="translate(320.355,303.2549)"
           id="g542"><path
             id="path544"
             style="fill:none;stroke:#1a2e35;stroke-width:1;stroke-linecap:round;stroke-linejoin:round;stroke-miterlimit:10;stroke-dasharray:none;stroke-opacity:1"
             d="m 0,0 c 0,0 -0.396,-6.93 -1.386,-7.92 -0.989,-0.99 -4.752,-3.366 -5.544,-5.939 -0.792,-2.575 3.367,-6.93 0.595,-10.89 -2.772,-3.96 -6.336,-3.96 -4.95,-8.91 1.386,-4.949 5.939,-12.275 6.335,-16.235 0.396,-3.96 -2.376,-9.306 -5.147,-9.9 -2.772,-0.594 -3.564,4.356 -5.346,3.762 -1.782,-0.594 -5.346,-3.96 -4.95,-7.919 0.396,-3.96 0.792,-5.347 0.792,-5.347 0,0 -2.97,-1.386 -7.722,-1.386 -4.752,0 -7.325,0.594 -7.919,0.594 -0.594,0 -2.178,6.336 -2.178,6.336 l -1.188,-4.949 c 0,0 -1.584,-1.981 -5.742,0 -4.158,1.979 -7.722,3.762 -7.92,4.949 -0.198,1.189 -1.98,3.366 1.386,9.306 3.366,5.94 5.346,7.326 4.95,12.672 -0.396,5.345 0.594,13.661 0.594,13.661 0,0 5.94,15.444 5.544,22.571 -0.396,7.128 13.265,14.454 22.967,11.88 C -7.127,3.762 -6.731,2.97 -5.543,3.168 -4.355,3.366 0.396,5.148 0,0 Z" /></g></g></g><g
       id="g546"><g
         clip-path="url(#clipPath552)"
         id="g548"><g
           transform="translate(231.1187,365.4961)"
           id="g554"><path
             id="path556"
             style="fill:#ffffff;fill-opacity:1;fill-rule:nonzero;stroke:none"
             d="m 0,0 c 0,0 3.863,-7.543 3.127,-11.406 -0.735,-3.864 -0.735,-7.36 0.553,-9.383 1.287,-2.024 3.863,-3.128 2.575,-4.6 -1.288,-1.471 -3.863,-2.759 -3.863,-2.759 0,0 -1.104,-4.968 -2.024,-8.095 -0.92,-3.128 -0.736,-3.679 -4.048,-4.048 -3.311,-0.368 -5.151,-0.184 -5.151,-0.184 0,0 -1.472,7.359 -2.575,21.525 C -12.51,-4.783 0,0 0,0" /></g><g
           transform="translate(231.1187,365.4961)"
           id="g558"><path
             id="path560"
             style="fill:none;stroke:#1a2e35;stroke-width:1;stroke-linecap:round;stroke-linejoin:round;stroke-miterlimit:10;stroke-dasharray:none;stroke-opacity:1"
             d="m 0,0 c 0,0 3.863,-7.543 3.127,-11.406 -0.735,-3.864 -0.735,-7.36 0.553,-9.383 1.287,-2.024 3.863,-3.128 2.575,-4.6 -1.288,-1.471 -3.863,-2.759 -3.863,-2.759 0,0 -1.104,-4.968 -2.024,-8.095 -0.92,-3.128 -0.736,-3.679 -4.048,-4.048 -3.311,-0.368 -5.151,-0.184 -5.151,-0.184 0,0 -1.472,7.359 -2.575,21.525 C -12.51,-4.783 0,0 0,0 Z" /></g><g
           transform="translate(232.5249,347.8398)"
           id="g562"><path
             id="path564"
             style="fill:#1a2e35;fill-opacity:1;fill-rule:nonzero;stroke:none"
             d="m 0,0 c 0,-1.248 -0.325,-2.259 -0.726,-2.259 -0.401,0 -0.726,1.011 -0.726,2.259 0,1.248 0.325,2.259 0.726,2.259 C -0.325,2.259 0,1.248 0,0" /></g><g
           transform="translate(229.459,351.8735)"
           id="g566"><path
             id="path568"
             style="fill:none;stroke:#1a2e35;stroke-width:1;stroke-linecap:round;stroke-linejoin:round;stroke-miterlimit:10;stroke-dasharray:none;stroke-opacity:1"
             d="M 0,0 C 0,0 2.798,4.432 4.787,2.216" /></g><g
           transform="translate(232.5249,333.8027)"
           id="g570"><path
             id="path572"
             style="fill:none;stroke:#1a2e35;stroke-width:1;stroke-linecap:round;stroke-linejoin:round;stroke-miterlimit:10;stroke-dasharray:none;stroke-opacity:1"
             d="M 0,0 C 0,0 -2.259,0.162 -3.227,1.614" /></g><g
           transform="translate(246.0205,276.4521)"
           id="g574"><path
             id="path576"
             style="fill:#ffffff;fill-opacity:1;fill-rule:nonzero;stroke:none"
             d="m 0,0 -9.75,-12.878 -2.392,7.727 8.83,10.486 z" /></g><g
           transform="translate(246.0205,276.4521)"
           id="g578"><path
             id="path580"
             style="fill:none;stroke:#1a2e35;stroke-width:1;stroke-linecap:round;stroke-linejoin:round;stroke-miterlimit:10;stroke-dasharray:none;stroke-opacity:1"
             d="m 0,0 -9.75,-12.878 -2.392,7.727 8.83,10.486 z" /></g><g
           transform="translate(252.4595,291.7222)"
           id="g582"><path
             id="path584"
             style="fill:#1a2e35;fill-opacity:1;fill-rule:nonzero;stroke:none"
             d="M 0,0 4.967,-3.312 -8.514,-18.076 c -1.027,-1.126 -2.822,-1.046 -3.746,0.166 -0.686,0.901 -0.663,2.154 0.054,3.029 z" /></g><g
           transform="translate(252.4595,291.7222)"
           id="g586"><path
             id="path588"
             style="fill:none;stroke:#1a2e35;stroke-width:1;stroke-linecap:round;stroke-linejoin:round;stroke-miterlimit:10;stroke-dasharray:none;stroke-opacity:1"
             d="M 0,0 4.967,-3.312 -8.514,-18.076 c -1.027,-1.126 -2.822,-1.046 -3.746,0.166 -0.686,0.901 -0.663,2.154 0.054,3.029 z" /></g><g
           transform="translate(252.8276,286.2031)"
           id="g590"><path
             id="path592"
             style="fill:#ffffff;fill-opacity:1;fill-rule:nonzero;stroke:none"
             d="m 0,0 c 0,0 -1.656,-2.392 -0.736,-2.76 0.92,-0.368 4.599,-1.104 5.519,-0.736 0.92,0.368 2.576,1.84 1.656,2.76 C 5.519,0.184 1.288,-0.184 0,0" /></g><g
           transform="translate(252.8276,286.2031)"
           id="g594"><path
             id="path596"
             style="fill:none;stroke:#1a2e35;stroke-width:1;stroke-linecap:round;stroke-linejoin:round;stroke-miterlimit:10;stroke-dasharray:none;stroke-opacity:1"
             d="m 0,0 c 0,0 -1.656,-2.392 -0.736,-2.76 0.92,-0.368 4.599,-1.104 5.519,-0.736 0.92,0.368 2.576,1.84 1.656,2.76 C 5.519,0.184 1.288,-0.184 0,0 Z" /></g><g
           transform="translate(249.8838,281.7876)"
           id="g598"><path
             id="path600"
             style="fill:#ffffff;fill-opacity:1;fill-rule:nonzero;stroke:none"
             d="m 0,0 c 0,0 -1.656,-2.392 -0.736,-2.76 0.92,-0.367 4.6,-1.103 5.52,-0.736 0.92,0.369 2.575,1.84 1.655,2.76 C 5.52,0.184 1.288,-0.184 0,0" /></g><g
           transform="translate(249.8838,281.7876)"
           id="g602"><path
             id="path604"
             style="fill:none;stroke:#1a2e35;stroke-width:1;stroke-linecap:round;stroke-linejoin:round;stroke-miterlimit:10;stroke-dasharray:none;stroke-opacity:1"
             d="m 0,0 c 0,0 -1.656,-2.392 -0.736,-2.76 0.92,-0.367 4.6,-1.103 5.52,-0.736 0.92,0.369 2.575,1.84 1.655,2.76 C 5.52,0.184 1.288,-0.184 0,0 Z" /></g><g
           transform="translate(246.7563,279.2119)"
           id="g606"><path
             id="path608"
             style="fill:#ffffff;fill-opacity:1;fill-rule:nonzero;stroke:none"
             d="m 0,0 c 0,0 -1.656,-2.392 -0.736,-2.76 0.92,-0.367 4.6,-1.103 5.519,-0.736 0.92,0.369 2.576,1.84 1.656,2.76 C 5.519,0.184 1.288,-0.184 0,0" /></g><g
           transform="translate(246.7563,279.2119)"
           id="g610"><path
             id="path612"
             style="fill:none;stroke:#1a2e35;stroke-width:1;stroke-linecap:round;stroke-linejoin:round;stroke-miterlimit:10;stroke-dasharray:none;stroke-opacity:1"
             d="m 0,0 c 0,0 -1.656,-2.392 -0.736,-2.76 0.92,-0.367 4.6,-1.103 5.519,-0.736 0.92,0.369 2.576,1.84 1.656,2.76 C 5.519,0.184 1.288,-0.184 0,0 Z" /></g><g
           transform="translate(245.0317,275.9004)"
           id="g614"><path
             id="path616"
             style="fill:#ffffff;fill-opacity:1;fill-rule:nonzero;stroke:none"
             d="M 0,0 C 0,0 -1.243,-1.795 -0.552,-2.072 0.138,-2.348 2.9,-2.9 3.591,-2.624 4.281,-2.348 5.524,-1.243 4.834,-0.552 4.144,0.138 0.967,-0.138 0,0" /></g><g
           transform="translate(245.0317,275.9004)"
           id="g618"><path
             id="path620"
             style="fill:none;stroke:#1a2e35;stroke-width:1;stroke-linecap:round;stroke-linejoin:round;stroke-miterlimit:10;stroke-dasharray:none;stroke-opacity:1"
             d="M 0,0 C 0,0 -1.243,-1.795 -0.552,-2.072 0.138,-2.348 2.9,-2.9 3.591,-2.624 4.281,-2.348 5.524,-1.243 4.834,-0.552 4.144,0.138 0.967,-0.138 0,0 Z" /></g><g
           transform="translate(277.2964,291.3545)"
           id="g622"><path
             id="path624"
             style="fill:#888888;fill-opacity:1;fill-rule:nonzero;stroke:none"
             d="m 0,0 c 0,0 -5.335,7.542 -9.015,12.694 -3.679,5.151 -9.498,7.736 -14.902,5.151 -4.231,-2.023 -6.439,-7.175 -4.783,-11.774 1.656,-4.599 6.255,-7.911 8.83,-9.015 2.576,-1.104 13.615,-3.863 13.615,-3.863 z" /></g><g
           transform="translate(277.2964,291.3545)"
           id="g626"><path
             id="path628"
             style="fill:none;stroke:#1a2e35;stroke-width:1;stroke-linecap:round;stroke-linejoin:round;stroke-miterlimit:10;stroke-dasharray:none;stroke-opacity:1"
             d="m 0,0 c 0,0 -5.335,7.542 -9.015,12.694 -3.679,5.151 -9.498,7.736 -14.902,5.151 -4.231,-2.023 -6.439,-7.175 -4.783,-11.774 1.656,-4.599 6.255,-7.911 8.83,-9.015 2.576,-1.104 13.615,-3.863 13.615,-3.863 z" /></g><g
           transform="translate(241.605,278.292)"
           id="g630"><path
             id="path632"
             style="fill:#ffffff;fill-opacity:1;fill-rule:nonzero;stroke:none"
             d="m 0,0 c 0,0 8.279,7.175 9.015,9.75 0.736,2.576 1.104,2.576 1.839,3.68 0.736,1.104 2.024,4.232 0.369,6.439 C 9.567,22.077 9.199,16.742 7.359,14.718 5.52,12.694 2.208,10.854 0.92,9.75 -0.368,8.647 -2.023,4.6 -2.023,4.6 l -1.656,-6.072 -2.76,-3.495 z" /></g><g
           transform="translate(241.605,278.292)"
           id="g634"><path
             id="path636"
             style="fill:none;stroke:#1a2e35;stroke-width:1;stroke-linecap:round;stroke-linejoin:round;stroke-miterlimit:10;stroke-dasharray:none;stroke-opacity:1"
             d="m 0,0 c 0,0 8.279,7.175 9.015,9.75 0.736,2.576 1.104,2.576 1.839,3.68 0.736,1.104 2.024,4.232 0.369,6.439 C 9.567,22.077 9.199,16.742 7.359,14.718 5.52,12.694 2.208,10.854 0.92,9.75 -0.368,8.647 -2.023,4.6 -2.023,4.6 l -1.656,-6.072 -2.76,-3.495 z" /></g><g
           transform="translate(274.3525,279.9478)"
           id="g638"><path
             id="path640"
             style="fill:#888888;fill-opacity:1;fill-rule:nonzero;stroke:none"
             d="M 0,0 C 0,0 -8.647,11.407 -6.071,13.614 -3.496,15.822 9.935,9.015 9.935,9.015 Z" /></g><g
           transform="translate(274.3525,279.9478)"
           id="g642"><path
             id="path644"
             style="fill:none;stroke:#1a2e35;stroke-width:1;stroke-linecap:round;stroke-linejoin:round;stroke-miterlimit:10;stroke-dasharray:none;stroke-opacity:1"
             d="M 0,0 C 0,0 -8.647,11.407 -6.071,13.614 -3.496,15.822 9.935,9.015 9.935,9.015 Z" /></g><g
           transform="translate(198.0034,249.04)"
           id="g646"><path
             id="path648"
             style="fill:#5ae4a7;fill-opacity:1;fill-rule:nonzero;stroke:none"
             d="m 0,0 c 0,0 -8.647,-18.766 -8.279,-31.275 0.368,-12.511 6.623,-26.493 7.543,-28.884 0.92,-2.392 5.151,-24.101 4.231,-33.3 -0.92,-9.198 -7.359,-12.511 -10.854,-22.261 -3.495,-9.751 -8.279,-39.371 -8.831,-46.546 -0.552,-7.174 -2.944,-26.492 -3.311,-28.883 -0.369,-2.392 -0.369,-4.968 1.287,-4.968 H 9.75 c 0,0 1.84,0.184 1.472,1.288 -0.368,1.104 -4.231,2.76 -7.727,6.071 -3.495,3.312 -9.75,7.36 -10.119,10.119 -0.367,2.759 2.393,14.718 5.336,21.525 2.943,6.807 7.543,12.878 7.543,12.878 0,0 13.614,24.101 16.926,44.522 3.311,20.421 9.934,54.088 9.934,54.088 v 43.051 z" /></g><g
           transform="translate(198.0034,249.04)"
           id="g650"><path
             id="path652"
             style="fill:none;stroke:#1a2e35;stroke-width:1;stroke-linecap:round;stroke-linejoin:round;stroke-miterlimit:10;stroke-dasharray:none;stroke-opacity:1"
             d="m 0,0 c 0,0 -8.647,-18.766 -8.279,-31.275 0.368,-12.511 6.623,-26.493 7.543,-28.884 0.92,-2.392 5.151,-24.101 4.231,-33.3 -0.92,-9.198 -7.359,-12.511 -10.854,-22.261 -3.495,-9.751 -8.279,-39.371 -8.831,-46.546 -0.552,-7.174 -2.944,-26.492 -3.311,-28.883 -0.369,-2.392 -0.369,-4.968 1.287,-4.968 H 9.75 c 0,0 1.84,0.184 1.472,1.288 -0.368,1.104 -4.231,2.76 -7.727,6.071 -3.495,3.312 -9.75,7.36 -10.119,10.119 -0.367,2.759 2.393,14.718 5.336,21.525 2.943,6.807 7.543,12.878 7.543,12.878 0,0 13.614,24.101 16.926,44.522 3.311,20.421 9.934,54.088 9.934,54.088 v 43.051 z" /></g><g
           transform="translate(201.4985,60.2822)"
           id="g654"><path
             id="path656"
             style="fill:#ffffff;fill-opacity:1;fill-rule:nonzero;stroke:none"
             d="m 0,0 c -3.496,3.312 -9.75,7.359 -10.119,10.119 -0.241,1.812 0.869,7.588 2.491,13.269 l -12.176,1.683 c -0.714,-8.016 -2.847,-25.215 -3.193,-27.463 -0.368,-2.391 -0.368,-4.967 1.288,-4.967 H 6.255 c 0,0 1.84,0.184 1.472,1.288 C 7.359,-4.967 3.496,-3.312 0,0" /></g><g
           transform="translate(201.4985,60.2822)"
           id="g658"><path
             id="path660"
             style="fill:none;stroke:#1a2e35;stroke-width:1;stroke-linecap:round;stroke-linejoin:round;stroke-miterlimit:10;stroke-dasharray:none;stroke-opacity:1"
             d="m 0,0 c -3.496,3.312 -9.75,7.359 -10.119,10.119 -0.241,1.812 0.869,7.588 2.491,13.269 l -12.176,1.683 c -0.714,-8.016 -2.847,-25.215 -3.193,-27.463 -0.368,-2.391 -0.368,-4.967 1.288,-4.967 H 6.255 c 0,0 1.84,0.184 1.472,1.288 C 7.359,-4.967 3.496,-3.312 0,0 Z" /></g><g
           transform="translate(201.4985,60.2822)"
           id="g662"><path
             id="path664"
             style="fill:#ffffff;fill-opacity:1;fill-rule:nonzero;stroke:none"
             d="M 0,0 C -2.278,2.158 -5.72,4.627 -7.948,6.851 L -9.245,3.25 c 0,0 -8.859,0.623 -12.906,0.881 -0.404,-3.268 -0.728,-5.759 -0.846,-6.523 -0.368,-2.391 -0.368,-4.967 1.288,-4.967 H 6.255 c 0,0 1.84,0.184 1.472,1.288 C 7.359,-4.967 3.496,-3.312 0,0" /></g><g
           transform="translate(201.4985,60.2822)"
           id="g666"><path
             id="path668"
             style="fill:none;stroke:#1a2e35;stroke-width:1;stroke-linecap:round;stroke-linejoin:round;stroke-miterlimit:10;stroke-dasharray:none;stroke-opacity:1"
             d="M 0,0 C -2.278,2.158 -5.72,4.627 -7.948,6.851 L -9.245,3.25 c 0,0 -8.859,0.623 -12.906,0.881 -0.404,-3.268 -0.728,-5.759 -0.846,-6.523 -0.368,-2.391 -0.368,-4.967 1.288,-4.967 H 6.255 c 0,0 1.84,0.184 1.472,1.288 C 7.359,-4.967 3.496,-3.312 0,0 Z" /></g><g
           transform="translate(198.187,205.6221)"
           id="g670"><path
             id="path672"
             style="fill:#5ae4a7;fill-opacity:1;fill-rule:nonzero;stroke:#1a2e35;stroke-width:1;stroke-linecap:round;stroke-linejoin:round;stroke-miterlimit:10;stroke-dasharray:none;stroke-opacity:1"
             d="m 0,0 4.784,-5.887 c 0,0 3.679,-19.502 4.967,-33.116 1.288,-13.613 0.368,-13.613 -1.84,-24.652 -2.207,-11.038 -5.151,-16.926 -3.495,-26.124 1.655,-9.2 4.415,-54.457 4.783,-56.481 0.368,-2.023 -0.524,-5.703 1.499,-6.439 2.024,-0.736 32.536,0 32.536,0 0,0 2.208,2.392 0.92,3.496 -1.288,1.103 -11.631,4.424 -16.23,8.102 -4.6,3.68 -6.562,4.921 -6.93,7.128 -0.368,2.208 1.451,34.259 4.762,47.505 3.312,13.246 7.176,36.427 9.751,48.201 2.576,11.775 5.152,26.124 3.312,52.985 -0.484,7.061 -2.024,10.119 -2.024,11.406 0,1.288 -0.368,13.799 -0.184,14.534 0.184,0.737 -31.827,2.576 -31.827,2.576" /></g><g
           transform="translate(219.3442,312.5112)"
           id="g674"><path
             id="path676"
             style="fill:#ffffff;fill-opacity:1;fill-rule:nonzero;stroke:none"
             d="m 0,0 c 0,0 17.845,-26.86 17.845,-34.219 0,-7.359 2.024,-31.276 -0.552,-32.379 -2.575,-1.105 -18.949,-1.84 -25.204,-1.105 -6.255,0.737 -12.878,2.024 -14.534,4.048 -1.656,2.024 -2.464,2.647 -3.2,10.374 -0.736,7.726 -4.518,26.03 -4.702,36.332 -0.184,10.303 14.525,22.1 19.677,20.996 C -5.519,2.944 0,0 0,0" /></g><g
           transform="translate(219.3442,312.5112)"
           id="g678"><path
             id="path680"
             style="fill:none;stroke:#1a2e35;stroke-width:1;stroke-linecap:round;stroke-linejoin:round;stroke-miterlimit:10;stroke-dasharray:none;stroke-opacity:1"
             d="m 0,0 c 0,0 17.845,-26.86 17.845,-34.219 0,-7.359 2.024,-31.276 -0.552,-32.379 -2.575,-1.105 -18.949,-1.84 -25.204,-1.105 -6.255,0.737 -12.878,2.024 -14.534,4.048 -1.656,2.024 -2.464,2.647 -3.2,10.374 -0.736,7.726 -4.518,26.03 -4.702,36.332 -0.184,10.303 14.525,22.1 19.677,20.996 C -5.519,2.944 0,0 0,0 Z" /></g><g
           transform="translate(233.1484,366.2881)"
           id="g682"><path
             id="path684"
             style="fill:#1a2e35;fill-opacity:1;fill-rule:nonzero;stroke:none"
             d="M 0,0 C 0,0 0.854,-1.195 -3.073,-9.391 -7,-17.586 -7.342,-21.172 -4.952,-25.782 c 2.391,-4.611 2.22,-9.733 -0.341,-14.514 -2.561,-4.781 -4.269,-3.073 -2.732,-10.074 1.537,-7 -5.122,-9.903 -9.05,-9.903 -3.927,0 -9.049,7.001 -12.464,4.44 -3.415,-2.562 1.537,-9.05 -2.049,-11.44 -3.586,-2.391 -14.514,0.512 -16.733,4.951 -2.22,4.44 1.195,8.025 -2.22,12.123 -3.415,4.098 -7.854,4.952 -5.463,12.635 2.39,7.684 11.098,8.196 10.927,13.147 -0.171,4.952 -1.025,20.319 3.586,27.149 4.61,6.83 15.879,7.684 22.538,6.659 C -12.294,8.367 0,2.903 0,0" /></g><g
           transform="translate(233.1484,366.2881)"
           id="g686"><path
             id="path688"
             style="fill:none;stroke:#1a2e35;stroke-width:1;stroke-linecap:round;stroke-linejoin:round;stroke-miterlimit:10;stroke-dasharray:none;stroke-opacity:1"
             d="M 0,0 C 0,0 0.854,-1.195 -3.073,-9.391 -7,-17.586 -7.342,-21.172 -4.952,-25.782 c 2.391,-4.611 2.22,-9.733 -0.341,-14.514 -2.561,-4.781 -4.269,-3.073 -2.732,-10.074 1.537,-7 -5.122,-9.903 -9.05,-9.903 -3.927,0 -9.049,7.001 -12.464,4.44 -3.415,-2.562 1.537,-9.05 -2.049,-11.44 -3.586,-2.391 -14.514,0.512 -16.733,4.951 -2.22,4.44 1.195,8.025 -2.22,12.123 -3.415,4.098 -7.854,4.952 -5.463,12.635 2.39,7.684 11.098,8.196 10.927,13.147 -0.171,4.952 -1.025,20.319 3.586,27.149 4.61,6.83 15.879,7.684 22.538,6.659 C -12.294,8.367 0,2.903 0,0 Z" /></g><g
           transform="translate(264.0503,263.4658)"
           id="g690"><path
             id="path692"
             style="fill:#888888;fill-opacity:1;fill-rule:nonzero;stroke:none"
             d="m 0,0 c -0.63,0 -1.26,0.236 -1.746,0.711 -0.988,0.964 -1.007,2.547 -0.043,3.535 l 7.268,7.448 c 0.964,0.988 2.546,1.007 3.535,0.043 0.988,-0.964 1.007,-2.547 0.043,-3.535 L 1.789,0.754 C 1.299,0.252 0.65,0 0,0" /></g><g
           transform="translate(264.0503,263.4658)"
           id="g694"><path
             id="path696"
             style="fill:none;stroke:#1a2e35;stroke-width:1;stroke-linecap:round;stroke-linejoin:round;stroke-miterlimit:10;stroke-dasharray:none;stroke-opacity:1"
             d="m 0,0 c -0.63,0 -1.26,0.236 -1.746,0.711 -0.988,0.964 -1.007,2.547 -0.043,3.535 l 7.268,7.448 c 0.964,0.988 2.546,1.007 3.535,0.043 0.988,-0.964 1.007,-2.547 0.043,-3.535 L 1.789,0.754 C 1.299,0.252 0.65,0 0,0 Z" /></g><g
           transform="translate(271.3174,269.4136)"
           id="g698"><path
             id="path700"
             style="fill:#888888;fill-opacity:1;fill-rule:nonzero;stroke:none"
             d="M 0,0 C -1.007,0 -2.015,0.378 -2.793,1.137 -4.374,2.68 -4.405,5.212 -2.862,6.793 l 14.993,15.366 c 1.543,1.58 4.075,1.612 5.656,0.069 1.581,-1.543 1.612,-4.075 0.069,-5.656 L 2.863,1.207 C 2.08,0.403 1.04,0 0,0" /></g><g
           transform="translate(271.3174,269.4136)"
           id="g702"><path
             id="path704"
             style="fill:none;stroke:#1a2e35;stroke-width:1;stroke-linecap:round;stroke-linejoin:round;stroke-miterlimit:10;stroke-dasharray:none;stroke-opacity:1"
             d="M 0,0 C -1.007,0 -2.015,0.378 -2.793,1.137 -4.374,2.68 -4.405,5.212 -2.862,6.793 l 14.993,15.366 c 1.543,1.58 4.075,1.612 5.656,0.069 1.581,-1.543 1.612,-4.075 0.069,-5.656 L 2.863,1.207 C 2.08,0.403 1.04,0 0,0 Z" /></g><g
           transform="translate(273.521,281.3579)"
           id="g706"><path
             id="path708"
             style="fill:#1a2e35;fill-opacity:1;fill-rule:nonzero;stroke:none"
             d="M 0,0 6.69,-4.809 8.99,-3.136 5.75,1.045 9.931,-1.881 13.694,2.3 8.572,6.063 15.158,3.45 8.363,8.677 Z" /></g><g
           transform="translate(201.6826,294.1138)"
           id="g710"><path
             id="path712"
             style="fill:#ffffff;fill-opacity:1;fill-rule:nonzero;stroke:none"
             d="m 0,0 c 0,0 -4.783,-7.727 0.552,-27.412 5.335,-19.685 14.902,-32.196 14.902,-32.196 l 46.177,22.261 c 0,0 5.703,0.184 6.44,1.472 0.736,1.288 1.287,3.68 2.023,4.231 0.736,0.552 4.232,2.76 3.496,4.416 -0.736,1.656 -2.944,1.472 -2.944,1.472 l -7.727,1.655 c 0,0 2.208,2.208 2.576,4.048 0.368,1.84 -0.92,3.127 -2.024,1.84 -1.104,-1.288 -1.287,-1.288 -3.495,-3.68 -2.208,-2.392 -2.576,-6.623 -3.128,-8.095 -0.552,-1.471 -3.311,-3.679 -5.151,-4.415 -1.84,-0.736 -27.228,-3.864 -27.228,-3.864 0,0 -4.968,25.389 -7.911,32.38 C 13.614,1.104 8.095,7.911 5.151,7.359 2.208,6.807 0,0 0,0" /></g><g
           transform="translate(201.6826,294.1138)"
           id="g714"><path
             id="path716"
             style="fill:none;stroke:#1a2e35;stroke-width:1;stroke-linecap:round;stroke-linejoin:round;stroke-miterlimit:10;stroke-dasharray:none;stroke-opacity:1"
             d="m 0,0 c 0,0 -4.783,-7.727 0.552,-27.412 5.335,-19.685 14.902,-32.196 14.902,-32.196 l 46.177,22.261 c 0,0 5.703,0.184 6.44,1.472 0.736,1.288 1.287,3.68 2.023,4.231 0.736,0.552 4.232,2.76 3.496,4.416 -0.736,1.656 -2.944,1.472 -2.944,1.472 l -7.727,1.655 c 0,0 2.208,2.208 2.576,4.048 0.368,1.84 -0.92,3.127 -2.024,1.84 -1.104,-1.288 -1.287,-1.288 -3.495,-3.68 -2.208,-2.392 -2.576,-6.623 -3.128,-8.095 -0.552,-1.471 -3.311,-3.679 -5.151,-4.415 -1.84,-0.736 -27.228,-3.864 -27.228,-3.864 0,0 -4.968,25.389 -7.911,32.38 C 13.614,1.104 8.095,7.911 5.151,7.359 2.208,6.807 0,0 0,0 Z" /></g><g
           transform="translate(226.1108,64.5215)"
           id="g718"><path
             id="path720"
             style="fill:#ffffff;fill-opacity:1;fill-rule:nonzero;stroke:none"
             d="m 0,0 c -4.6,3.68 -6.562,4.921 -6.93,7.128 -0.131,0.785 0.016,5.346 0.407,11.483 h -13.979 c 0.883,-12.02 1.602,-22.805 1.777,-23.77 0.368,-2.024 -0.524,-5.703 1.499,-6.44 2.024,-0.735 32.537,0 32.537,0 0,0 2.207,2.393 0.919,3.496 C 14.942,-6.999 4.599,-3.679 0,0" /></g><g
           transform="translate(226.1108,64.5215)"
           id="g722"><path
             id="path724"
             style="fill:none;stroke:#1a2e35;stroke-width:1;stroke-linecap:round;stroke-linejoin:round;stroke-miterlimit:10;stroke-dasharray:none;stroke-opacity:1"
             d="m 0,0 c -4.6,3.68 -6.562,4.921 -6.93,7.128 -0.131,0.785 0.016,5.346 0.407,11.483 h -13.979 c 0.883,-12.02 1.602,-22.805 1.777,-23.77 0.368,-2.024 -0.524,-5.703 1.499,-6.44 2.024,-0.735 32.537,0 32.537,0 0,0 2.207,2.393 0.919,3.496 C 14.942,-6.999 4.599,-3.679 0,0 Z" /></g><g
           transform="translate(241.4214,52.9229)"
           id="g726"><path
             id="path728"
             style="fill:#ffffff;fill-opacity:1;fill-rule:nonzero;stroke:none"
             d="m 0,0 c 0,0 2.208,2.393 0.919,3.496 -1.287,1.104 -11.63,4.424 -16.23,8.103 -1.77,1.417 -3.146,2.469 -4.194,3.357 -0.111,-0.275 -0.227,-0.585 -0.359,-0.981 -0.792,-2.376 -1.386,-4.554 -1.386,-4.554 l -13.128,0.937 c 0.165,-2.183 0.284,-3.597 0.342,-3.919 C -33.667,4.416 -34.56,0.736 -32.536,0 -30.512,-0.735 0,0 0,0" /></g><g
           transform="translate(241.4214,52.9229)"
           id="g730"><path
             id="path732"
             style="fill:none;stroke:#1a2e35;stroke-width:1;stroke-linecap:round;stroke-linejoin:round;stroke-miterlimit:10;stroke-dasharray:none;stroke-opacity:1"
             d="m 0,0 c 0,0 2.208,2.393 0.919,3.496 -1.287,1.104 -11.63,4.424 -16.23,8.103 -1.77,1.417 -3.146,2.469 -4.194,3.357 -0.111,-0.275 -0.227,-0.585 -0.359,-0.981 -0.792,-2.376 -1.386,-4.554 -1.386,-4.554 l -13.128,0.937 c 0.165,-2.183 0.284,-3.597 0.342,-3.919 C -33.667,4.416 -34.56,0.736 -32.536,0 -30.512,-0.735 0,0 0,0 Z" /></g></g></g><g
       id="g734"><g
         clip-path="url(#clipPath740)"
         id="g736"><g
           transform="translate(673.832,149.0381)"
           id="g742"><path
             id="path744"
             style="fill:#1a2e35;fill-opacity:1;fill-rule:nonzero;stroke:none"
             d="M 0,0 C 1.776,-0.776 6.122,-0.679 6.125,-0.679 6.17,-0.678 5.191,2.166 5.109,2.339 4.155,4.333 1.141,7.626 -1.312,7.295 -3.08,7.056 -4.063,5.287 -3.664,3.623 -3.257,1.923 -1.513,0.661 0,0" /></g><g
           transform="translate(675.332,136.4512)"
           id="g746"><path
             id="path748"
             style="fill:#1a2e35;fill-opacity:1;fill-rule:nonzero;stroke:none"
             d="m 0,0 c 1.843,-0.269 5.721,0.855 6.029,0.946 0.613,-2.171 1.416,-4.348 2.352,-6.508 0.533,-1.235 1.109,-2.462 1.702,-3.685 -0.354,0.518 -0.674,0.978 -0.726,1.038 -1.446,1.672 -5.224,4.052 -7.503,3.084 -1.641,-0.696 -2.122,-2.662 -1.297,-4.162 0.84,-1.531 2.857,-2.289 4.49,-2.526 1.658,-0.243 4.983,0.65 5.861,0.898 0.233,-0.467 0.459,-0.936 0.694,-1.401 1.123,-2.237 2.252,-4.463 3.294,-6.681 0.368,-0.781 0.701,-1.565 1.038,-2.347 -0.316,0.46 -0.584,0.845 -0.631,0.9 -1.447,1.671 -5.225,4.051 -7.503,3.084 -1.642,-0.698 -2.122,-2.663 -1.299,-4.162 0.843,-1.533 2.857,-2.29 4.491,-2.528 1.583,-0.23 4.659,0.566 5.703,0.856 0.321,-0.812 0.643,-1.624 0.916,-2.425 0.175,-0.551 0.381,-1.069 0.525,-1.633 0.155,-0.555 0.308,-1.103 0.46,-1.646 0.254,-1.058 0.522,-2.149 0.744,-3.186 0.159,-0.722 0.298,-1.411 0.439,-2.105 -0.356,0.781 -1.087,2.297 -1.162,2.418 -1.176,1.872 -4.55,4.795 -6.949,4.185 -1.729,-0.441 -2.501,-2.31 -1.913,-3.918 0.599,-1.642 2.476,-2.695 4.056,-3.178 1.738,-0.531 5.587,-0.046 6.068,0.018 0.23,-1.15 0.444,-2.271 0.629,-3.332 0.412,-2.341 0.723,-4.44 0.96,-6.216 h 1.623 c -0.282,1.838 -0.653,4.027 -1.142,6.485 -0.229,1.169 -0.498,2.414 -0.786,3.689 0.289,0.115 1.931,0.779 3.386,1.592 1.266,-1.372 4.513,-2.978 4.934,-3.182 -0.442,-1.087 -0.882,-2.14 -1.314,-3.126 -0.898,-2.066 -1.75,-3.899 -2.503,-5.458 h 1.755 c 0.646,1.438 1.358,3.073 2.1,4.887 0.454,1.101 0.916,2.288 1.379,3.51 0.465,-0.097 4.276,-0.872 6.052,-0.47 1.611,0.363 3.561,1.274 4.282,2.867 0.706,1.559 0.074,3.481 -1.617,4.049 -2.346,0.788 -5.929,-1.877 -7.241,-3.656 -0.078,-0.105 -0.791,-1.337 -1.228,-2.122 0.187,0.501 0.373,0.984 0.56,1.501 0.375,1.021 0.718,2.051 1.092,3.158 0.162,0.541 0.325,1.087 0.49,1.638 0.175,0.544 0.291,1.14 0.441,1.715 0.32,1.34 0.578,2.714 0.807,4.103 0.895,-0.325 4.088,-1.437 5.743,-1.321 1.648,0.117 3.713,0.721 4.666,2.186 0.935,1.434 0.602,3.43 -0.983,4.248 -2.201,1.134 -6.146,-0.958 -7.713,-2.518 -0.098,-0.096 -1.096,-1.341 -1.631,-2.037 0.131,0.837 0.267,1.671 0.372,2.521 0.305,2.455 0.536,4.949 0.779,7.436 0.074,0.762 0.157,1.52 0.237,2.28 0.317,-0.119 4.085,-1.523 5.938,-1.392 1.647,0.115 3.713,0.721 4.667,2.185 0.934,1.434 0.601,3.43 -0.985,4.248 -2.2,1.134 -6.145,-0.957 -7.711,-2.517 -0.118,-0.118 -1.553,-1.912 -1.895,-2.386 0.177,1.672 0.369,3.337 0.624,4.971 0.349,2.254 0.817,4.447 1.427,6.538 0.148,-0.056 4.073,-1.538 5.971,-1.404 1.647,0.115 3.714,0.721 4.668,2.185 0.934,1.434 0.601,3.43 -0.985,4.247 C 45.526,7.573 41.582,5.481 40.016,3.922 39.893,3.8 38.351,1.868 38.096,1.498 c 0.037,0.124 0.06,0.257 0.098,0.381 0.68,2.224 1.618,4.293 2.59,6.186 0.564,1.102 1.163,2.123 1.769,3.105 0.704,-0.352 3.933,-1.92 5.655,-1.988 1.649,-0.067 3.77,0.308 4.878,1.659 1.086,1.322 0.975,3.343 -0.512,4.33 -2.062,1.369 -6.213,-0.277 -7.941,-1.654 -0.094,-0.076 -0.965,-0.944 -1.591,-1.584 0.28,0.438 0.562,0.896 0.838,1.31 1.036,1.561 2.08,2.925 3.015,4.126 0.537,0.678 1.036,1.281 1.509,1.84 0.869,0.016 4.372,0.122 5.904,0.841 1.494,0.702 3.204,2.011 3.565,3.721 0.354,1.674 -0.677,3.416 -2.449,3.607 -2.462,0.266 -5.387,-3.108 -6.286,-5.128 -0.078,-0.175 -0.98,-3.044 -0.935,-3.043 h 0.053 C 47.79,18.679 47.297,18.105 46.771,17.47 45.808,16.286 44.73,14.941 43.657,13.398 42.58,11.858 41.453,10.156 40.429,8.256 39.398,6.352 38.413,4.297 37.671,2.048 37.662,2.022 37.657,1.994 37.648,1.969 c 0.013,0.725 -0.018,2.755 -0.039,2.91 -0.284,2.192 -2.122,6.262 -4.556,6.712 -1.754,0.323 -3.24,-1.05 -3.379,-2.756 -0.143,-1.742 1.12,-3.485 2.351,-4.585 1.389,-1.241 5.245,-2.442 5.551,-2.537 -0.686,-2.149 -1.217,-4.408 -1.628,-6.726 -0.236,-1.324 -0.433,-2.665 -0.614,-4.012 -0.009,0.627 -0.021,1.188 -0.032,1.266 -0.284,2.193 -2.121,6.261 -4.556,6.711 -1.755,0.324 -3.239,-1.05 -3.379,-2.755 -0.143,-1.742 1.12,-3.485 2.351,-4.585 1.25,-1.116 4.516,-2.207 5.384,-2.483 -0.064,-0.518 -0.133,-1.034 -0.195,-1.552 -0.297,-2.485 -0.582,-4.966 -0.937,-7.389 -0.124,-0.855 -0.279,-1.692 -0.43,-2.53 -0.009,0.557 -0.02,1.027 -0.029,1.098 -0.285,2.192 -2.122,6.261 -4.557,6.711 -1.754,0.324 -3.239,-1.05 -3.379,-2.755 -0.142,-1.741 1.12,-3.485 2.352,-4.585 1.192,-1.065 4.198,-2.1 5.228,-2.433 -0.18,-0.853 -0.36,-1.709 -0.573,-2.528 -0.159,-0.556 -0.273,-1.102 -0.463,-1.651 -0.177,-0.547 -0.352,-1.09 -0.525,-1.627 -0.372,-1.023 -0.749,-2.079 -1.137,-3.068 -0.265,-0.689 -0.53,-1.341 -0.795,-1.998 0.134,0.849 0.361,2.517 0.364,2.657 0.035,1.469 -0.487,3.857 -1.525,5.535 0.007,0.216 -0.006,0.433 -0.04,0.648 -0.272,1.69 -1.859,2.944 -3.583,2.485 -2.393,-0.636 -3.909,-4.836 -4.023,-7.043 -0.006,-0.13 0.079,-1.552 0.147,-2.448 -0.12,0.521 -0.231,1.028 -0.361,1.562 -0.251,1.057 -0.534,2.106 -0.831,3.235 -0.164,0.541 -0.33,1.086 -0.496,1.638 -0.154,0.55 -0.385,1.11 -0.578,1.673 -0.473,1.294 -1.015,2.582 -1.59,3.867 0.925,0.222 4.203,1.057 5.518,2.067 1.311,1.005 2.699,2.65 2.687,4.397 -0.012,1.712 -1.39,3.192 -3.164,3 -2.461,-0.268 -4.597,-4.189 -5.044,-6.354 -0.028,-0.135 -0.173,-1.724 -0.237,-2.598 -0.351,0.769 -0.699,1.54 -1.081,2.307 -1.099,2.215 -2.281,4.424 -3.451,6.632 -0.359,0.676 -0.708,1.354 -1.061,2.031 0.331,0.075 4.248,0.985 5.721,2.116 1.31,1.004 2.699,2.649 2.688,4.397 -0.013,1.711 -1.392,3.191 -3.165,2.999 -2.461,-0.268 -4.597,-4.187 -5.044,-6.354 -0.034,-0.163 -0.24,-2.45 -0.264,-3.034 -0.775,1.492 -1.534,2.987 -2.223,4.49 -0.951,2.073 -1.771,4.16 -2.416,6.24 0.155,0.035 4.246,0.966 5.756,2.124 1.31,1.005 2.699,2.649 2.687,4.396 -0.012,1.711 -1.391,3.193 -3.164,3 C 9.428,10.22 7.291,6.299 6.845,4.134 6.81,3.964 6.589,1.502 6.581,1.054 6.543,1.178 6.489,1.302 6.453,1.425 5.793,3.655 5.434,5.898 5.2,8.015 5.062,9.244 4.999,10.427 4.964,11.579 c 0.779,0.095 4.339,0.568 5.812,1.461 1.413,0.856 2.975,2.337 3.154,4.075 0.175,1.702 -1.033,3.326 -2.816,3.329 C 8.639,20.449 6.085,16.786 5.403,14.684 5.366,14.569 5.118,13.365 4.95,12.485 c -0.009,0.521 -0.026,1.058 -0.024,1.556 0.004,1.872 0.121,3.586 0.239,5.104 0.073,0.862 0.157,1.64 0.243,2.368 0.716,0.492 3.579,2.513 4.46,3.958 0.86,1.41 1.563,3.444 0.921,5.07 -0.628,1.592 -2.448,2.476 -4.032,1.657 -2.2,-1.137 -2.778,-5.564 -2.415,-7.745 0.032,-0.188 0.862,-3.079 0.9,-3.054 0,0 0.035,0.024 0.043,0.03 C 5.188,20.731 5.093,19.981 5.005,19.16 4.854,17.643 4.698,15.926 4.654,14.047 4.605,12.169 4.605,10.127 4.799,7.977 4.99,5.82 5.302,3.563 5.924,1.277 5.931,1.252 5.941,1.226 5.948,1.2 5.559,1.812 4.412,3.485 4.31,3.604 2.863,5.276 -0.914,7.656 -3.192,6.689 -4.834,5.991 -5.315,4.026 -4.491,2.526 -3.648,0.995 -1.634,0.238 0,0" /></g><g
           transform="translate(717.7852,148.082)"
           id="g750"><path
             id="path752"
             style="fill:#1a2e35;fill-opacity:1;fill-rule:nonzero;stroke:none"
             d="m 0,0 c 0.038,-0.024 0.79,2.888 0.817,3.077 0.304,2.19 -0.393,6.6 -2.623,7.677 C -3.411,11.529 -5.207,10.596 -5.792,8.988 -6.39,7.346 -5.632,5.331 -4.734,3.944 -3.682,2.317 -0.003,0.002 0,0" /></g><g
           transform="translate(712.9629,95.3281)"
           id="g754"><path
             id="path756"
             style="fill:#1a2e35;fill-opacity:1;fill-rule:nonzero;stroke:none"
             d="m 0,0 h -26.678 l 2.668,-42.654 h 21.343 z" /></g></g></g><g
       id="g758"><g
         clip-path="url(#clipPath764)"
         id="g760"><g
           transform="translate(32.6025,149.0381)"
           id="g766"><path
             id="path768"
             style="fill:#1a2e35;fill-opacity:1;fill-rule:nonzero;stroke:none"
             d="M 0,0 C 1.776,-0.776 6.122,-0.679 6.125,-0.679 6.17,-0.678 5.191,2.166 5.109,2.339 4.155,4.333 1.14,7.626 -1.313,7.295 -3.081,7.056 -4.063,5.287 -3.665,3.623 -3.257,1.923 -1.513,0.661 0,0" /></g><g
           transform="translate(34.1021,136.4512)"
           id="g770"><path
             id="path772"
             style="fill:#1a2e35;fill-opacity:1;fill-rule:nonzero;stroke:none"
             d="m 0,0 c 1.843,-0.269 5.721,0.855 6.029,0.946 0.613,-2.171 1.417,-4.348 2.352,-6.508 0.534,-1.235 1.11,-2.462 1.702,-3.685 -0.354,0.518 -0.674,0.978 -0.725,1.038 -1.447,1.672 -5.225,4.052 -7.503,3.084 -1.642,-0.696 -2.123,-2.662 -1.298,-4.162 0.841,-1.531 2.857,-2.289 4.49,-2.526 1.659,-0.243 4.984,0.65 5.861,0.898 0.233,-0.467 0.459,-0.936 0.694,-1.401 1.122,-2.237 2.252,-4.463 3.294,-6.681 0.368,-0.781 0.701,-1.565 1.038,-2.347 -0.315,0.46 -0.584,0.845 -0.631,0.9 -1.447,1.671 -5.224,4.051 -7.503,3.084 -1.642,-0.698 -2.123,-2.663 -1.299,-4.162 0.843,-1.533 2.858,-2.29 4.492,-2.528 1.582,-0.23 4.659,0.566 5.702,0.856 0.321,-0.812 0.643,-1.624 0.916,-2.425 0.175,-0.551 0.382,-1.069 0.525,-1.633 0.155,-0.555 0.308,-1.103 0.46,-1.646 0.254,-1.058 0.522,-2.149 0.744,-3.186 0.16,-0.722 0.298,-1.411 0.44,-2.105 -0.357,0.781 -1.088,2.297 -1.163,2.418 -1.176,1.872 -4.55,4.795 -6.949,4.185 -1.728,-0.441 -2.501,-2.31 -1.913,-3.918 0.6,-1.642 2.477,-2.695 4.056,-3.178 1.738,-0.531 5.587,-0.046 6.068,0.018 0.231,-1.15 0.444,-2.271 0.628,-3.332 0.413,-2.341 0.725,-4.44 0.961,-6.216 h 1.623 c -0.283,1.838 -0.653,4.027 -1.142,6.485 -0.229,1.169 -0.498,2.414 -0.785,3.689 0.289,0.115 1.93,0.779 3.385,1.592 1.267,-1.372 4.514,-2.978 4.934,-3.182 -0.441,-1.087 -0.882,-2.14 -1.314,-3.126 -0.898,-2.066 -1.75,-3.899 -2.503,-5.458 h 1.755 c 0.647,1.438 1.358,3.073 2.1,4.887 0.453,1.101 0.916,2.288 1.379,3.51 0.466,-0.097 4.276,-0.872 6.052,-0.47 1.61,0.363 3.561,1.274 4.282,2.867 0.706,1.559 0.074,3.481 -1.617,4.049 -2.346,0.788 -5.929,-1.877 -7.241,-3.656 -0.078,-0.105 -0.791,-1.337 -1.228,-2.122 0.187,0.501 0.374,0.984 0.56,1.501 0.375,1.021 0.718,2.051 1.092,3.158 0.161,0.541 0.325,1.087 0.49,1.638 0.175,0.544 0.292,1.14 0.441,1.715 0.32,1.34 0.578,2.714 0.807,4.103 0.895,-0.325 4.088,-1.437 5.743,-1.321 1.647,0.117 3.713,0.721 4.667,2.186 0.934,1.434 0.601,3.43 -0.984,4.248 -2.201,1.134 -6.146,-0.958 -7.713,-2.518 -0.097,-0.096 -1.096,-1.341 -1.631,-2.037 0.131,0.837 0.267,1.671 0.372,2.521 0.305,2.455 0.537,4.949 0.779,7.436 0.074,0.762 0.157,1.52 0.237,2.28 0.317,-0.119 4.085,-1.523 5.938,-1.392 1.647,0.115 3.714,0.721 4.667,2.185 0.934,1.434 0.601,3.43 -0.985,4.248 -2.2,1.134 -6.144,-0.957 -7.711,-2.517 -0.118,-0.118 -1.552,-1.912 -1.895,-2.386 0.177,1.672 0.369,3.337 0.624,4.971 0.35,2.254 0.817,4.447 1.427,6.538 0.148,-0.056 4.073,-1.538 5.971,-1.404 1.648,0.115 3.714,0.721 4.667,2.185 0.935,1.434 0.602,3.43 -0.984,4.247 C 45.526,7.573 41.583,5.481 40.015,3.922 39.893,3.8 38.351,1.868 38.096,1.498 c 0.037,0.124 0.061,0.257 0.099,0.381 0.679,2.224 1.617,4.293 2.59,6.186 0.563,1.102 1.163,2.123 1.768,3.105 0.703,-0.352 3.933,-1.92 5.655,-1.988 1.65,-0.067 3.77,0.308 4.878,1.659 1.086,1.322 0.975,3.343 -0.511,4.33 -2.063,1.369 -6.213,-0.277 -7.942,-1.654 -0.093,-0.076 -0.965,-0.944 -1.591,-1.584 0.281,0.438 0.562,0.896 0.838,1.31 1.036,1.561 2.08,2.925 3.015,4.126 0.537,0.678 1.036,1.281 1.509,1.84 0.869,0.016 4.372,0.122 5.904,0.841 1.494,0.702 3.204,2.011 3.565,3.721 0.354,1.674 -0.676,3.416 -2.45,3.607 -2.461,0.266 -5.386,-3.108 -6.285,-5.128 -0.078,-0.175 -0.98,-3.044 -0.934,-3.043 h 0.052 C 47.79,18.679 47.297,18.105 46.771,17.47 45.807,16.286 44.73,14.941 43.657,13.398 42.58,11.858 41.454,10.156 40.429,8.256 39.399,6.352 38.413,4.297 37.671,2.048 37.663,2.022 37.657,1.994 37.649,1.969 c 0.013,0.725 -0.019,2.755 -0.04,2.91 -0.284,2.192 -2.121,6.262 -4.556,6.712 -1.754,0.323 -3.239,-1.05 -3.379,-2.756 -0.142,-1.742 1.12,-3.485 2.352,-4.585 1.389,-1.241 5.244,-2.442 5.551,-2.537 -0.687,-2.149 -1.218,-4.408 -1.629,-6.726 -0.237,-1.324 -0.433,-2.665 -0.614,-4.012 -0.009,0.627 -0.021,1.188 -0.032,1.266 -0.284,2.193 -2.121,6.261 -4.556,6.711 -1.754,0.324 -3.24,-1.05 -3.379,-2.755 -0.143,-1.742 1.12,-3.485 2.351,-4.585 1.25,-1.116 4.516,-2.207 5.384,-2.483 -0.063,-0.518 -0.133,-1.034 -0.195,-1.552 -0.297,-2.485 -0.582,-4.966 -0.937,-7.389 -0.124,-0.855 -0.278,-1.692 -0.429,-2.53 -0.009,0.557 -0.021,1.027 -0.03,1.098 -0.285,2.192 -2.122,6.261 -4.556,6.711 -1.754,0.324 -3.24,-1.05 -3.38,-2.755 -0.142,-1.741 1.121,-3.485 2.352,-4.585 1.192,-1.065 4.198,-2.1 5.228,-2.433 -0.18,-0.853 -0.36,-1.709 -0.573,-2.528 -0.159,-0.556 -0.273,-1.102 -0.463,-1.651 -0.177,-0.547 -0.352,-1.09 -0.525,-1.627 -0.372,-1.023 -0.749,-2.079 -1.137,-3.068 -0.265,-0.689 -0.53,-1.341 -0.794,-1.998 0.133,0.849 0.36,2.517 0.364,2.657 0.034,1.469 -0.488,3.857 -1.526,5.535 0.006,0.216 -0.006,0.433 -0.04,0.648 -0.272,1.69 -1.859,2.944 -3.583,2.485 -2.392,-0.636 -3.909,-4.836 -4.023,-7.043 -0.006,-0.13 0.079,-1.552 0.147,-2.448 -0.12,0.521 -0.231,1.028 -0.361,1.562 -0.251,1.057 -0.533,2.106 -0.831,3.235 -0.164,0.541 -0.329,1.086 -0.496,1.638 -0.153,0.55 -0.386,1.11 -0.578,1.673 -0.473,1.294 -1.015,2.582 -1.59,3.867 0.926,0.222 4.203,1.057 5.519,2.067 1.31,1.005 2.699,2.65 2.686,4.397 -0.012,1.712 -1.39,3.192 -3.164,3 -2.461,-0.268 -4.597,-4.189 -5.044,-6.354 -0.028,-0.135 -0.174,-1.724 -0.237,-2.598 -0.351,0.769 -0.699,1.54 -1.08,2.307 -1.1,2.215 -2.282,4.424 -3.452,6.632 -0.359,0.676 -0.708,1.354 -1.061,2.031 0.331,0.075 4.248,0.985 5.722,2.116 1.309,1.004 2.699,2.649 2.687,4.397 -0.013,1.711 -1.391,3.191 -3.165,2.999 -2.461,-0.268 -4.597,-4.187 -5.044,-6.354 -0.034,-0.163 -0.24,-2.45 -0.264,-3.034 -0.775,1.492 -1.534,2.987 -2.222,4.49 -0.952,2.073 -1.772,4.16 -2.417,6.24 0.155,0.035 4.246,0.966 5.756,2.124 1.31,1.005 2.699,2.649 2.687,4.396 -0.012,1.711 -1.391,3.193 -3.164,3 C 9.428,10.22 7.292,6.299 6.845,4.134 6.81,3.964 6.589,1.502 6.581,1.054 6.543,1.178 6.49,1.302 6.453,1.425 5.793,3.655 5.434,5.898 5.201,8.015 5.062,9.244 5,10.427 4.964,11.579 c 0.78,0.095 4.339,0.568 5.813,1.461 1.412,0.856 2.974,2.337 3.153,4.075 0.176,1.702 -1.032,3.326 -2.815,3.329 -2.476,0.005 -5.03,-3.658 -5.711,-5.76 -0.038,-0.115 -0.286,-1.319 -0.454,-2.199 -0.008,0.521 -0.026,1.058 -0.024,1.556 0.004,1.872 0.121,3.586 0.239,5.104 0.073,0.862 0.157,1.64 0.244,2.368 0.716,0.492 3.579,2.513 4.46,3.958 0.859,1.41 1.562,3.444 0.92,5.07 -0.628,1.592 -2.448,2.476 -4.033,1.657 -2.199,-1.137 -2.777,-5.564 -2.414,-7.745 0.032,-0.188 0.863,-3.079 0.9,-3.054 0,0 0.035,0.024 0.043,0.03 C 5.188,20.731 5.093,19.981 5.005,19.16 4.854,17.643 4.698,15.926 4.654,14.047 4.605,12.169 4.605,10.127 4.799,7.977 4.991,5.82 5.302,3.563 5.924,1.277 5.931,1.252 5.941,1.226 5.949,1.2 5.559,1.812 4.413,3.485 4.31,3.604 2.864,5.276 -0.914,7.656 -3.192,6.689 -4.834,5.991 -5.315,4.026 -4.491,2.526 -3.648,0.995 -1.633,0.238 0,0" /></g><g
           transform="translate(76.5557,148.082)"
           id="g774"><path
             id="path776"
             style="fill:#1a2e35;fill-opacity:1;fill-rule:nonzero;stroke:none"
             d="m 0,0 c 0.038,-0.024 0.79,2.888 0.816,3.077 0.305,2.19 -0.393,6.6 -2.622,7.677 C -3.412,11.529 -5.208,10.596 -5.792,8.988 -6.39,7.346 -5.632,5.331 -4.735,3.944 -3.682,2.317 -0.003,0.002 0,0" /></g><g
           transform="translate(71.7334,95.3281)"
           id="g778"><path
             id="path780"
             style="fill:#1a2e35;fill-opacity:1;fill-rule:nonzero;stroke:none"
             d="m 0,0 h -26.678 l 2.668,-42.654 h 21.343 z" /></g></g></g><g
       transform="translate(731.5098,52.6738)"
       id="g782"><path
         id="path784"
         style="fill:none;stroke:#1a2e35;stroke-width:1;stroke-linecap:round;stroke-linejoin:round;stroke-miterlimit:10;stroke-dasharray:none;stroke-opacity:1"
         d="M 0,0 H -712.026" /></g></g></svg>